<svg xmlns="http://www.w3.org/2000/svg" width="155.276" height="142.483" viewBox="0 0 155.276 142.483"><g transform="translate(-1887.238 -2943.656)"><rect width="125.117" height="2.916" transform="translate(1894.192 3083.223)" fill="#162a70"/><path d="M1933.392,2976.621c-4.1,0-3.985,4.768-1.976,6.344-1.727-.543-4.115-.776-5.65.464-2.29,1.852-1.992,5.748-.277,6.434,1.631.653,2.89.278,2.925,1.1-2.443,4.508,2.494,8.46,5.621,4.172,3.914,3.086,10.8-1.295,7-5.739,5.263-2.238,2.488-11.021-2.35-11.8C1937.264,2978.1,1935.474,2976.622,1933.392,2976.621Z" fill="#0e1d49"/><path d="M1955.512,3003.387a40.293,40.293,0,0,1-2.608-6.4c-.99-2.839-1.98-7.526-3.927-7.944l-3.005,10.254s4.093,10.563,8.021,10.563a8.559,8.559,0,0,0,3.717-1.408l-1.2-5.324C1955.948,3003.339,1955.576,3003.446,1955.512,3003.387Z" fill="#9cd3d9"/><path d="M1953.415,3000.267c-1.089-2.717-2.889-4.914-3.784-7.574h-1.724l-1.935,6.6s4.093,10.563,8.021,10.563a8.559,8.559,0,0,0,3.717-1.408l-1.035-4.6s-1.235.554-1.517.321A36.681,36.681,0,0,1,1953.415,3000.267Z" fill="#31d9e7"/><path d="M1975.779,2992.693l-3.3,2.277-2.08.5a3.268,3.268,0,0,0,1.09-2.277l-1.255-.231a10.855,10.855,0,0,1-2.541,3.265c-.693.558-.991,2.181-1.42,2.412-.352.19-7.15,3.5-9.759,4.491l1.2,5.324c4.627-2.689,10.675-8.3,10.675-8.3,3.961-.132,7.394-3.367,7.394-3.367C1977.759,2994.046,1975.779,2992.693,1975.779,2992.693Z" fill="#ba4a2b"/><path d="M1967.615,2999.05a.982.982,0,0,0-1.029,0c-.259.179-7.946,3.968-9.911,4.8h0l1.035,4.6c3.881-2.031,10.107-9.049,10.057-9C1967.767,2999.449,1967.8,2999.151,1967.615,2999.05Z" fill="#d89c9a"/><path d="M1968.023,2998.162a2.457,2.457,0,0,1,2.382-.772c1.225.1,2.047-.839,2.8-.671,0,0-.3-.4-1.678.067S1968.811,2996.652,1968.023,2998.162Z" fill="#903b22"/><path d="M1970.4,2995.465l-1.126.19,1.835-1.108A4.36,4.36,0,0,1,1970.4,2995.465Z" fill="#903b22"/><path d="M1931.39,2989.75a3.938,3.938,0,0,1,3.008-2.029c4.35-.942,11.466,1.061,14.579,1.319a17.339,17.339,0,0,0,2.139,7.293c2.975,5.684-2.145,7.929-2.145,14.295h-14.244s.4-3.365-.719-5.519C1930.953,2999.255,1930.243,2991.684,1931.39,2989.75Z" fill="#31d9e7"/><path d="M1935.283,2995.655s-1.893.008-4.2.027a29.646,29.646,0,0,0,2.922,9.427c1.123,2.154.719,5.519.719,5.519h3.412a18.344,18.344,0,0,0,1.351-4.239,2.223,2.223,0,0,0-.677-2.1A10.754,10.754,0,0,1,1935.283,2995.655Z" fill="#23b1b5"/><path d="M1938.748,3010.628c-6.913,15.343,1.653,18.48,5.55,32.6,2.791,10.116-2.336,15.094-.7,25.492a90.072,90.072,0,0,0,2.921,13.007h6.659v-48.8c0-12.2-4.207-19.192-4.207-22.3" fill="#eebbb8"/><path d="M1948.971,3010.628h-10.223c-6.913,15.343,1.653,18.48,5.55,32.6,2.791,10.116-2.336,15.094-.7,25.492a90.072,90.072,0,0,0,2.921,13.007h2.065l-.884-10.722,5.478-1.013V3032.93C1953.178,3020.73,1948.971,3013.738,1948.971,3010.628Z" fill="#d89c9a"/><path d="M1934.727,3010.628c-.708,2.965-4.455,6.4-5.917,12.284-1.137,4.578-.338,8.947,2.039,22.375,1.553,8.774-7.559,16.2-4.983,36.443h5.888l11.066-56.586a3.379,3.379,0,0,1,1.065-1.908h0a3.375,3.375,0,0,0,1.111-2.284l.7-10.324Z" fill="#eebbb8"/><path d="M1935.36,3070h0l7.46-44.851a3.379,3.379,0,0,1,1.065-1.908,3.375,3.375,0,0,0,1.111-2.284l.7-10.324h-10.966c-.708,2.965-4.455,6.4-5.917,12.284-1.137,4.578-.338,8.947,2.039,22.375,1.553,8.774-7.559,16.2-4.983,36.443h1.984a46.228,46.228,0,0,1,1.655-10.079Z" fill="#d89c9a"/><path d="M1953.178,3032.93c0-12.2-4.207-19.192-4.207-22.3h-14.244c-.708,2.965-4.455,6.4-5.917,12.284-1.137,4.578-.338,8.947,2.039,22.375,1.19,6.725-4.461,14.02-5.215,24.708h27.544Z" fill="#162a70"/><path d="M1930.234,3032.658c-1.63-10.122,6.353-17.039,7.905-22.03h-3.412c-.708,2.965-4.455,6.4-5.917,12.284-1.137,4.578-.338,8.947,2.039,22.375,1.19,6.725-4.461,14.02-5.215,24.708h3.179s2.8-15.068,3.894-19.791S1931.864,3042.781,1930.234,3032.658Z" fill="#0e1d49"/><path d="M1946.246,3080.842c-.28.14-.339.414-.2.823.464,1.379-1.059,1.45-.225,2.744h17.053a1.764,1.764,0,0,0-.739-1.77c-.976-.632-7.443-2.055-8.716-2.4s-1.426,1.486-4.428,1.486a6.753,6.753,0,0,1-2.588-.369Z" fill="#162a70"/><path d="M1920.1,3084.409a1.276,1.276,0,0,1,1.063-1.677c4.238-1.122,3-2.023,4.551-2.2,1.037-.12,2.93-.244,3.548.193s.34.85,1.222.914a1.89,1.89,0,0,0,1.35-.338l.077-.393s.438.177.332.923.639,1.355.383,2.58Z" fill="#162a70"/><path d="M1967.418,2976.334a2.446,2.446,0,0,0-1.858.331l-11.751,6.264a11.149,11.149,0,0,0-6.083,10.289h19.692Z" fill="#162a70"/><path d="M1947.726,2993.218a11.149,11.149,0,0,0,6.083,10.289l11.751,6.263a2.445,2.445,0,0,0,1.858.332v-16.884Z" fill="#162a70"/><path d="M1994.038,2960.905l-27.733,16.074c-5.3,2.866-8.964,9.058-8.964,16.239h36.7Z" fill="#bb83ff"/><path d="M1957.341,2993.218c0,7.18,3.668,13.373,8.964,16.239l27.733,16.074v-32.313Z" fill="#854cd6"/><ellipse cx="34.562" cy="47.007" rx="34.562" ry="47.007" transform="translate(1973.39 2943.656)" fill="#bb83ff"/><ellipse cx="31.641" cy="44.853" rx="31.641" ry="44.853" transform="translate(1977.649 2945.809)" fill="#bb83ff"/><ellipse cx="17.272" cy="39.971" rx="17.272" ry="39.971" transform="translate(1977.649 2950.691)" fill="#854cd6"/><path d="M2022.373,2990.663c0-5.538-2.773-10.072-6.291-10.475l-36.6-4.584a62.876,62.876,0,0,0,0,30.118l36.537-4.576C2019.565,3000.792,2022.373,2996.235,2022.373,2990.663Z" fill="#162a70"/><ellipse cx="5.655" cy="8.736" rx="5.655" ry="8.736" transform="translate(2010.428 2981.927)" fill="#0b6de3"/><path d="M1979.479,2975.6a62.876,62.876,0,0,0,0,30.118l30.948-3.874c-12.746,1.6-23.869-9.618-23.384-25.3Z" fill="#111b3d"/><path d="M1934.024,2987.81c-3.774.866-5.087,6.173-6.047,11.639s-1.034,9.659,0,11.179,7.235-4.118,7.235-6.3v-5.273C1935.212,2997.529,1935.742,2987.415,1934.024,2987.81Z" fill="#31d9e7"/><path d="M1928.627,3004.49l1.4,5.843c2.176-1.285,5.19-4.485,5.19-6.01v-4.529a1.9,1.9,0,0,1-1.156,1.75A12.122,12.122,0,0,0,1928.627,3004.49Z" fill="#31d9e7"/><path d="M1932,3002.705a8.677,8.677,0,0,0-2.739,1.241,5.085,5.085,0,0,0-1.3,6.682,1.746,1.746,0,0,0,2.274.655C1929.878,3007.964,1930.687,3004.361,1932,3002.705Z" fill="#23b1b5"/><path d="M1927.393,3009.385a3.5,3.5,0,0,0,.567,1.243,1.746,1.746,0,0,0,2.274.655c-.044-.405-.069-.813-.079-1.222C1928.039,3010.831,1927.5,3009.7,1927.393,3009.385Z" fill="#7dc8cc"/><path d="M1950.315,2993.688l-2.2,1.347a10.973,10.973,0,0,1-2.832.455,6.97,6.97,0,0,0,2.3-1.327l-.911-.475a6.706,6.706,0,0,1-1.505.3c-.476-.02-2.931,2.614-3.783,3.743l-7.228,4.614a10.687,10.687,0,0,0-2.153.363c-1.315,1.656-2.124,5.259-1.768,8.578a26.9,26.9,0,0,0,2.495-1.426c4.1-2.241,5.414-4.25,10.04-9.02,0,0,4.433-.855,5.243-1.787a32.024,32.024,0,0,0,2.659-3.9l.515-.653Z" fill="#eebbb8"/><path d="M1945.285,2995.49a2.226,2.226,0,0,1-.364-.1,16.983,16.983,0,0,0,1.744-.534A9.912,9.912,0,0,1,1945.285,2995.49Z" fill="#d89c9a"/><path d="M1940.668,3001.518c-1.074.922-5.119,6.276-10.513,8.543.01.409.035.817.079,1.222a26.9,26.9,0,0,0,2.495-1.426c4.1-2.241,5.414-4.25,10.04-9.02A2.543,2.543,0,0,0,1940.668,3001.518Z" fill="#d89c9a"/><path d="M1939.961,2980.988s-.847,5.689-.944,6.7c-.107,1.113.845,2.8,3.4,3.108,1.79.218,3.561-.763,3.561-1.882,0-.832,1.065-7.922,1.065-7.922Z" fill="#eebbb8"/><path d="M1939.961,2980.988s-.847,5.689-.944,6.7a2.819,2.819,0,0,0,1.7,2.606c.508-3.88,3.246-4,5.565-4,.315-2.323.762-5.3.762-5.3Z" fill="#d89c9a"/><path d="M1950.567,2977a6.09,6.09,0,0,1-12.18,0c0-3.907,2.848-6.478,7.253-6.09C1948.99,2971.2,1950.567,2973.42,1950.567,2977Z" fill="#eebbb8"/><path d="M1950.563,2977.135h-9.633c-1.275.058-2.386,1.242-2.15,2.015a6.089,6.089,0,0,0,11.783-2.015Z" fill="#eebbb8"/><path d="M1950.631,2976.723c.146-2.991-1.454-5.283-4.434-5.283s-5.721,2.188-5.431,5.3c.04.427.193,2.086.243,2.529.543,4.757,4.208,6.485,6.1,6.216,2.586-.369,3.454-2.743,3.393-6.217C1950.494,2978.818,1950.61,2977.151,1950.631,2976.723Z" fill="#eebbb8"/><path d="M1940.93,2980.426a1.648,1.648,0,0,1,.133-3.291Z" fill="#eebbb8"/><path d="M1945.3,2978.2a.391.391,0,1,1-.391-.391A.391.391,0,0,1,1945.3,2978.2Zm3.682,0a.391.391,0,1,0,.391-.391A.391.391,0,0,0,1948.977,2978.2Z" fill="#111b3d"/><path d="M1948.717,2980.845a.051.051,0,0,0-.092-.034c-.266.388-.6.522-1.5.522-.927,0-1.472-.143-1.783-.56a.05.05,0,0,0-.091.028c-.007.541,0,2.442,1.953,2.285C1948.415,2982.989,1948.717,2981.679,1948.717,2980.845Z" fill="#111b3d"/><path d="M1945.693,2982.073a1.347,1.347,0,0,1,2.219.6,1.831,1.831,0,0,1-1.36.209A1.24,1.24,0,0,1,1945.693,2982.073Z" fill="#ed8768"/><path d="M1942.9,2977.383a4.2,4.2,0,0,1,1.3-.691,1.717,1.717,0,0,1,1.459.22l-.012.038a5.963,5.963,0,0,0-1.423.025,4.678,4.678,0,0,0-1.3.438Zm7.718-.449a2.864,2.864,0,0,0-1.071-.451,1.316,1.316,0,0,0-1.218.32l.013.037a4.331,4.331,0,0,1,1.208-.074,3.276,3.276,0,0,1,1.06.306Z" fill="#111b3d"/><path d="M1946.5,2979.688v.026h1.152a.249.249,0,0,0,.253-.294c-.022-.111-.648-1.662-.648-1.662l-.025.01a10.9,10.9,0,0,0,.416,1.714A6.286,6.286,0,0,0,1946.5,2979.688Z" fill="#903b22"/><path d="M1947.857,2970.4l0,.006c-2.252-3.1-5.711-1.674-6.981-.013-.844,1.1-4.12,1.483-4.263,4.745-.186,4.213,3.028,5.807,3.028,6.444a1.3,1.3,0,0,1-.364.953.849.849,0,0,0,.512,1.573c.755,0,1.519-1.229,1.091-2.435s-.9-1.351-1.283-2.1a1.643,1.643,0,0,1-.081-1.378h0a2.654,2.654,0,0,0,.239.888c4.215-.586,4.72-2.959,4.72-2.959,2.234-.264,4.968-1.139,5.591-2.4a6.017,6.017,0,0,1,.563,2.994c-.021.428-.137,2.1-.129,2.542C1953.713,2974.32,1950.549,2971.093,1947.857,2970.4Z" fill="#0e1d49"/><path d="M1893.027,2992.6H1908.2a5.789,5.789,0,0,1,5.79,5.789v6.408a5.785,5.785,0,0,1-5.669,5.783,7.566,7.566,0,0,0,8.753,5.894,8.012,8.012,0,0,1-3.959,1.042,9.266,9.266,0,0,1-7.857-4.137,6.081,6.081,0,0,0-5.162-2.793h-7.065a5.789,5.789,0,0,1-5.789-5.789v-6.408A5.789,5.789,0,0,1,1893.027,2992.6Z" fill="#f17781"/><circle cx="1.431" cy="1.431" r="1.431" transform="translate(1899.175 3000.132)" fill="#f2b5a7"/><circle cx="1.431" cy="1.431" r="1.431" transform="translate(1892.76 3000.132)" fill="#f2b5a7"/><circle cx="1.431" cy="1.431" r="1.431" transform="translate(1905.589 3000.132)" fill="#f2b5a7"/></g></svg>