<svg xmlns="http://www.w3.org/2000/svg" width="295" height="262" viewBox="0 0 295 262"><g transform="translate(-1514.918 -2527.102)"><rect width="295" height="262" transform="translate(1514.918 2527.102)" fill="#f0e8fc"/><rect width="294" height="261" transform="translate(1515.418 2527.602)" fill="#f0e8fc"/><path d="M1809.418,2788.6v-93.578l-132.664-79.235-161.336,99.746V2788.6Z" fill="#caccf9"/><path d="M1768.144,2697.917l-116.184,67.042-95.267-55.364,115.73-67.414Z" fill="#babbf3"/><path d="M1768.144,2686.4l-116.184,67.414-95.143-55.24-.034-2.742,115.64-64.8,95.721,52.779Z" fill="#6a3782"/><path d="M1768.144,2683.793l-116.184,67.414-95.267-55.364,115.73-67.414Z" fill="#fff"/><path d="M1768.144,2683.917l-116.184,67.414-95.267-55.364,115.73-67.414Z" fill="#fff"/><path d="M1720.276,2683.757a5.139,5.139,0,0,0,1.425-3.943,14.916,14.916,0,0,0-6.769-11.676c-3.739-2.159-6.77-.431-6.77,3.86a14.99,14.99,0,0,0,4.151,9.561,5.139,5.139,0,0,0-1.425,3.943,14.917,14.917,0,0,0,6.769,11.677c3.739,2.158,6.77.43,6.77-3.86A14.992,14.992,0,0,0,1720.276,2683.757Z" fill="#90e08c"/><path d="M1658.516,2647.6a14.915,14.915,0,0,0-6.77-11.676c-3.739-2.159-6.77-.431-6.77,3.859a10.871,10.871,0,0,0,.287,2.4c-2.091.115-3.508,1.849-3.508,4.782a14.918,14.918,0,0,0,6.77,11.677c3.739,2.158,6.77.43,6.77-3.86a10.87,10.87,0,0,0-.287-2.4C1657.1,2652.27,1658.516,2650.535,1658.516,2647.6Z" fill="#90e08c"/><path d="M1654.551,2551.244l-7.093,3.385,7.308,105.962,53.142,38.2,7.146-3.385-.107-109.025Z" fill="#7b66a9"/><path d="M1647.458,2554.629l.161,109.348,60.289,34.819-.054-109.025Z" fill="#babbf3"/><path d="M1670.908,2672.144l0,.869a3,3,0,0,0,1.5,2.594h0a3,3,0,0,0,4.5-2.6v-.868a3,3,0,0,0-1.491-2.592h0A3,3,0,0,0,1670.908,2672.144Z" fill="#fff"/><path d="M1705.064,2680.771l-.039-78.421a5.561,5.561,0,0,0-2.782-4.816l-48.353-27.926a2.385,2.385,0,0,0-3.578,2.069l.115,78.076a5.565,5.565,0,0,0,2.766,4.8l48.445,28.187A2.279,2.279,0,0,0,1705.064,2680.771Z" fill="#fff"/><path d="M1707.908,2589.771l7.146-3.385-60.5-35.142-7.093,3.385Z" fill="#a89ddf"/><path d="M1689.075,2582.4l-5.562-3.236v3.687l5.563,3.213Z" fill="#fff"/><path d="M1666.135,2572.813l13.832,7.988v-3.7l-13.837-8.051Z" fill="#fff"/><path d="M1670.784,2672.02l0,.869a3,3,0,0,0,1.5,2.594h0a3,3,0,0,0,4.5-2.6v-.868a3,3,0,0,0-1.491-2.592h0A3,3,0,0,0,1670.784,2672.02Z" fill="#fff"/><path d="M1704.94,2680.647a2.279,2.279,0,0,1-3.426,1.971l-48.444-28.187a5.569,5.569,0,0,1-2.767-4.8l-.1-69.311-.012-8.765a2.386,2.386,0,0,1,3.579-2.069l48.352,27.925a5.566,5.566,0,0,1,2.782,4.817l.005,9.894Z" fill="#fff"/><path d="M1704.906,2612.12l-54.706-31.8-.012-8.765a2.386,2.386,0,0,1,3.579-2.069l48.352,27.925a5.566,5.566,0,0,1,2.782,4.817Z" fill="#e65c9a"/><path d="M1656.021,2578.949l4.708,2.737V2577.6l-4.708-2.737Z" fill="#7b66a9"/><path d="M1663.95,2579.469v4.088l36.177,21.031V2600.5Z" fill="#7b66a9"/><path d="M1654.534,2578.949l4.708,2.737V2577.6l-4.708-2.737Z" fill="#fff"/><path d="M1662.463,2579.469v4.088l36.177,21.031V2600.5Z" fill="#fff"/><path d="M1700.227,2675.38l-46.856-27.061-.04-26.623-.05-33.74,46.916,27.3.014,26.5v2.857l.014,29.168Z" fill="#efddf5"/><path d="M1700.226,2673.778l-45.368-26.2-.04-26.623,17.433-9.62,10.407,27.133,11.4-5.451,6.155,8.739v2.857Z" fill="#7b66a9"/><path d="M1700.227,2675.38l-46.856-27.061-.04-26.623,17.433-9.62,10.407,27.133,11.4-5.451,7.643,10.853Z" fill="#e65c9a"/><path d="M1690.706,2642.047l-3.334,1.591,41.412,24.074,3.346-1.585Z" fill="#f3ab45"/><path d="M1728.8,2687.782v-20.1l-41.431-24.2v20.1Z" fill="#ffd47c"/><path d="M1703.678,2658.313v3.536l20.714,12.1v-3.535Z" fill="#fff"/><path d="M1703.678,2668.423l20.714,12.1v-3.536l-20.714-12.1Z" fill="#fff"/><ellipse cx="4.831" cy="8.368" rx="4.831" ry="8.368" transform="matrix(0.863, -0.505, 0.505, 0.863, 1686.939, 2653.75)" fill="#fff"/><path d="M1728.757,2667.68v20.1l3.337-2.252V2666.1Z" fill="#d89341"/><path d="M1567.927,2626.189l-3.334,1.591,41.412,24.074,3.345-1.585Z" fill="#f3ab45"/><path d="M1606.019,2671.924v-20.1l-41.431-24.195v20.1Z" fill="#ffd47c"/><path d="M1580.9,2642.454v3.536l20.714,12.1v-3.535Z" fill="#fff"/><path d="M1580.9,2652.565l20.714,12.1v-3.536l-20.714-12.1Z" fill="#fff"/><ellipse cx="4.831" cy="8.368" rx="4.831" ry="8.368" transform="translate(1564.161 2637.892) rotate(-30.311)" fill="#fff"/><path d="M1605.979,2651.822v20.1l3.337-2.252v-19.437Z" fill="#d89341"/><path d="M1634.922,2572.306l-2.277,1.087,28.278,16.439,2.284-1.082Z" fill="#f3ab45"/><path d="M1660.932,2603.535v-13.724l-28.291-16.521v13.724Z" fill="#ffd47c"/><path d="M1643.781,2583.413v2.414l14.145,8.26v-2.414Z" fill="#fff"/><path d="M1643.781,2590.316l14.145,8.26v-2.414l-14.145-8.26Z" fill="#fff"/><ellipse cx="3.299" cy="5.714" rx="3.299" ry="5.714" transform="translate(1632.35 2580.297) rotate(-30.311)" fill="#fff"/><path d="M1660.905,2589.809v13.728l2.279-1.538v-13.272Z" fill="#d89341"/><path d="M1671.583,2695.234l13.409-7.955,14.319,7.955-13.864,8.409Z" fill="#ad286b"/><path d="M1685.459,2703.41l13.41-7.955,14.319,7.955-13.864,8.409Z" fill="#babbf3"/><path d="M1685.447,2703.643v16.592l13.864-8.409v-16.591Z" fill="#6a3782"/><path d="M1685.447,2703.643l-13.864-8.409v16.591l13.864,8.409Z" fill="#cd387c"/><path d="M1587.014,2681.229l9.225-5.473,9.851,5.473-9.538,5.785Z" fill="#84c97f"/><path d="M1596.43,2687.052l9.225-5.473,9.851,5.473-9.538,5.785Z" fill="#babbf3"/><path d="M1596.552,2687.015v11.415l9.538-5.785v-11.414Z" fill="#659961"/><path d="M1596.552,2687.015l-9.538-5.785v11.414l9.538,5.785Z" fill="#90e08c"/><path d="M1619.159,2716.624l6.654-3.948,7.105,3.948-6.88,4.173Z" fill="#f3ab45"/><path d="M1626.1,2720.713l6.654-3.948,7.105,3.948-6.88,4.173Z" fill="#babbf3"/><path d="M1626.039,2720.8v8.233l6.88-4.173v-8.233Z" fill="#d89341"/><path d="M1626.039,2720.8l-6.88-4.173v8.233l6.88,4.173Z" fill="#ffd47c"/><ellipse cx="13.628" cy="7.936" rx="13.628" ry="7.936" transform="translate(1623.756 2697.438)" fill="#babbf3"/><path d="M1651.381,2666.111c4.182,2.44.878,1.779.878,1.779,1.469,3.3-1.762,4.626-3.084-1.1" fill="#ffbd8b"/><path d="M1629.876,2660.946c2.629,4.066-.02,1.984-.02,1.984-.183,3.611-3.663,3.33-2.254-2.376" fill="#ffbd8b"/><path d="M1643.374,2710.7a7.245,7.245,0,0,1-1.909-1.982v2.349h-.881s-.734-6.021-.734-6.608.734-.735.734-.735l-.041-.327-.4-3.271,3.378-.22-.661,3.965s1.542,2.937,2.2,3.378a1.345,1.345,0,0,0,.783.2c.355,0,.658-.037.832.311C1646.972,2708.349,1645.136,2711.14,1643.374,2710.7Z" fill="#362e69"/><path d="M1645.846,2707.451c-2.871,1.309-4.445-1.207-5.3-4.055l-.4-3.271,3.378-.22-.661,3.965s1.542,2.937,2.2,3.378A1.345,1.345,0,0,0,1645.846,2707.451Z" fill="#ffbd8b"/><path d="M1633.489,2703.088c-.005.657-2.909,2.308-4.278,1.114a7.26,7.26,0,0,1-.8-2.634l-1.068,2.092-.785-.4s2.084-5.7,2.35-6.22.989-.32.989-.32l0-.01.11-.3,1.13-3.095,3.109,1.34-2.392,3.231s.013,1.126.1,2.2a5.937,5.937,0,0,0,.325,1.808,1.338,1.338,0,0,0,.6.536C1633.2,2702.6,1633.493,2702.7,1633.489,2703.088Z" fill="#ffbd8b"/><path d="M1634.676,2655.531c-3.305,5.067.514,20.487.514,20.487s-3.819,11.088-4.7,18.578l3.305,1.542s9.913-16.963,9.692-19.606-4.332-21-4.332-21Z" fill="#2b275a"/><path d="M1646.678,2660.253a103.581,103.581,0,0,1,0,22.249l-2.5,18.431-4.773-.441.808-18.5s-3.378-11.675-3.892-14.1a66.944,66.944,0,0,1-.661-8.151" fill="#362e69"/><path d="M1634.29,2635.859c-6.116,2.365-7,15.215-7.658,25.275a14.941,14.941,0,0,0,3.819,0l.881-8.224s2.863-5.874,4.332-9.839" fill="#7b66a9"/><path d="M1646.876,2660.392a4.761,4.761,0,0,1-.051,1.183c-6.682,2.937-13.8.44-13.584-2.056,1.1-4.553,1.4-8.3,0-10.721a14.48,14.48,0,0,1-1.724-4.379,9.789,9.789,0,0,1,1.724-7.81c1.322-1.322,2.79-1.395,6.976,0,5.517,1.839,7.343,3.084,7.343,6.241,0,1.249-.147,7.564-.955,9.84C1645.942,2654.559,1646.764,2658.21,1646.876,2660.392Z" fill="#7b66a9"/><g opacity="0.32" style="mix-blend-mode:multiply;isolation:isolate"><path d="M1646.825,2661.575c-6.682,2.937-13.8.44-13.584-2.056,1.1-4.553,1.4-8.3,0-10.721a14.48,14.48,0,0,1-1.724-4.379c1.537,3.394,3.726,4.752,7.3,11.061,2.293,4.042,5.3,5.085,8.055,4.912A4.761,4.761,0,0,1,1646.825,2661.575Z" fill="#7b66a9"/></g><path d="M1651.965,2666.421l-.118.066-2.525,1.4s-3.672-8.445-4.186-9.619-.954-9.693-.954-9.693-.212-5.076.96-7.454c.358-.727.845-1.2,1.507-1.2,4.435-.008,2.893,16.808,2.893,16.808Z" fill="#7b66a9"/><g opacity="0.32" style="mix-blend-mode:multiply;isolation:isolate"><path d="M1651.847,2666.487l-2.525,1.4s-3.672-8.445-4.186-9.619-.954-9.693-.954-9.693-.212-5.076.96-7.454C1643.565,2655.963,1648.258,2663.784,1651.847,2666.487Z" fill="#7b66a9"/></g><path d="M1633.489,2703.088c-.005.657-2.909,2.308-4.278,1.114a7.26,7.26,0,0,1-.8-2.634l-1.068,2.092-.785-.4s2.084-5.7,2.35-6.22.989-.32.989-.32l0-.01c.875.693,1.252,2.47,2.058,3.378a5.937,5.937,0,0,0,.325,1.808,1.338,1.338,0,0,0,.6.536C1633.2,2702.6,1633.493,2702.7,1633.489,2703.088Z" fill="#2b275a"/><path d="M1642.543,2638.051s-4.75,2.226-4.75-1.335v-3.265a6.666,6.666,0,0,1-2.374-5.937c.445-3.859,6.678-6.678,9.647-2.968,1.632,2.374,1.273,9.327.742,10.389-.742,1.484-3.414.148-3.414.148Z" fill="#ffbd8b"/><path d="M1643.136,2630.185c0-1.484,2.375-2.374,3.117-3.71a4.133,4.133,0,0,0,.385-1.052,2.823,2.823,0,0,0-.383-2.185,2.99,2.99,0,0,0-1.1-1.011,1.074,1.074,0,0,1-.093-.056c-.446-.3-6.679-3.116-9.647,2.82-2.968,2.82-.445,7.421,2.374,8.46,0,1.484,4.008,1.038,4.156,0A17.789,17.789,0,0,1,1643.136,2630.185Z" fill="#362e69"/><circle cx="2.439" cy="2.439" r="2.439" transform="translate(1635.505 2623.73)" fill="#e65c9a"/><path d="M1638.864,2626.492a5.7,5.7,0,0,0-5.013-2.6c-3.1.161-5.341,2.908-5.721,6.146a7.61,7.61,0,0,0,.308,3.26c1.869,5.647.35,7.5.35,7.5,4.567.489,10.336-2.056,11.459-7.324A9.147,9.147,0,0,0,1638.864,2626.492Z" fill="#433f82"/><circle cx="1.363" cy="1.363" r="1.363" transform="matrix(0.207, -0.978, 0.978, 0.207, 1641.042, 2631.967)" fill="#362e69"/><circle cx="1.363" cy="1.363" r="1.363" transform="translate(1641.295 2630.042)" fill="#ffbd8b"/></g></svg>