<svg xmlns="http://www.w3.org/2000/svg" width="1030" height="102.951" viewBox="0 0 1030 102.951"><g transform="translate(-285 -2195.545)"><rect width="216.22" height="90.032" transform="translate(285 2195.545)" fill="#ffe9ed"/><rect width="216.22" height="6.868" transform="translate(285 2195.545)" fill="#f17781"/><path d="M4.723-12.518a4.005,4.005,0,0,1,2.3.656,4.158,4.158,0,0,1,1.494,2A10.66,10.66,0,0,1,9.048-6.1a10.633,10.633,0,0,1-.535,3.785A4.251,4.251,0,0,1,7.072-.328,3.88,3.88,0,0,1,4.79.307,4.017,4.017,0,0,1,2.474-.332,4.168,4.168,0,0,1,1-2.274a10.194,10.194,0,0,1-.531-3.71,8.818,8.818,0,0,1,1.038-4.873A3.7,3.7,0,0,1,4.723-12.518Zm.054,2.208a1.589,1.589,0,0,0-1.044.378,2.449,2.449,0,0,0-.7,1.3,11.408,11.408,0,0,0-.24,2.7,6.539,6.539,0,0,0,.551,3.2,1.639,1.639,0,0,0,1.429.884,1.507,1.507,0,0,0,1.342-.838,6.974,6.974,0,0,0,.6-3.387A7.085,7.085,0,0,0,6.181-9.4,1.6,1.6,0,0,0,4.777-10.31Zm7.541-1.9H15.8V0H13.489V-10.027H10.974Z" transform="translate(304.104 2258.44)" fill="#6b6b6b"/><path d="M4.38,11.247A6.612,6.612,0,0,1,1.747,9.969,2.442,2.442,0,0,1,.923,8.1,2.58,2.58,0,0,1,1.93,6.013a4,4,0,0,1,2.618-.824,4.369,4.369,0,0,1,1.959.425A3.222,3.222,0,0,1,7.841,6.786a3,3,0,0,1,.472,1.633H6.9a1.95,1.95,0,0,0-.615-1.525,2.5,2.5,0,0,0-1.736-.555A2.561,2.561,0,0,0,2.926,6.8a1.53,1.53,0,0,0-.582,1.273,1.376,1.376,0,0,0,.553,1.1A5.424,5.424,0,0,0,4.779,10a8.734,8.734,0,0,1,2.08.825,3.157,3.157,0,0,1,1.113,1.051,2.683,2.683,0,0,1,.363,1.414,2.492,2.492,0,0,1-1.011,2.076,4.31,4.31,0,0,1-2.7.78,5.013,5.013,0,0,1-2.051-.421A3.451,3.451,0,0,1,1.1,14.572a2.815,2.815,0,0,1-.516-1.663H2a1.837,1.837,0,0,0,.714,1.527A3.007,3.007,0,0,0,4.622,15a2.764,2.764,0,0,0,1.707-.454A1.475,1.475,0,0,0,6.921,13.3a1.448,1.448,0,0,0-.549-1.212A6.333,6.333,0,0,0,4.38,11.247Zm8.833,4.9a3.463,3.463,0,0,1-2.622-1.058A3.928,3.928,0,0,1,9.58,12.257v-.249a4.756,4.756,0,0,1,.45-2.106,3.514,3.514,0,0,1,1.26-1.45,3.167,3.167,0,0,1,1.754-.524,2.968,2.968,0,0,1,2.4,1.018,4.408,4.408,0,0,1,.857,2.915v.564H10.935a2.817,2.817,0,0,0,.685,1.893,2.153,2.153,0,0,0,1.666.721,2.36,2.36,0,0,0,1.216-.293,3.055,3.055,0,0,0,.872-.776l.828.645A3.328,3.328,0,0,1,13.213,16.146Zm-.168-7.1a1.807,1.807,0,0,0-1.377.6,2.9,2.9,0,0,0-.688,1.674h3.97v-.1a2.581,2.581,0,0,0-.557-1.6A1.7,1.7,0,0,0,13.044,9.042ZM23.057,16H21.7V8.075h1.355ZM21.592,5.973a.809.809,0,0,1,.2-.557.756.756,0,0,1,.6-.227.768.768,0,0,1,.6.227.8.8,0,0,1,.205.557.774.774,0,0,1-.205.549.782.782,0,0,1-.6.22.77.77,0,0,1-.6-.22A.782.782,0,0,1,21.592,5.973Zm4.915,2.1.044,1a2.888,2.888,0,0,1,2.373-1.143q2.512,0,2.534,2.834V16H30.1V10.756a1.824,1.824,0,0,0-.392-1.267,1.57,1.57,0,0,0-1.2-.41,1.956,1.956,0,0,0-1.157.352,2.387,2.387,0,0,0-.776.923V16H25.225V8.075ZM34.167,16V9.123H32.915V8.075h1.252V7.262a2.7,2.7,0,0,1,.681-1.97,2.573,2.573,0,0,1,1.926-.7,3.578,3.578,0,0,1,.93.124l-.073,1.092a3.892,3.892,0,0,0-.732-.066,1.322,1.322,0,0,0-1.018.386,1.564,1.564,0,0,0-.359,1.106v.838h1.692V9.123H35.522V16Zm4.182-4.036a4.681,4.681,0,0,1,.458-2.095,3.415,3.415,0,0,1,1.274-1.436,3.469,3.469,0,0,1,1.864-.505,3.342,3.342,0,0,1,2.618,1.121,4.311,4.311,0,0,1,1,2.981v.1a4.722,4.722,0,0,1-.443,2.076,3.365,3.365,0,0,1-1.267,1.432,3.509,3.509,0,0,1-1.893.513,3.334,3.334,0,0,1-2.611-1.121,4.29,4.29,0,0,1-1-2.966Zm1.362.161a3.39,3.39,0,0,0,.612,2.117,2.072,2.072,0,0,0,3.278-.011,3.707,3.707,0,0,0,.608-2.267,3.384,3.384,0,0,0-.619-2.113,1.968,1.968,0,0,0-1.644-.809,1.946,1.946,0,0,0-1.619.8A3.68,3.68,0,0,0,39.712,12.125ZM51.094,9.291a4.06,4.06,0,0,0-.667-.051,1.786,1.786,0,0,0-1.809,1.135V16H47.263V8.075h1.318l.022.916a2.11,2.11,0,0,1,1.89-1.062,1.384,1.384,0,0,1,.6.1Zm2.52-1.216.037.879A2.927,2.927,0,0,1,56,7.929,2.266,2.266,0,0,1,58.264,9.2a3,3,0,0,1,1.029-.923,3.039,3.039,0,0,1,1.5-.352q2.607,0,2.651,2.761V16H62.087V10.771A1.82,1.82,0,0,0,61.7,9.5a1.71,1.71,0,0,0-1.3-.421,1.8,1.8,0,0,0-1.252.45,1.827,1.827,0,0,0-.579,1.212V16H57.2V10.807A1.512,1.512,0,0,0,55.51,9.079a1.813,1.813,0,0,0-1.824,1.135V16H52.332V8.075ZM70.378,16a2.846,2.846,0,0,1-.19-.835,3.023,3.023,0,0,1-2.256.981,2.8,2.8,0,0,1-1.923-.663,2.145,2.145,0,0,1-.751-1.681A2.24,2.24,0,0,1,66.2,11.88a4.437,4.437,0,0,1,2.648-.685h1.318v-.623a1.522,1.522,0,0,0-.425-1.132,1.707,1.707,0,0,0-1.252-.421,1.976,1.976,0,0,0-1.216.366,1.079,1.079,0,0,0-.491.886H65.42a1.87,1.87,0,0,1,.421-1.146,2.874,2.874,0,0,1,1.143-.875,3.844,3.844,0,0,1,1.586-.322,3.133,3.133,0,0,1,2.146.685,2.47,2.47,0,0,1,.806,1.886v3.647a4.459,4.459,0,0,0,.278,1.736V16ZM68.13,14.967a2.381,2.381,0,0,0,1.208-.33,1.994,1.994,0,0,0,.828-.857V12.155H69.1q-2.49,0-2.49,1.458a1.234,1.234,0,0,0,.425,1A1.633,1.633,0,0,0,68.13,14.967ZM82.251,16a2.846,2.846,0,0,1-.19-.835,3.023,3.023,0,0,1-2.256.981,2.8,2.8,0,0,1-1.923-.663,2.145,2.145,0,0,1-.751-1.681,2.24,2.24,0,0,1,.941-1.923A4.437,4.437,0,0,1,80.72,11.2h1.318v-.623a1.522,1.522,0,0,0-.425-1.132,1.707,1.707,0,0,0-1.252-.421,1.976,1.976,0,0,0-1.216.366,1.079,1.079,0,0,0-.491.886H77.292a1.87,1.87,0,0,1,.421-1.146,2.874,2.874,0,0,1,1.143-.875,3.844,3.844,0,0,1,1.586-.322,3.133,3.133,0,0,1,2.146.685,2.47,2.47,0,0,1,.806,1.886v3.647a4.459,4.459,0,0,0,.278,1.736V16ZM80,14.967a2.381,2.381,0,0,0,1.208-.33,1.994,1.994,0,0,0,.828-.857V12.155H80.977q-2.49,0-2.49,1.458a1.234,1.234,0,0,0,.425,1A1.633,1.633,0,0,0,80,14.967Zm6.8-6.892.044,1a2.888,2.888,0,0,1,2.373-1.143q2.512,0,2.534,2.834V16H90.4V10.756A1.824,1.824,0,0,0,90,9.489a1.57,1.57,0,0,0-1.2-.41,1.956,1.956,0,0,0-1.157.352,2.387,2.387,0,0,0-.776.923V16H85.518V8.075Zm8.833-1.919V8.075h1.479V9.123H95.632v4.921a1.1,1.1,0,0,0,.2.715A.832.832,0,0,0,96.5,15a3.281,3.281,0,0,0,.645-.088V16a3.951,3.951,0,0,1-1.04.146,1.687,1.687,0,0,1-1.37-.549,2.36,2.36,0,0,1-.461-1.56V9.123H92.834V8.075h1.443V6.156Zm6.35,9.99a3.463,3.463,0,0,1-2.622-1.058,3.928,3.928,0,0,1-1.011-2.831v-.249A4.756,4.756,0,0,1,98.8,9.9a3.514,3.514,0,0,1,1.26-1.45,3.167,3.167,0,0,1,1.754-.524,2.968,2.968,0,0,1,2.4,1.018,4.408,4.408,0,0,1,.857,2.915v.564H99.7a2.817,2.817,0,0,0,.685,1.893,2.153,2.153,0,0,0,1.666.721,2.36,2.36,0,0,0,1.216-.293,3.055,3.055,0,0,0,.872-.776l.828.645A3.328,3.328,0,0,1,101.982,16.146Zm-.168-7.1a1.807,1.807,0,0,0-1.377.6,2.9,2.9,0,0,0-.688,1.674h3.97v-.1a2.581,2.581,0,0,0-.557-1.6A1.7,1.7,0,0,0,101.814,9.042Zm9.441,4.856a1,1,0,0,0-.414-.853,3.983,3.983,0,0,0-1.443-.524,6.822,6.822,0,0,1-1.633-.527,2.324,2.324,0,0,1-.894-.732,1.752,1.752,0,0,1-.289-1.011,2.056,2.056,0,0,1,.824-1.648,3.218,3.218,0,0,1,2.106-.674,3.311,3.311,0,0,1,2.186.7,2.21,2.21,0,0,1,.839,1.78h-1.362a1.223,1.223,0,0,0-.472-.959,1.77,1.77,0,0,0-1.19-.4,1.852,1.852,0,0,0-1.157.322,1.014,1.014,0,0,0-.417.842.822.822,0,0,0,.388.74,4.776,4.776,0,0,0,1.4.476,7.308,7.308,0,0,1,1.644.542,2.4,2.4,0,0,1,.934.758,1.864,1.864,0,0,1,.3,1.08,2.028,2.028,0,0,1-.85,1.7,3.564,3.564,0,0,1-2.2.641,3.991,3.991,0,0,1-1.685-.337,2.74,2.74,0,0,1-1.146-.941,2.268,2.268,0,0,1-.414-1.307h1.355a1.4,1.4,0,0,0,.546,1.08,2.117,2.117,0,0,0,1.344.4,2.185,2.185,0,0,0,1.234-.311A.956.956,0,0,0,111.255,13.9ZM.7,28.972a4.642,4.642,0,0,1,.864-2.933,2.733,2.733,0,0,1,2.263-1.11,2.748,2.748,0,0,1,2.2.952V21.75H7.383V33H6.138l-.066-.85a2.759,2.759,0,0,1-2.263,1,2.707,2.707,0,0,1-2.245-1.128A4.7,4.7,0,0,1,.7,29.074Zm1.355.154a3.515,3.515,0,0,0,.557,2.109A1.8,1.8,0,0,0,4.146,32a1.977,1.977,0,0,0,1.882-1.157V27.2A1.992,1.992,0,0,0,4.16,26.079a1.808,1.808,0,0,0-1.553.769A3.87,3.87,0,0,0,2.051,29.125Zm10.723,4.021a3.463,3.463,0,0,1-2.622-1.058,3.928,3.928,0,0,1-1.011-2.831v-.249a4.756,4.756,0,0,1,.45-2.106,3.514,3.514,0,0,1,1.26-1.45,3.167,3.167,0,0,1,1.754-.524,2.968,2.968,0,0,1,2.4,1.018,4.408,4.408,0,0,1,.857,2.915v.564H10.5a2.817,2.817,0,0,0,.685,1.893,2.153,2.153,0,0,0,1.666.721,2.36,2.36,0,0,0,1.216-.293,3.055,3.055,0,0,0,.872-.776l.828.645A3.328,3.328,0,0,1,12.773,33.146Zm-.168-7.1a1.807,1.807,0,0,0-1.377.6,2.9,2.9,0,0,0-.688,1.674h3.97v-.1a2.581,2.581,0,0,0-.557-1.6A1.7,1.7,0,0,0,12.6,26.042Zm11.624,5.4a1.388,1.388,0,0,0,.952-.322,1.129,1.129,0,0,0,.381-.857h1.985a2.715,2.715,0,0,1-.439,1.476,2.9,2.9,0,0,1-1.183,1.04,3.7,3.7,0,0,1-1.659.37,3.44,3.44,0,0,1-2.681-1.08,4.275,4.275,0,0,1-.981-2.985v-.139a4.226,4.226,0,0,1,.974-2.922,3.4,3.4,0,0,1,2.673-1.091,3.333,3.333,0,0,1,2.384.846,3,3,0,0,1,.912,2.252H25.562a1.455,1.455,0,0,0-.381-1.005,1.416,1.416,0,0,0-2.084.153,3.125,3.125,0,0,0-.377,1.749v.22a3.164,3.164,0,0,0,.374,1.761A1.291,1.291,0,0,0,24.229,31.44Zm4.2-2.476a4.7,4.7,0,0,1,.454-2.1,3.324,3.324,0,0,1,1.307-1.428,3.814,3.814,0,0,1,1.981-.505,3.609,3.609,0,0,1,2.618.981,3.939,3.939,0,0,1,1.132,2.666l.015.542a4.142,4.142,0,0,1-1.018,2.926,3.539,3.539,0,0,1-2.732,1.1,3.556,3.556,0,0,1-2.736-1.1,4.215,4.215,0,0,1-1.022-2.988Zm2.117.15a2.962,2.962,0,0,0,.425,1.727,1.526,1.526,0,0,0,2.417.007,3.241,3.241,0,0,0,.432-1.889,2.933,2.933,0,0,0-.432-1.716,1.4,1.4,0,0,0-1.216-.609,1.382,1.382,0,0,0-1.2.605A3.3,3.3,0,0,0,30.542,29.115Zm8.679-4.039.066.886a2.785,2.785,0,0,1,2.278-1.033,2.114,2.114,0,0,1,2.1,1.208,2.721,2.721,0,0,1,2.38-1.208,2.364,2.364,0,0,1,1.919.751,3.451,3.451,0,0,1,.63,2.26V33H46.472V27.946a1.509,1.509,0,0,0-.264-.985,1.169,1.169,0,0,0-.93-.311,1.321,1.321,0,0,0-1.318.908L43.967,33H41.851V27.954a1.491,1.491,0,0,0-.271-1,1.18,1.18,0,0,0-.923-.308,1.372,1.372,0,0,0-1.3.747V33H37.236V25.075Zm18.135,4.036a4.753,4.753,0,0,1-.831,2.933,2.665,2.665,0,0,1-2.245,1.1,2.469,2.469,0,0,1-1.941-.835v3.735H50.222V25.075h1.963l.073.776a2.488,2.488,0,0,1,2.007-.923,2.683,2.683,0,0,1,2.278,1.084A4.882,4.882,0,0,1,57.356,29Zm-2.117-.154a3.119,3.119,0,0,0-.392-1.707,1.276,1.276,0,0,0-1.139-.6,1.386,1.386,0,0,0-1.37.762v3.245a1.41,1.41,0,0,0,1.384.784Q55.239,31.44,55.239,28.957Zm7.881-1.9A5.75,5.75,0,0,0,62.358,27a1.55,1.55,0,0,0-1.575.813V33H58.667V25.075h2l.059.945a1.961,1.961,0,0,1,1.765-1.091,2.218,2.218,0,0,1,.659.1ZM68.511,33a2.351,2.351,0,0,1-.212-.71,2.561,2.561,0,0,1-2,.857,2.814,2.814,0,0,1-1.93-.674,2.167,2.167,0,0,1-.765-1.7,2.24,2.24,0,0,1,.934-1.934,4.608,4.608,0,0,1,2.7-.681h.974V27.7a1.306,1.306,0,0,0-.282-.879,1.109,1.109,0,0,0-.89-.33,1.261,1.261,0,0,0-.839.256.871.871,0,0,0-.3.7H63.779a2.126,2.126,0,0,1,.425-1.274,2.808,2.808,0,0,1,1.2-.919,4.378,4.378,0,0,1,1.743-.333,3.459,3.459,0,0,1,2.325.736,2.575,2.575,0,0,1,.861,2.069v3.435a3.789,3.789,0,0,0,.315,1.707V33Zm-1.75-1.472a1.823,1.823,0,0,0,.864-.209,1.371,1.371,0,0,0,.586-.56V29.4h-.791q-1.589,0-1.692,1.1l-.007.125a.847.847,0,0,0,.278.652A1.081,1.081,0,0,0,66.76,31.528Zm9.653-4.468A5.75,5.75,0,0,0,75.652,27a1.55,1.55,0,0,0-1.575.813V33H71.96V25.075h2l.059.945a1.961,1.961,0,0,1,1.765-1.091,2.218,2.218,0,0,1,.659.1Zm-.139,4.9a1.066,1.066,0,0,1,.341-.82,1.323,1.323,0,0,1,1.714,0,1.066,1.066,0,0,1,.341.82,1.051,1.051,0,0,1-.337.809,1.345,1.345,0,0,1-1.721,0A1.051,1.051,0,0,1,76.274,31.96Z" transform="translate(346.289 2222.402)"/><rect width="216.22" height="90.032" transform="translate(551.127 2195.545)" fill="#f3ebff"/><rect width="216.22" height="6.868" transform="translate(551.127 2195.545)" fill="#bb83ff"/><path d="M4.723-12.518a4.005,4.005,0,0,1,2.3.656,4.158,4.158,0,0,1,1.494,2A10.66,10.66,0,0,1,9.048-6.1a10.633,10.633,0,0,1-.535,3.785A4.251,4.251,0,0,1,7.072-.328,3.88,3.88,0,0,1,4.79.307,4.017,4.017,0,0,1,2.474-.332,4.168,4.168,0,0,1,1-2.274a10.194,10.194,0,0,1-.531-3.71,8.818,8.818,0,0,1,1.038-4.873A3.7,3.7,0,0,1,4.723-12.518Zm.054,2.208a1.589,1.589,0,0,0-1.044.378,2.449,2.449,0,0,0-.7,1.3,11.408,11.408,0,0,0-.24,2.7,6.539,6.539,0,0,0,.551,3.2,1.639,1.639,0,0,0,1.429.884,1.507,1.507,0,0,0,1.342-.838,6.974,6.974,0,0,0,.6-3.387A7.085,7.085,0,0,0,6.181-9.4,1.6,1.6,0,0,0,4.777-10.31Zm7.707,2.034H10.218a4.473,4.473,0,0,1,1.241-3.109,4.027,4.027,0,0,1,2.951-1.133,4,4,0,0,1,1.963.469A3.514,3.514,0,0,1,17.735-10.7a3.557,3.557,0,0,1,.51,1.8,5.321,5.321,0,0,1-.619,2.341,12.765,12.765,0,0,1-2.263,2.963L13.993-2.15h4.352V0H9.886V-1.112l3.777-3.852a11.027,11.027,0,0,0,1.822-2.229,3.28,3.28,0,0,0,.452-1.523,1.566,1.566,0,0,0-.469-1.166,1.651,1.651,0,0,0-1.208-.461,1.6,1.6,0,0,0-1.245.556A2.308,2.308,0,0,0,12.484-8.276Z" transform="translate(570.231 2258.09)" fill="#6b6b6b"/><path d="M1.238,16V5.336H4.724a4.047,4.047,0,0,1,2.611.718A2.587,2.587,0,0,1,8.21,8.178,2.166,2.166,0,0,1,7.786,9.5a2.754,2.754,0,0,1-1.157.89,2.473,2.473,0,0,1,1.366.919,2.638,2.638,0,0,1,.5,1.615,2.852,2.852,0,0,1-.93,2.256A3.847,3.847,0,0,1,4.937,16Zm1.406-4.988V14.85H4.966a2.236,2.236,0,0,0,1.549-.509,1.788,1.788,0,0,0,.568-1.4q0-1.926-2.095-1.926Zm0-1.128H4.768a2.226,2.226,0,0,0,1.476-.462A1.55,1.55,0,0,0,6.8,8.167a1.524,1.524,0,0,0-.513-1.281,2.518,2.518,0,0,0-1.56-.4H2.644Zm12.612,5.332a2.878,2.878,0,0,1-2.322.93A2.464,2.464,0,0,1,11,15.41a3.186,3.186,0,0,1-.67-2.179V8.075h1.355v5.12q0,1.8,1.465,1.8a2.028,2.028,0,0,0,2.065-1.157V8.075h1.355V16H15.286ZM23.247,13.9a1,1,0,0,0-.414-.853,3.983,3.983,0,0,0-1.443-.524,6.822,6.822,0,0,1-1.633-.527,2.324,2.324,0,0,1-.894-.732,1.752,1.752,0,0,1-.289-1.011A2.056,2.056,0,0,1,19.4,8.6,3.218,3.218,0,0,1,21.5,7.929a3.311,3.311,0,0,1,2.186.7,2.21,2.21,0,0,1,.839,1.78H23.167a1.223,1.223,0,0,0-.472-.959,1.77,1.77,0,0,0-1.19-.4,1.852,1.852,0,0,0-1.157.322,1.014,1.014,0,0,0-.417.842.822.822,0,0,0,.388.74,4.776,4.776,0,0,0,1.4.476,7.308,7.308,0,0,1,1.644.542,2.4,2.4,0,0,1,.934.758,1.864,1.864,0,0,1,.3,1.08,2.028,2.028,0,0,1-.85,1.7,3.564,3.564,0,0,1-2.2.641,3.991,3.991,0,0,1-1.685-.337,2.74,2.74,0,0,1-1.146-.941,2.268,2.268,0,0,1-.414-1.307h1.355a1.4,1.4,0,0,0,.546,1.08,2.117,2.117,0,0,0,1.344.4,2.185,2.185,0,0,0,1.234-.311A.956.956,0,0,0,23.247,13.9Zm6.3,1.143a1.952,1.952,0,0,0,1.267-.439,1.546,1.546,0,0,0,.6-1.1H32.7a2.457,2.457,0,0,1-.469,1.3,3.087,3.087,0,0,1-1.154.981,3.329,3.329,0,0,1-1.527.366,3.265,3.265,0,0,1-2.574-1.08,4.3,4.3,0,0,1-.956-2.955v-.227a4.771,4.771,0,0,1,.425-2.058,3.236,3.236,0,0,1,1.219-1.4,3.464,3.464,0,0,1,1.879-.5,3.178,3.178,0,0,1,2.216.8A2.853,2.853,0,0,1,32.7,10.8H31.414a1.867,1.867,0,0,0-.582-1.263,1.811,1.811,0,0,0-1.293-.494,1.9,1.9,0,0,0-1.6.743,3.491,3.491,0,0,0-.568,2.15v.256a3.422,3.422,0,0,0,.564,2.109A1.906,1.906,0,0,0,29.546,15.041ZM39.111,16a2.846,2.846,0,0,1-.19-.835,3.023,3.023,0,0,1-2.256.981,2.8,2.8,0,0,1-1.923-.663,2.145,2.145,0,0,1-.751-1.681,2.24,2.24,0,0,1,.941-1.923,4.437,4.437,0,0,1,2.648-.685H38.9v-.623a1.522,1.522,0,0,0-.425-1.132,1.707,1.707,0,0,0-1.252-.421,1.976,1.976,0,0,0-1.216.366,1.079,1.079,0,0,0-.491.886H34.153a1.87,1.87,0,0,1,.421-1.146,2.874,2.874,0,0,1,1.143-.875A3.844,3.844,0,0,1,37.3,7.929a3.133,3.133,0,0,1,2.146.685,2.47,2.47,0,0,1,.806,1.886v3.647a4.459,4.459,0,0,0,.278,1.736V16Zm-2.249-1.033a2.381,2.381,0,0,0,1.208-.33,1.994,1.994,0,0,0,.828-.857V12.155H37.837q-2.49,0-2.49,1.458a1.234,1.234,0,0,0,.425,1A1.633,1.633,0,0,0,36.863,14.967ZM47.93,6.156V8.075h1.479V9.123H47.93v4.921a1.1,1.1,0,0,0,.2.715A.832.832,0,0,0,48.8,15a3.281,3.281,0,0,0,.645-.088V16a3.951,3.951,0,0,1-1.04.146,1.687,1.687,0,0,1-1.37-.549,2.36,2.36,0,0,1-.461-1.56V9.123H45.132V8.075h1.443V6.156Zm6.35,9.99a3.463,3.463,0,0,1-2.622-1.058,3.928,3.928,0,0,1-1.011-2.831v-.249A4.756,4.756,0,0,1,51.1,9.9a3.514,3.514,0,0,1,1.26-1.45,3.167,3.167,0,0,1,1.754-.524,2.968,2.968,0,0,1,2.4,1.018,4.408,4.408,0,0,1,.857,2.915v.564H52a2.817,2.817,0,0,0,.685,1.893,2.153,2.153,0,0,0,1.666.721,2.36,2.36,0,0,0,1.216-.293,3.055,3.055,0,0,0,.872-.776l.828.645A3.328,3.328,0,0,1,54.28,16.146Zm-.168-7.1a1.807,1.807,0,0,0-1.377.6,2.9,2.9,0,0,0-.688,1.674h3.97v-.1a2.581,2.581,0,0,0-.557-1.6A1.7,1.7,0,0,0,54.111,9.042Zm6.108-.967.044,1a2.888,2.888,0,0,1,2.373-1.143q2.512,0,2.534,2.834V16H63.816V10.756a1.824,1.824,0,0,0-.392-1.267,1.57,1.57,0,0,0-1.2-.41,1.956,1.956,0,0,0-1.157.352,2.387,2.387,0,0,0-.776.923V16H58.938V8.075Zm6.665,3.9a4.642,4.642,0,0,1,.864-2.933,2.941,2.941,0,0,1,4.468-.157V4.75h1.355V16H72.327l-.066-.85a2.759,2.759,0,0,1-2.263,1,2.707,2.707,0,0,1-2.245-1.128,4.7,4.7,0,0,1-.868-2.944Zm1.355.154a3.515,3.515,0,0,0,.557,2.109A1.8,1.8,0,0,0,70.334,15a1.977,1.977,0,0,0,1.882-1.157V10.2a1.992,1.992,0,0,0-1.868-1.121,1.808,1.808,0,0,0-1.553.769A3.87,3.87,0,0,0,68.24,12.125Zm10.723,4.021a3.463,3.463,0,0,1-2.622-1.058,3.928,3.928,0,0,1-1.011-2.831v-.249A4.756,4.756,0,0,1,75.78,9.9a3.514,3.514,0,0,1,1.26-1.45,3.167,3.167,0,0,1,1.754-.524,2.968,2.968,0,0,1,2.4,1.018,4.408,4.408,0,0,1,.857,2.915v.564H76.685a2.817,2.817,0,0,0,.685,1.893,2.153,2.153,0,0,0,1.666.721,2.36,2.36,0,0,0,1.216-.293,3.055,3.055,0,0,0,.872-.776l.828.645A3.328,3.328,0,0,1,78.962,16.146Zm-.168-7.1a1.807,1.807,0,0,0-1.377.6,2.9,2.9,0,0,0-.688,1.674H80.7v-.1a2.581,2.581,0,0,0-.557-1.6A1.7,1.7,0,0,0,78.794,9.042ZM84.9,8.075l.044,1a2.888,2.888,0,0,1,2.373-1.143q2.512,0,2.534,2.834V16H88.5V10.756a1.824,1.824,0,0,0-.392-1.267,1.57,1.57,0,0,0-1.2-.41,1.956,1.956,0,0,0-1.157.352,2.387,2.387,0,0,0-.776.923V16H83.621V8.075Zm10.173,6.965a1.952,1.952,0,0,0,1.267-.439,1.546,1.546,0,0,0,.6-1.1h1.282a2.457,2.457,0,0,1-.469,1.3,3.087,3.087,0,0,1-1.154.981,3.329,3.329,0,0,1-1.527.366,3.265,3.265,0,0,1-2.574-1.08,4.3,4.3,0,0,1-.956-2.955v-.227a4.771,4.771,0,0,1,.425-2.058,3.236,3.236,0,0,1,1.219-1.4,3.464,3.464,0,0,1,1.879-.5,3.178,3.178,0,0,1,2.216.8,2.853,2.853,0,0,1,.941,2.073H96.943a1.867,1.867,0,0,0-.582-1.263,1.811,1.811,0,0,0-1.293-.494,1.9,1.9,0,0,0-1.6.743,3.491,3.491,0,0,0-.568,2.15v.256a3.422,3.422,0,0,0,.564,2.109A1.906,1.906,0,0,0,95.076,15.041Zm6.145.959H99.866V8.075h1.355ZM99.756,5.973a.809.809,0,0,1,.2-.557.756.756,0,0,1,.6-.227.768.768,0,0,1,.6.227.8.8,0,0,1,.205.557.774.774,0,0,1-.205.549.782.782,0,0,1-.6.22.77.77,0,0,1-.6-.22A.782.782,0,0,1,99.756,5.973ZM108.281,16a2.846,2.846,0,0,1-.19-.835,3.023,3.023,0,0,1-2.256.981,2.8,2.8,0,0,1-1.923-.663,2.145,2.145,0,0,1-.751-1.681,2.24,2.24,0,0,1,.941-1.923,4.437,4.437,0,0,1,2.648-.685h1.318v-.623a1.522,1.522,0,0,0-.425-1.132,1.707,1.707,0,0,0-1.252-.421,1.976,1.976,0,0,0-1.216.366,1.079,1.079,0,0,0-.491.886h-1.362a1.87,1.87,0,0,1,.421-1.146,2.874,2.874,0,0,1,1.143-.875,3.844,3.844,0,0,1,1.586-.322,3.133,3.133,0,0,1,2.146.685,2.47,2.47,0,0,1,.806,1.886v3.647a4.459,4.459,0,0,0,.278,1.736V16Zm-2.249-1.033a2.381,2.381,0,0,0,1.208-.33,1.994,1.994,0,0,0,.828-.857V12.155h-1.062q-2.49,0-2.49,1.458a1.234,1.234,0,0,0,.425,1A1.633,1.633,0,0,0,106.033,14.967ZM5.918,33a2.846,2.846,0,0,1-.19-.835,3.023,3.023,0,0,1-2.256.981,2.8,2.8,0,0,1-1.923-.663A2.145,2.145,0,0,1,.8,30.8,2.24,2.24,0,0,1,1.74,28.88,4.437,4.437,0,0,1,4.387,28.2H5.706v-.623a1.522,1.522,0,0,0-.425-1.132,1.707,1.707,0,0,0-1.252-.421,1.976,1.976,0,0,0-1.216.366,1.079,1.079,0,0,0-.491.886H.959a1.87,1.87,0,0,1,.421-1.146,2.874,2.874,0,0,1,1.143-.875,3.844,3.844,0,0,1,1.586-.322,3.133,3.133,0,0,1,2.146.685A2.47,2.47,0,0,1,7.061,27.5v3.647a4.459,4.459,0,0,0,.278,1.736V33ZM3.669,31.967a2.381,2.381,0,0,0,1.208-.33,1.994,1.994,0,0,0,.828-.857V29.155H4.644q-2.49,0-2.49,1.458a1.234,1.234,0,0,0,.425,1A1.633,1.633,0,0,0,3.669,31.967Zm14.121.249a2.878,2.878,0,0,1-2.322.93,2.464,2.464,0,0,1-1.93-.736,3.186,3.186,0,0,1-.67-2.179V25.075h1.355v5.12q0,1.8,1.465,1.8a2.028,2.028,0,0,0,2.065-1.157V25.075h1.355V33H17.82Zm4.658-7.141.044,1a2.888,2.888,0,0,1,2.373-1.143q2.512,0,2.534,2.834V33H26.045V27.756a1.824,1.824,0,0,0-.392-1.267,1.57,1.57,0,0,0-1.2-.41,1.956,1.956,0,0,0-1.157.352,2.387,2.387,0,0,0-.776.923V33H21.167V25.075Zm17.4,4.05a4.745,4.745,0,0,1-.828,2.915,2.653,2.653,0,0,1-2.241,1.106,2.906,2.906,0,0,1-2.271-.916v3.816H33.157V25.075h1.238l.066.879a2.791,2.791,0,0,1,2.3-1.025,2.7,2.7,0,0,1,2.26,1.077,4.8,4.8,0,0,1,.831,3ZM38.5,28.972a3.5,3.5,0,0,0-.571-2.117,1.84,1.84,0,0,0-1.567-.776,1.992,1.992,0,0,0-1.846,1.091v3.787a2,2,0,0,0,1.86,1.084,1.832,1.832,0,0,0,1.549-.773A3.822,3.822,0,0,0,38.5,28.972ZM45.4,26.291a4.06,4.06,0,0,0-.667-.051,1.786,1.786,0,0,0-1.809,1.135V33H41.572V25.075h1.318l.022.916a2.11,2.11,0,0,1,1.89-1.062,1.384,1.384,0,0,1,.6.1Zm4.534,6.855a3.463,3.463,0,0,1-2.622-1.058A3.928,3.928,0,0,1,46.3,29.257v-.249a4.756,4.756,0,0,1,.45-2.106,3.514,3.514,0,0,1,1.26-1.45,3.167,3.167,0,0,1,1.754-.524,2.968,2.968,0,0,1,2.4,1.018,4.408,4.408,0,0,1,.857,2.915v.564H47.659a2.817,2.817,0,0,0,.685,1.893,2.153,2.153,0,0,0,1.666.721,2.36,2.36,0,0,0,1.216-.293,3.055,3.055,0,0,0,.872-.776l.828.645A3.328,3.328,0,0,1,49.937,33.146Zm-.168-7.1a1.807,1.807,0,0,0-1.377.6,2.9,2.9,0,0,0-.688,1.674h3.97v-.1a2.581,2.581,0,0,0-.557-1.6A1.7,1.7,0,0,0,49.768,26.042Zm8.005,6a1.952,1.952,0,0,0,1.267-.439,1.546,1.546,0,0,0,.6-1.1h1.282a2.457,2.457,0,0,1-.469,1.3,3.087,3.087,0,0,1-1.154.981,3.329,3.329,0,0,1-1.527.366,3.265,3.265,0,0,1-2.574-1.08,4.3,4.3,0,0,1-.956-2.955v-.227a4.771,4.771,0,0,1,.425-2.058,3.236,3.236,0,0,1,1.219-1.4,3.464,3.464,0,0,1,1.879-.5,3.178,3.178,0,0,1,2.216.8,2.853,2.853,0,0,1,.941,2.073H59.641a1.867,1.867,0,0,0-.582-1.263,1.811,1.811,0,0,0-1.293-.494,1.9,1.9,0,0,0-1.6.743,3.491,3.491,0,0,0-.568,2.15v.256a3.422,3.422,0,0,0,.564,2.109A1.906,1.906,0,0,0,57.773,32.041ZM63.918,33H62.563V25.075h1.355ZM62.454,22.973a.809.809,0,0,1,.2-.557.756.756,0,0,1,.6-.227.768.768,0,0,1,.6.227.8.8,0,0,1,.205.557.774.774,0,0,1-.205.549.782.782,0,0,1-.6.22.77.77,0,0,1-.6-.22A.782.782,0,0,1,62.454,22.973Zm3.274,5.991a4.681,4.681,0,0,1,.458-2.095,3.415,3.415,0,0,1,1.274-1.436,3.469,3.469,0,0,1,1.864-.505,3.342,3.342,0,0,1,2.618,1.121,4.311,4.311,0,0,1,1,2.981v.1A4.722,4.722,0,0,1,72.5,31.2a3.365,3.365,0,0,1-1.267,1.432,3.509,3.509,0,0,1-1.893.513,3.334,3.334,0,0,1-2.611-1.121,4.29,4.29,0,0,1-1-2.966Zm1.362.161a3.39,3.39,0,0,0,.612,2.117,2.072,2.072,0,0,0,3.278-.011,3.707,3.707,0,0,0,.608-2.267,3.384,3.384,0,0,0-.619-2.113,1.968,1.968,0,0,0-1.644-.809,1.946,1.946,0,0,0-1.619.8A3.68,3.68,0,0,0,67.09,29.125ZM4.109,48.44a1.388,1.388,0,0,0,.952-.322,1.129,1.129,0,0,0,.381-.857H7.427a2.715,2.715,0,0,1-.439,1.476A2.9,2.9,0,0,1,5.8,49.777a3.7,3.7,0,0,1-1.659.37,3.44,3.44,0,0,1-2.681-1.08,4.275,4.275,0,0,1-.981-2.985v-.139a4.226,4.226,0,0,1,.974-2.922,3.4,3.4,0,0,1,2.673-1.091,3.333,3.333,0,0,1,2.384.846,3,3,0,0,1,.912,2.252H5.442a1.455,1.455,0,0,0-.381-1.005,1.27,1.27,0,0,0-.967-.387,1.275,1.275,0,0,0-1.117.539A3.125,3.125,0,0,0,2.6,45.924v.22A3.164,3.164,0,0,0,2.974,47.9,1.291,1.291,0,0,0,4.109,48.44Zm4.2-2.476a4.7,4.7,0,0,1,.454-2.1,3.324,3.324,0,0,1,1.307-1.428,3.814,3.814,0,0,1,1.981-.505,3.609,3.609,0,0,1,2.618.981A3.939,3.939,0,0,1,15.8,45.576l.015.542a4.142,4.142,0,0,1-1.018,2.926,3.539,3.539,0,0,1-2.732,1.1,3.556,3.556,0,0,1-2.736-1.1A4.215,4.215,0,0,1,8.306,46.06Zm2.117.15a2.962,2.962,0,0,0,.425,1.727,1.4,1.4,0,0,0,1.216.6,1.4,1.4,0,0,0,1.2-.591,3.241,3.241,0,0,0,.432-1.889,2.933,2.933,0,0,0-.432-1.716,1.4,1.4,0,0,0-1.216-.609,1.382,1.382,0,0,0-1.2.605A3.3,3.3,0,0,0,10.422,46.115ZM19.1,42.075l.066.886a2.785,2.785,0,0,1,2.278-1.033,2.114,2.114,0,0,1,2.1,1.208,2.721,2.721,0,0,1,2.38-1.208,2.364,2.364,0,0,1,1.919.751,3.451,3.451,0,0,1,.63,2.26V50H26.353V44.946a1.509,1.509,0,0,0-.264-.985,1.169,1.169,0,0,0-.93-.311,1.321,1.321,0,0,0-1.318.908L23.848,50H21.731V44.954a1.491,1.491,0,0,0-.271-1,1.18,1.18,0,0,0-.923-.308,1.372,1.372,0,0,0-1.3.747V50H17.117V42.075Zm18.135,4.036a4.753,4.753,0,0,1-.831,2.933,2.665,2.665,0,0,1-2.245,1.1,2.469,2.469,0,0,1-1.941-.835v3.735H30.1V42.075h1.963l.073.776a2.488,2.488,0,0,1,2.007-.923,2.683,2.683,0,0,1,2.278,1.084A4.882,4.882,0,0,1,37.236,46Zm-2.117-.154a3.119,3.119,0,0,0-.392-1.707,1.276,1.276,0,0,0-1.139-.6,1.386,1.386,0,0,0-1.37.762v3.245a1.41,1.41,0,0,0,1.384.784Q35.12,48.44,35.12,45.957Zm7.075,4.189a3.89,3.89,0,0,1-2.838-1.069,3.8,3.8,0,0,1-1.095-2.849v-.205a4.787,4.787,0,0,1,.461-2.135,3.386,3.386,0,0,1,1.307-1.45,3.669,3.669,0,0,1,1.93-.509,3.289,3.289,0,0,1,2.56,1.025,4.167,4.167,0,0,1,.934,2.908v.864H40.408a1.966,1.966,0,0,0,.619,1.245,1.871,1.871,0,0,0,1.307.469,2.285,2.285,0,0,0,1.912-.886l1.04,1.165A3.178,3.178,0,0,1,44,49.769,4.229,4.229,0,0,1,42.195,50.146Zm-.242-6.511a1.323,1.323,0,0,0-1.022.427,2.209,2.209,0,0,0-.5,1.221h2.944v-.169a1.576,1.576,0,0,0-.381-1.092A1.365,1.365,0,0,0,41.953,43.635Zm7.236-3.508v1.948h1.355v1.553H49.189v3.955a.944.944,0,0,0,.168.63A.846.846,0,0,0,50,48.4a3.376,3.376,0,0,0,.623-.051v1.6a4.358,4.358,0,0,1-1.282.19A2.021,2.021,0,0,1,47.073,47.9v-4.27H45.916V42.075h1.157V40.127ZM53.958,50H51.833V42.075h2.124Zm-2.249-9.976a1.042,1.042,0,0,1,.319-.784,1.373,1.373,0,0,1,1.732,0,1.118,1.118,0,0,1,0,1.575,1.358,1.358,0,0,1-1.721,0A1.039,1.039,0,0,1,51.709,40.024Zm6.526.1v1.948H59.59v1.553H58.235v3.955a.944.944,0,0,0,.168.63.846.846,0,0,0,.645.19,3.376,3.376,0,0,0,.623-.051v1.6a4.358,4.358,0,0,1-1.282.19A2.021,2.021,0,0,1,56.118,47.9v-4.27H54.961V42.075h1.157V40.127ZM63,50H60.879V42.075H63Zm-2.249-9.976a1.042,1.042,0,0,1,.319-.784,1.373,1.373,0,0,1,1.732,0,1.118,1.118,0,0,1,0,1.575,1.358,1.358,0,0,1-1.721,0A1.039,1.039,0,0,1,60.754,40.024Zm6.958,7.39,1.472-5.339H71.4L68.723,50H66.7l-2.673-7.925H66.24Zm4.175-1.45a4.7,4.7,0,0,1,.454-2.1,3.324,3.324,0,0,1,1.307-1.428,3.814,3.814,0,0,1,1.981-.505,3.609,3.609,0,0,1,2.618.981,3.939,3.939,0,0,1,1.132,2.666l.015.542a4.142,4.142,0,0,1-1.018,2.926,3.946,3.946,0,0,1-5.468,0,4.215,4.215,0,0,1-1.022-2.988Zm2.117.15a2.962,2.962,0,0,0,.425,1.727,1.526,1.526,0,0,0,2.417.007,3.241,3.241,0,0,0,.432-1.889,2.933,2.933,0,0,0-.432-1.716,1.4,1.4,0,0,0-1.216-.609,1.382,1.382,0,0,0-1.2.605A3.3,3.3,0,0,0,74,46.115Zm6.8,2.845a1.066,1.066,0,0,1,.341-.82,1.323,1.323,0,0,1,1.714,0,1.066,1.066,0,0,1,.341.82,1.051,1.051,0,0,1-.337.809,1.345,1.345,0,0,1-1.721,0A1.051,1.051,0,0,1,80.808,48.96Z" transform="translate(612.416 2218.17)"/><rect width="216.22" height="90.032" transform="translate(817.254 2195.545)" fill="#ffe9ed"/><rect width="216.22" height="6.868" transform="translate(817.254 2195.545)" fill="#f17781"/><path d="M4.723-12.518a4.005,4.005,0,0,1,2.3.656,4.158,4.158,0,0,1,1.494,2A10.66,10.66,0,0,1,9.048-6.1a10.633,10.633,0,0,1-.535,3.785A4.251,4.251,0,0,1,7.072-.328,3.88,3.88,0,0,1,4.79.307,4.017,4.017,0,0,1,2.474-.332,4.168,4.168,0,0,1,1-2.274a10.194,10.194,0,0,1-.531-3.71,8.818,8.818,0,0,1,1.038-4.873A3.7,3.7,0,0,1,4.723-12.518Zm.054,2.208a1.589,1.589,0,0,0-1.044.378,2.449,2.449,0,0,0-.7,1.3,11.408,11.408,0,0,0-.24,2.7,6.539,6.539,0,0,0,.551,3.2,1.639,1.639,0,0,0,1.429.884,1.507,1.507,0,0,0,1.342-.838,6.974,6.974,0,0,0,.6-3.387A7.085,7.085,0,0,0,6.181-9.4,1.6,1.6,0,0,0,4.777-10.31ZM12.75-9.2H10.517a3.7,3.7,0,0,1,.971-2.175,3.736,3.736,0,0,1,2.8-1.146,3.54,3.54,0,0,1,2.519.955A3.006,3.006,0,0,1,17.822-9.3a2.639,2.639,0,0,1-.444,1.486,3.174,3.174,0,0,1-1.291,1.087,3.291,3.291,0,0,1,1.739,1.158,3.129,3.129,0,0,1,.627,1.947A3.68,3.68,0,0,1,17.241-.834,4.324,4.324,0,0,1,14.153.307a4.012,4.012,0,0,1-2.9-1.075,4.224,4.224,0,0,1-1.229-2.926h2.3a2.314,2.314,0,0,0,.66,1.407,1.854,1.854,0,0,0,1.291.461,1.852,1.852,0,0,0,1.349-.523,1.718,1.718,0,0,0,.535-1.278,1.732,1.732,0,0,0-.722-1.4,3.358,3.358,0,0,0-2.083-.589V-7.612a3.753,3.753,0,0,0,1.249-.261,1.548,1.548,0,0,0,.639-.535,1.274,1.274,0,0,0,.228-.722,1.086,1.086,0,0,0-.349-.826,1.279,1.279,0,0,0-.913-.328,1.479,1.479,0,0,0-.9.3A1.516,1.516,0,0,0,12.75-9.2Z" transform="translate(836.358 2258.09)" fill="#6b6b6b"/><path d="M1.238,16V5.336H4.724a4.047,4.047,0,0,1,2.611.718A2.587,2.587,0,0,1,8.21,8.178,2.166,2.166,0,0,1,7.786,9.5a2.754,2.754,0,0,1-1.157.89,2.473,2.473,0,0,1,1.366.919,2.638,2.638,0,0,1,.5,1.615,2.852,2.852,0,0,1-.93,2.256A3.847,3.847,0,0,1,4.937,16Zm1.406-4.988V14.85H4.966a2.236,2.236,0,0,0,1.549-.509,1.788,1.788,0,0,0,.568-1.4q0-1.926-2.095-1.926Zm0-1.128H4.768a2.226,2.226,0,0,0,1.476-.462A1.55,1.55,0,0,0,6.8,8.167a1.524,1.524,0,0,0-.513-1.281,2.518,2.518,0,0,0-1.56-.4H2.644Zm12.612,5.332a2.878,2.878,0,0,1-2.322.93A2.464,2.464,0,0,1,11,15.41a3.186,3.186,0,0,1-.67-2.179V8.075h1.355v5.12q0,1.8,1.465,1.8a2.028,2.028,0,0,0,2.065-1.157V8.075h1.355V16H15.286ZM23.247,13.9a1,1,0,0,0-.414-.853,3.983,3.983,0,0,0-1.443-.524,6.822,6.822,0,0,1-1.633-.527,2.324,2.324,0,0,1-.894-.732,1.752,1.752,0,0,1-.289-1.011A2.056,2.056,0,0,1,19.4,8.6,3.218,3.218,0,0,1,21.5,7.929a3.311,3.311,0,0,1,2.186.7,2.21,2.21,0,0,1,.839,1.78H23.167a1.223,1.223,0,0,0-.472-.959,1.77,1.77,0,0,0-1.19-.4,1.852,1.852,0,0,0-1.157.322,1.014,1.014,0,0,0-.417.842.822.822,0,0,0,.388.74,4.776,4.776,0,0,0,1.4.476,7.308,7.308,0,0,1,1.644.542,2.4,2.4,0,0,1,.934.758,1.864,1.864,0,0,1,.3,1.08,2.028,2.028,0,0,1-.85,1.7,3.564,3.564,0,0,1-2.2.641,3.991,3.991,0,0,1-1.685-.337,2.74,2.74,0,0,1-1.146-.941,2.268,2.268,0,0,1-.414-1.307h1.355a1.4,1.4,0,0,0,.546,1.08,2.117,2.117,0,0,0,1.344.4,2.185,2.185,0,0,0,1.234-.311A.956.956,0,0,0,23.247,13.9Zm6.3,1.143a1.952,1.952,0,0,0,1.267-.439,1.546,1.546,0,0,0,.6-1.1H32.7a2.457,2.457,0,0,1-.469,1.3,3.087,3.087,0,0,1-1.154.981,3.329,3.329,0,0,1-1.527.366,3.265,3.265,0,0,1-2.574-1.08,4.3,4.3,0,0,1-.956-2.955v-.227a4.771,4.771,0,0,1,.425-2.058,3.236,3.236,0,0,1,1.219-1.4,3.464,3.464,0,0,1,1.879-.5,3.178,3.178,0,0,1,2.216.8A2.853,2.853,0,0,1,32.7,10.8H31.414a1.867,1.867,0,0,0-.582-1.263,1.811,1.811,0,0,0-1.293-.494,1.9,1.9,0,0,0-1.6.743,3.491,3.491,0,0,0-.568,2.15v.256a3.422,3.422,0,0,0,.564,2.109A1.906,1.906,0,0,0,29.546,15.041ZM39.111,16a2.846,2.846,0,0,1-.19-.835,3.023,3.023,0,0,1-2.256.981,2.8,2.8,0,0,1-1.923-.663,2.145,2.145,0,0,1-.751-1.681,2.24,2.24,0,0,1,.941-1.923,4.437,4.437,0,0,1,2.648-.685H38.9v-.623a1.522,1.522,0,0,0-.425-1.132,1.707,1.707,0,0,0-1.252-.421,1.976,1.976,0,0,0-1.216.366,1.079,1.079,0,0,0-.491.886H34.153a1.87,1.87,0,0,1,.421-1.146,2.874,2.874,0,0,1,1.143-.875A3.844,3.844,0,0,1,37.3,7.929a3.133,3.133,0,0,1,2.146.685,2.47,2.47,0,0,1,.806,1.886v3.647a4.459,4.459,0,0,0,.278,1.736V16Zm-2.249-1.033a2.381,2.381,0,0,0,1.208-.33,1.994,1.994,0,0,0,.828-.857V12.155H37.837q-2.49,0-2.49,1.458a1.234,1.234,0,0,0,.425,1A1.633,1.633,0,0,0,36.863,14.967Zm12.312-.527a1.388,1.388,0,0,0,.952-.322,1.129,1.129,0,0,0,.381-.857h1.985a2.715,2.715,0,0,1-.439,1.476,2.9,2.9,0,0,1-1.183,1.04,3.7,3.7,0,0,1-1.659.37,3.44,3.44,0,0,1-2.681-1.08,4.275,4.275,0,0,1-.981-2.985v-.139a4.226,4.226,0,0,1,.974-2.922A3.4,3.4,0,0,1,49.2,7.929a3.333,3.333,0,0,1,2.384.846,3,3,0,0,1,.912,2.252H50.508a1.455,1.455,0,0,0-.381-1.005,1.416,1.416,0,0,0-2.084.153,3.125,3.125,0,0,0-.377,1.749v.22A3.164,3.164,0,0,0,48.04,13.9,1.291,1.291,0,0,0,49.175,14.44ZM58.293,16a2.351,2.351,0,0,1-.212-.71,2.561,2.561,0,0,1-2,.857,2.814,2.814,0,0,1-1.93-.674,2.167,2.167,0,0,1-.765-1.7,2.24,2.24,0,0,1,.934-1.934,4.608,4.608,0,0,1,2.7-.681h.974V10.7a1.306,1.306,0,0,0-.282-.879,1.109,1.109,0,0,0-.89-.33,1.261,1.261,0,0,0-.839.256.871.871,0,0,0-.3.7H53.562a2.126,2.126,0,0,1,.425-1.274,2.808,2.808,0,0,1,1.2-.919,4.378,4.378,0,0,1,1.743-.333,3.459,3.459,0,0,1,2.325.736,2.575,2.575,0,0,1,.861,2.069v3.435a3.789,3.789,0,0,0,.315,1.707V16Zm-1.75-1.472a1.823,1.823,0,0,0,.864-.209,1.371,1.371,0,0,0,.586-.56V12.4H57.2q-1.589,0-1.692,1.1l-.007.125a.847.847,0,0,0,.278.652A1.081,1.081,0,0,0,56.543,14.528ZM63.977,16H61.853V4.75h2.124Zm3.977,0H65.83V8.075h2.124ZM65.706,6.024a1.042,1.042,0,0,1,.319-.784,1.373,1.373,0,0,1,1.732,0,1.036,1.036,0,0,1,.322.784,1.039,1.039,0,0,1-.326.791,1.358,1.358,0,0,1-1.721,0A1.039,1.039,0,0,1,65.706,6.024Zm3.662,5.955A4.776,4.776,0,0,1,70.2,9.027a2.7,2.7,0,0,1,2.274-1.1,2.427,2.427,0,0,1,1.912.864V4.75h2.124V16H74.6l-.1-.842a2.491,2.491,0,0,1-2.036.989,2.69,2.69,0,0,1-2.245-1.1A4.93,4.93,0,0,1,69.368,11.979Zm2.117.158a3.128,3.128,0,0,0,.388,1.709A1.265,1.265,0,0,0,73,14.44a1.416,1.416,0,0,0,1.384-.829V10.479a1.4,1.4,0,0,0-1.37-.829Q71.484,9.65,71.484,12.137ZM82.742,16a2.351,2.351,0,0,1-.212-.71,2.561,2.561,0,0,1-2,.857,2.814,2.814,0,0,1-1.93-.674,2.167,2.167,0,0,1-.765-1.7,2.24,2.24,0,0,1,.934-1.934,4.608,4.608,0,0,1,2.7-.681h.974V10.7a1.306,1.306,0,0,0-.282-.879,1.109,1.109,0,0,0-.89-.33,1.261,1.261,0,0,0-.839.256.871.871,0,0,0-.3.7H78.01a2.126,2.126,0,0,1,.425-1.274,2.808,2.808,0,0,1,1.2-.919,4.378,4.378,0,0,1,1.743-.333,3.459,3.459,0,0,1,2.325.736,2.575,2.575,0,0,1,.861,2.069v3.435a3.789,3.789,0,0,0,.315,1.707V16Zm-1.75-1.472a1.823,1.823,0,0,0,.864-.209,1.371,1.371,0,0,0,.586-.56V12.4H81.65q-1.589,0-1.692,1.1l-.007.125a.847.847,0,0,0,.278.652A1.081,1.081,0,0,0,80.991,14.528Zm4.871-2.549a4.776,4.776,0,0,1,.831-2.952,2.7,2.7,0,0,1,2.274-1.1,2.427,2.427,0,0,1,1.912.864V4.75H93V16H91.091l-.1-.842a2.491,2.491,0,0,1-2.036.989,2.69,2.69,0,0,1-2.245-1.1A4.93,4.93,0,0,1,85.862,11.979Zm2.117.158a3.128,3.128,0,0,0,.388,1.709,1.265,1.265,0,0,0,1.128.594,1.416,1.416,0,0,0,1.384-.829V10.479a1.4,1.4,0,0,0-1.37-.829Q87.979,9.65,87.979,12.137Zm13.879,4.01a3.463,3.463,0,0,1-2.622-1.058,3.928,3.928,0,0,1-1.011-2.831v-.249a4.756,4.756,0,0,1,.45-2.106,3.514,3.514,0,0,1,1.26-1.45,3.167,3.167,0,0,1,1.754-.524,2.968,2.968,0,0,1,2.4,1.018,4.408,4.408,0,0,1,.857,2.915v.564H99.58a2.817,2.817,0,0,0,.685,1.893,2.153,2.153,0,0,0,1.666.721,2.36,2.36,0,0,0,1.216-.293,3.055,3.055,0,0,0,.872-.776l.828.645A3.328,3.328,0,0,1,101.858,16.146Zm-.168-7.1a1.807,1.807,0,0,0-1.377.6,2.9,2.9,0,0,0-.688,1.674h3.97v-.1a2.581,2.581,0,0,0-.557-1.6A1.7,1.7,0,0,0,101.689,9.042Zm6.108-.967.044,1a2.888,2.888,0,0,1,2.373-1.143q2.512,0,2.534,2.834V16h-1.355V10.756A1.824,1.824,0,0,0,111,9.489a1.57,1.57,0,0,0-1.2-.41,1.956,1.956,0,0,0-1.157.352,2.387,2.387,0,0,0-.776.923V16h-1.355V8.075ZM4.314,34.146a3.463,3.463,0,0,1-2.622-1.058A3.928,3.928,0,0,1,.681,30.257v-.249a4.756,4.756,0,0,1,.45-2.106,3.514,3.514,0,0,1,1.26-1.45,3.167,3.167,0,0,1,1.754-.524,2.968,2.968,0,0,1,2.4,1.018A4.408,4.408,0,0,1,7.4,29.862v.564H2.036a2.817,2.817,0,0,0,.685,1.893,2.153,2.153,0,0,0,1.666.721A2.36,2.36,0,0,0,5.6,32.748a3.055,3.055,0,0,0,.872-.776l.828.645A3.328,3.328,0,0,1,4.314,34.146Zm-.168-7.1a1.807,1.807,0,0,0-1.377.6,2.9,2.9,0,0,0-.688,1.674H6.05v-.1a2.581,2.581,0,0,0-.557-1.6A1.7,1.7,0,0,0,4.146,27.042ZM10.444,34H9.089V22.75h1.355Zm10.5-2.1a1,1,0,0,0-.414-.853,3.983,3.983,0,0,0-1.443-.524,6.822,6.822,0,0,1-1.633-.527,2.324,2.324,0,0,1-.894-.732,1.752,1.752,0,0,1-.289-1.011,2.056,2.056,0,0,1,.824-1.648,3.218,3.218,0,0,1,2.106-.674,3.311,3.311,0,0,1,2.186.7,2.21,2.21,0,0,1,.839,1.78H20.859a1.223,1.223,0,0,0-.472-.959,1.77,1.77,0,0,0-1.19-.4,1.852,1.852,0,0,0-1.157.322,1.014,1.014,0,0,0-.417.842.822.822,0,0,0,.388.74,4.776,4.776,0,0,0,1.4.476,7.308,7.308,0,0,1,1.644.542,2.4,2.4,0,0,1,.934.758,1.864,1.864,0,0,1,.3,1.08,2.028,2.028,0,0,1-.85,1.7,3.564,3.564,0,0,1-2.2.641,3.991,3.991,0,0,1-1.685-.337,2.74,2.74,0,0,1-1.146-.941A2.268,2.268,0,0,1,16,31.561h1.355a1.4,1.4,0,0,0,.546,1.08,2.117,2.117,0,0,0,1.344.4,2.185,2.185,0,0,0,1.234-.311A.956.956,0,0,0,20.94,31.9Zm6.409,2.249a3.463,3.463,0,0,1-2.622-1.058,3.928,3.928,0,0,1-1.011-2.831v-.249a4.756,4.756,0,0,1,.45-2.106,3.514,3.514,0,0,1,1.26-1.45,3.167,3.167,0,0,1,1.754-.524,2.968,2.968,0,0,1,2.4,1.018,4.408,4.408,0,0,1,.857,2.915v.564H25.071a2.817,2.817,0,0,0,.685,1.893,2.153,2.153,0,0,0,1.666.721,2.36,2.36,0,0,0,1.216-.293,3.055,3.055,0,0,0,.872-.776l.828.645A3.328,3.328,0,0,1,27.349,34.146Zm-.168-7.1a1.807,1.807,0,0,0-1.377.6,2.9,2.9,0,0,0-.688,1.674h3.97v-.1a2.581,2.581,0,0,0-.557-1.6A1.7,1.7,0,0,0,27.18,27.042Zm6.108-.967.044,1a2.888,2.888,0,0,1,2.373-1.143q2.512,0,2.534,2.834V34H36.885V28.756a1.824,1.824,0,0,0-.392-1.267,1.57,1.57,0,0,0-1.2-.41,1.956,1.956,0,0,0-1.157.352,2.387,2.387,0,0,0-.776.923V34H32.007V26.075Zm8.833-1.919v1.919H43.6v1.047H42.122v4.921a1.1,1.1,0,0,0,.2.715.832.832,0,0,0,.674.238,3.281,3.281,0,0,0,.645-.088V34a3.951,3.951,0,0,1-1.04.146,1.687,1.687,0,0,1-1.37-.549,2.36,2.36,0,0,1-.461-1.56V27.123H39.324V26.075h1.443V24.156ZM46.655,34H45.3V26.075h1.355ZM45.19,23.973a.809.809,0,0,1,.2-.557.756.756,0,0,1,.6-.227.768.768,0,0,1,.6.227.8.8,0,0,1,.205.557.774.774,0,0,1-.205.549.782.782,0,0,1-.6.22.77.77,0,0,1-.6-.22A.782.782,0,0,1,45.19,23.973Zm3.3,6a4.642,4.642,0,0,1,.864-2.933,2.941,2.941,0,0,1,4.468-.157V22.75h1.355V34H53.936l-.066-.85a2.759,2.759,0,0,1-2.263,1,2.707,2.707,0,0,1-2.245-1.128,4.7,4.7,0,0,1-.868-2.944Zm1.355.154a3.515,3.515,0,0,0,.557,2.109A1.8,1.8,0,0,0,51.943,33a1.977,1.977,0,0,0,1.882-1.157V28.2a1.992,1.992,0,0,0-1.868-1.121,1.808,1.808,0,0,0-1.553.769A3.87,3.87,0,0,0,49.849,30.125Zm7.075-.161a4.681,4.681,0,0,1,.458-2.095,3.415,3.415,0,0,1,1.274-1.436,3.469,3.469,0,0,1,1.864-.505,3.342,3.342,0,0,1,2.618,1.121,4.311,4.311,0,0,1,1,2.981v.1A4.722,4.722,0,0,1,63.7,32.2a3.365,3.365,0,0,1-1.267,1.432,3.509,3.509,0,0,1-1.893.513,3.334,3.334,0,0,1-2.611-1.121,4.29,4.29,0,0,1-1-2.966Zm1.362.161a3.39,3.39,0,0,0,.612,2.117,2.072,2.072,0,0,0,3.278-.011,3.707,3.707,0,0,0,.608-2.267,3.384,3.384,0,0,0-.619-2.113,1.968,1.968,0,0,0-1.644-.809,1.946,1.946,0,0,0-1.619.8A3.68,3.68,0,0,0,58.286,30.125ZM74.443,34a2.846,2.846,0,0,1-.19-.835A3.023,3.023,0,0,1,72,34.146a2.8,2.8,0,0,1-1.923-.663,2.145,2.145,0,0,1-.751-1.681,2.24,2.24,0,0,1,.941-1.923,4.437,4.437,0,0,1,2.648-.685h1.318v-.623a1.522,1.522,0,0,0-.425-1.132,1.707,1.707,0,0,0-1.252-.421,1.976,1.976,0,0,0-1.216.366,1.079,1.079,0,0,0-.491.886H69.485a1.87,1.87,0,0,1,.421-1.146,2.874,2.874,0,0,1,1.143-.875,3.844,3.844,0,0,1,1.586-.322,3.133,3.133,0,0,1,2.146.685,2.47,2.47,0,0,1,.806,1.886v3.647a4.459,4.459,0,0,0,.278,1.736V34Zm-2.249-1.033a2.381,2.381,0,0,0,1.208-.33,1.994,1.994,0,0,0,.828-.857V30.155H73.169q-2.49,0-2.49,1.458a1.234,1.234,0,0,0,.425,1A1.633,1.633,0,0,0,72.195,32.967Zm6.79-6.892.037.879a2.927,2.927,0,0,1,2.351-1.025A2.266,2.266,0,0,1,83.635,27.2a3,3,0,0,1,1.029-.923,3.039,3.039,0,0,1,1.5-.352q2.607,0,2.651,2.761V34H87.458V28.771A1.82,1.82,0,0,0,87.07,27.5a1.71,1.71,0,0,0-1.3-.421,1.8,1.8,0,0,0-1.252.45,1.827,1.827,0,0,0-.579,1.212V34H82.573V28.807a1.512,1.512,0,0,0-1.692-1.729,1.813,1.813,0,0,0-1.824,1.135V34H77.7V26.075Zm18.567,4.05a4.745,4.745,0,0,1-.828,2.915,2.653,2.653,0,0,1-2.241,1.106,2.906,2.906,0,0,1-2.271-.916v3.816H90.857V26.075h1.238l.066.879a2.791,2.791,0,0,1,2.3-1.025,2.7,2.7,0,0,1,2.26,1.077,4.8,4.8,0,0,1,.831,3ZM96.2,29.972a3.5,3.5,0,0,0-.571-2.117,1.84,1.84,0,0,0-1.567-.776,1.992,1.992,0,0,0-1.846,1.091v3.787a2,2,0,0,0,1.86,1.084,1.832,1.832,0,0,0,1.549-.773A3.822,3.822,0,0,0,96.2,29.972ZM100.745,34H99.39V22.75h1.355Zm3.64,0H103.03V26.075h1.355ZM102.92,23.973a.809.809,0,0,1,.2-.557.756.756,0,0,1,.6-.227.768.768,0,0,1,.6.227.8.8,0,0,1,.205.557.774.774,0,0,1-.205.549.782.782,0,0,1-.6.22.77.77,0,0,1-.6-.22A.782.782,0,0,1,102.92,23.973Zm3.274,5.991a4.681,4.681,0,0,1,.458-2.095,3.415,3.415,0,0,1,1.274-1.436,3.469,3.469,0,0,1,1.864-.505,3.342,3.342,0,0,1,2.618,1.121,4.311,4.311,0,0,1,1,2.981v.1a4.722,4.722,0,0,1-.443,2.076,3.365,3.365,0,0,1-1.267,1.432,3.509,3.509,0,0,1-1.893.513,3.334,3.334,0,0,1-2.611-1.121,4.29,4.29,0,0,1-1-2.966Zm1.362.161a3.39,3.39,0,0,0,.612,2.117,2.072,2.072,0,0,0,3.278-.011,3.707,3.707,0,0,0,.608-2.267,3.384,3.384,0,0,0-.619-2.113,1.968,1.968,0,0,0-1.644-.809,1.946,1.946,0,0,0-1.619.8A3.68,3.68,0,0,0,107.556,30.125Zm7.581,3.164a.849.849,0,0,1,.209-.586.8.8,0,0,1,.626-.234.819.819,0,0,1,.634.234.831.831,0,0,1,.216.586.786.786,0,0,1-.216.564.834.834,0,0,1-.634.227.753.753,0,0,1-.835-.791Z" transform="translate(880.612 2225.67)"/><rect width="216.22" height="90.032" transform="translate(1083.382 2195.545)" fill="#f3ebff"/><rect width="216.22" height="6.868" transform="translate(1083.382 2195.545)" fill="#bb83ff"/><path d="M4.723-12.518a4.005,4.005,0,0,1,2.3.656,4.158,4.158,0,0,1,1.494,2A10.66,10.66,0,0,1,9.048-6.1a10.633,10.633,0,0,1-.535,3.785A4.251,4.251,0,0,1,7.072-.328,3.88,3.88,0,0,1,4.79.307,4.017,4.017,0,0,1,2.474-.332,4.168,4.168,0,0,1,1-2.274a10.194,10.194,0,0,1-.531-3.71,8.818,8.818,0,0,1,1.038-4.873A3.7,3.7,0,0,1,4.723-12.518Zm.054,2.208a1.589,1.589,0,0,0-1.044.378,2.449,2.449,0,0,0-.7,1.3,11.408,11.408,0,0,0-.24,2.7,6.539,6.539,0,0,0,.551,3.2,1.639,1.639,0,0,0,1.429.884,1.507,1.507,0,0,0,1.342-.838,6.974,6.974,0,0,0,.6-3.387A7.085,7.085,0,0,0,6.181-9.4,1.6,1.6,0,0,0,4.777-10.31Zm10.379-2.208h2.317v7.861h1.087v2.15H17.473V0H15.2V-2.507H9.87v-2.15ZM15.2-4.657V-8.749L12.41-4.657Z" transform="translate(1103.486 2258.09)" fill="#6b6b6b"/><path d="M9.382,11.012a6.587,6.587,0,0,1-.491,2.662,4.114,4.114,0,0,1-1.377,1.747l1.9,1.494-.959.886L6.211,16.015a4.575,4.575,0,0,1-1.113.132,4.076,4.076,0,0,1-2.234-.619,4.09,4.09,0,0,1-1.512-1.765A6.33,6.33,0,0,1,.8,11.107v-.769a6.518,6.518,0,0,1,.535-2.717A4.075,4.075,0,0,1,2.845,5.816a4.058,4.058,0,0,1,2.238-.626,4.129,4.129,0,0,1,2.267.623A4.016,4.016,0,0,1,8.855,7.6a6.578,6.578,0,0,1,.527,2.728Zm-1.406-.688a4.84,4.84,0,0,0-.751-2.9A2.5,2.5,0,0,0,5.083,6.4,2.478,2.478,0,0,0,2.992,7.412,4.683,4.683,0,0,0,2.2,10.229v.784A4.825,4.825,0,0,0,2.97,13.9,2.481,2.481,0,0,0,5.1,14.953a2.486,2.486,0,0,0,2.109-.992,4.761,4.761,0,0,0,.769-2.845Zm8.254,4.893a2.878,2.878,0,0,1-2.322.93,2.464,2.464,0,0,1-1.93-.736,3.186,3.186,0,0,1-.67-2.179V8.075h1.355v5.12q0,1.8,1.465,1.8a2.028,2.028,0,0,0,2.065-1.157V8.075h1.355V16H16.26ZM21.079,16H19.724V8.075h1.355ZM19.614,5.973a.809.809,0,0,1,.2-.557.756.756,0,0,1,.6-.227.768.768,0,0,1,.6.227.8.8,0,0,1,.205.557.774.774,0,0,1-.205.549.782.782,0,0,1-.6.22.77.77,0,0,1-.6-.22A.782.782,0,0,1,19.614,5.973Zm6.921,10.173a3.463,3.463,0,0,1-2.622-1.058A3.928,3.928,0,0,1,22.9,12.257v-.249a4.756,4.756,0,0,1,.45-2.106,3.514,3.514,0,0,1,1.26-1.45,3.167,3.167,0,0,1,1.754-.524,2.968,2.968,0,0,1,2.4,1.018,4.408,4.408,0,0,1,.857,2.915v.564H24.258a2.817,2.817,0,0,0,.685,1.893,2.153,2.153,0,0,0,1.666.721,2.36,2.36,0,0,0,1.216-.293,3.055,3.055,0,0,0,.872-.776l.828.645A3.328,3.328,0,0,1,26.536,16.146Zm-.168-7.1a1.807,1.807,0,0,0-1.377.6,2.9,2.9,0,0,0-.688,1.674h3.97v-.1a2.581,2.581,0,0,0-.557-1.6A1.7,1.7,0,0,0,26.367,9.042Zm8.657.249a4.06,4.06,0,0,0-.667-.051,1.786,1.786,0,0,0-1.809,1.135V16H31.194V8.075h1.318l.022.916a2.11,2.11,0,0,1,1.89-1.062,1.384,1.384,0,0,1,.6.1Zm4.534,6.855a3.463,3.463,0,0,1-2.622-1.058,3.928,3.928,0,0,1-1.011-2.831v-.249a4.756,4.756,0,0,1,.45-2.106,3.514,3.514,0,0,1,1.26-1.45,3.167,3.167,0,0,1,1.754-.524,2.968,2.968,0,0,1,2.4,1.018,4.408,4.408,0,0,1,.857,2.915v.564H37.28a2.817,2.817,0,0,0,.685,1.893,2.153,2.153,0,0,0,1.666.721,2.36,2.36,0,0,0,1.216-.293,3.055,3.055,0,0,0,.872-.776l.828.645A3.328,3.328,0,0,1,39.558,16.146Zm-.168-7.1a1.807,1.807,0,0,0-1.377.6,2.9,2.9,0,0,0-.688,1.674h3.97v-.1a2.581,2.581,0,0,0-.557-1.6A1.7,1.7,0,0,0,39.39,9.042Zm11.316,4.373,1.472-5.339H54.39L51.716,16H49.695L47.021,8.075h2.212ZM57.554,16H55.43V8.075h2.124ZM55.305,6.024a1.042,1.042,0,0,1,.319-.784,1.373,1.373,0,0,1,1.732,0,1.036,1.036,0,0,1,.322.784,1.039,1.039,0,0,1-.326.791,1.358,1.358,0,0,1-1.721,0A1.039,1.039,0,0,1,55.305,6.024Zm6.958,7.39,1.472-5.339h2.212L63.274,16H61.252L58.579,8.075h2.212Zm8.262,2.732a3.89,3.89,0,0,1-2.838-1.069,3.8,3.8,0,0,1-1.095-2.849v-.205a4.787,4.787,0,0,1,.461-2.135,3.386,3.386,0,0,1,1.307-1.45,3.669,3.669,0,0,1,1.93-.509,3.289,3.289,0,0,1,2.56,1.025,4.167,4.167,0,0,1,.934,2.908v.864H68.738a1.966,1.966,0,0,0,.619,1.245,1.871,1.871,0,0,0,1.307.469,2.285,2.285,0,0,0,1.912-.886l1.04,1.165a3.178,3.178,0,0,1-1.289,1.051A4.229,4.229,0,0,1,70.525,16.146Zm-.242-6.511a1.323,1.323,0,0,0-1.022.427,2.209,2.209,0,0,0-.5,1.221H71.7v-.169a1.576,1.576,0,0,0-.381-1.092A1.365,1.365,0,0,0,70.283,9.635Zm6.65-1.56L77,8.991a2.767,2.767,0,0,1,2.278-1.062,2.3,2.3,0,0,1,1.875.74,3.451,3.451,0,0,1,.63,2.212V16H79.666V10.932a1.373,1.373,0,0,0-.293-.978,1.312,1.312,0,0,0-.974-.3,1.456,1.456,0,0,0-1.34.762V16H74.941V8.075Zm9.749,6.365a1.388,1.388,0,0,0,.952-.322,1.129,1.129,0,0,0,.381-.857H90a2.715,2.715,0,0,1-.439,1.476,2.9,2.9,0,0,1-1.183,1.04,3.7,3.7,0,0,1-1.659.37,3.44,3.44,0,0,1-2.681-1.08,4.275,4.275,0,0,1-.981-2.985v-.139a4.226,4.226,0,0,1,.974-2.922A3.4,3.4,0,0,1,86.7,7.929a3.333,3.333,0,0,1,2.384.846A3,3,0,0,1,90,11.027H88.015a1.455,1.455,0,0,0-.381-1.005,1.416,1.416,0,0,0-2.084.153,3.125,3.125,0,0,0-.377,1.749v.22a3.164,3.164,0,0,0,.374,1.761A1.291,1.291,0,0,0,86.682,14.44ZM93.442,16H91.318V8.075h2.124ZM91.194,6.024a1.042,1.042,0,0,1,.319-.784,1.373,1.373,0,0,1,1.732,0,1.036,1.036,0,0,1,.322.784,1.039,1.039,0,0,1-.326.791,1.358,1.358,0,0,1-1.721,0A1.039,1.039,0,0,1,91.194,6.024ZM99.778,16a2.351,2.351,0,0,1-.212-.71,2.561,2.561,0,0,1-2,.857,2.814,2.814,0,0,1-1.93-.674,2.167,2.167,0,0,1-.765-1.7A2.24,2.24,0,0,1,95.8,11.84a4.608,4.608,0,0,1,2.7-.681h.974V10.7a1.306,1.306,0,0,0-.282-.879,1.109,1.109,0,0,0-.89-.33,1.261,1.261,0,0,0-.839.256.871.871,0,0,0-.3.7H95.046a2.126,2.126,0,0,1,.425-1.274,2.808,2.808,0,0,1,1.2-.919,4.378,4.378,0,0,1,1.743-.333,3.459,3.459,0,0,1,2.325.736,2.575,2.575,0,0,1,.861,2.069v3.435a3.789,3.789,0,0,0,.315,1.707V16Zm-1.75-1.472a1.823,1.823,0,0,0,.864-.209,1.371,1.371,0,0,0,.586-.56V12.4h-.791q-1.589,0-1.692,1.1l-.007.125a.847.847,0,0,0,.278.652A1.081,1.081,0,0,0,98.027,14.528Zm9.492-.718a.682.682,0,0,0-.385-.612,4.368,4.368,0,0,0-1.234-.4q-2.827-.593-2.827-2.4a2.178,2.178,0,0,1,.875-1.761,3.531,3.531,0,0,1,2.289-.707,3.8,3.8,0,0,1,2.413.71,2.239,2.239,0,0,1,.9,1.846h-2.117a1.024,1.024,0,0,0-.293-.751,1.24,1.24,0,0,0-.916-.3,1.267,1.267,0,0,0-.828.242.763.763,0,0,0-.293.615.652.652,0,0,0,.333.568,3.428,3.428,0,0,0,1.124.374,9.183,9.183,0,0,1,1.333.355,2.19,2.19,0,0,1,1.677,2.131,2.067,2.067,0,0,1-.93,1.754,4.013,4.013,0,0,1-2.4.67,4.191,4.191,0,0,1-1.769-.355,2.968,2.968,0,0,1-1.212-.974,2.263,2.263,0,0,1-.439-1.337h2.007a1.105,1.105,0,0,0,.417.864,1.656,1.656,0,0,0,1.04.3,1.533,1.533,0,0,0,.919-.231A.718.718,0,0,0,107.52,13.81ZM3.047,34H.923V26.075H3.047ZM.8,24.024a1.042,1.042,0,0,1,.319-.784,1.2,1.2,0,0,1,.868-.308,1.2,1.2,0,0,1,.864.308,1.118,1.118,0,0,1,0,1.575,1.2,1.2,0,0,1-.861.308,1.2,1.2,0,0,1-.861-.308A1.039,1.039,0,0,1,.8,24.024Zm5.94,2.051.066.916a2.767,2.767,0,0,1,2.278-1.062,2.3,2.3,0,0,1,1.875.74,3.451,3.451,0,0,1,.63,2.212V34H9.47V28.932a1.373,1.373,0,0,0-.293-.978,1.312,1.312,0,0,0-.974-.3,1.456,1.456,0,0,0-1.34.762V34H4.746V26.075Zm8.987-1.948v1.948H17.08v1.553H15.725v3.955a.944.944,0,0,0,.168.63.846.846,0,0,0,.645.19,3.376,3.376,0,0,0,.623-.051v1.6a4.358,4.358,0,0,1-1.282.19A2.021,2.021,0,0,1,13.608,31.9v-4.27H12.451V26.075h1.157V24.127Zm6.182,10.02a3.89,3.89,0,0,1-2.838-1.069,3.8,3.8,0,0,1-1.095-2.849v-.205a4.787,4.787,0,0,1,.461-2.135,3.386,3.386,0,0,1,1.307-1.45,3.669,3.669,0,0,1,1.93-.509,3.289,3.289,0,0,1,2.56,1.025,4.167,4.167,0,0,1,.934,2.908v.864H20.12a1.966,1.966,0,0,0,.619,1.245,1.871,1.871,0,0,0,1.307.469,2.285,2.285,0,0,0,1.912-.886L25,32.718a3.178,3.178,0,0,1-1.289,1.051A4.229,4.229,0,0,1,21.907,34.146Zm-.242-6.511a1.323,1.323,0,0,0-1.022.427,2.209,2.209,0,0,0-.5,1.221h2.944v-.169a1.576,1.576,0,0,0-.381-1.092A1.365,1.365,0,0,0,21.665,27.635Zm9.155.425A5.75,5.75,0,0,0,30.059,28a1.55,1.55,0,0,0-1.575.813V34H26.367V26.075h2l.059.945a1.961,1.961,0,0,1,1.765-1.091,2.218,2.218,0,0,1,.659.1ZM36.211,34A2.351,2.351,0,0,1,36,33.29a2.561,2.561,0,0,1-2,.857,2.814,2.814,0,0,1-1.93-.674,2.167,2.167,0,0,1-.765-1.7,2.24,2.24,0,0,1,.934-1.934,4.608,4.608,0,0,1,2.7-.681h.974V28.7a1.306,1.306,0,0,0-.282-.879,1.109,1.109,0,0,0-.89-.33,1.261,1.261,0,0,0-.839.256.871.871,0,0,0-.3.7H31.479a2.126,2.126,0,0,1,.425-1.274,2.808,2.808,0,0,1,1.2-.919,4.378,4.378,0,0,1,1.743-.333,3.459,3.459,0,0,1,2.325.736,2.575,2.575,0,0,1,.861,2.069v3.435a3.789,3.789,0,0,0,.315,1.707V34Zm-1.75-1.472a1.823,1.823,0,0,0,.864-.209,1.371,1.371,0,0,0,.586-.56V30.4H35.12q-1.589,0-1.692,1.1l-.007.125a.847.847,0,0,0,.278.652A1.081,1.081,0,0,0,34.46,32.528Zm8.5-.088a1.388,1.388,0,0,0,.952-.322,1.129,1.129,0,0,0,.381-.857h1.985a2.715,2.715,0,0,1-.439,1.476,2.9,2.9,0,0,1-1.183,1.04,3.7,3.7,0,0,1-1.659.37,3.44,3.44,0,0,1-2.681-1.08,4.275,4.275,0,0,1-.981-2.985v-.139a4.226,4.226,0,0,1,.974-2.922,3.4,3.4,0,0,1,2.673-1.091,3.333,3.333,0,0,1,2.384.846,3,3,0,0,1,.912,2.252H44.29a1.455,1.455,0,0,0-.381-1.005,1.416,1.416,0,0,0-2.084.153,3.125,3.125,0,0,0-.377,1.749v.22a3.164,3.164,0,0,0,.374,1.761A1.291,1.291,0,0,0,42.957,32.44Zm7.061-8.313v1.948h1.355v1.553H50.017v3.955a.944.944,0,0,0,.168.63.846.846,0,0,0,.645.19,3.376,3.376,0,0,0,.623-.051v1.6a4.358,4.358,0,0,1-1.282.19A2.021,2.021,0,0,1,47.9,31.9v-4.27H46.743V26.075H47.9V24.127ZM54.785,34H52.661V26.075h2.124Zm-2.249-9.976a1.042,1.042,0,0,1,.319-.784,1.373,1.373,0,0,1,1.732,0,1.118,1.118,0,0,1,0,1.575,1.358,1.358,0,0,1-1.721,0A1.039,1.039,0,0,1,52.537,24.024Zm6.958,7.39,1.472-5.339h2.212L60.505,34H58.484l-2.673-7.925h2.212ZM68.591,34a2.351,2.351,0,0,1-.212-.71,2.561,2.561,0,0,1-2,.857,2.814,2.814,0,0,1-1.93-.674,2.167,2.167,0,0,1-.765-1.7,2.24,2.24,0,0,1,.934-1.934,4.608,4.608,0,0,1,2.7-.681h.974V28.7a1.306,1.306,0,0,0-.282-.879,1.109,1.109,0,0,0-.89-.33,1.261,1.261,0,0,0-.839.256.871.871,0,0,0-.3.7H63.86a2.126,2.126,0,0,1,.425-1.274,2.808,2.808,0,0,1,1.2-.919,4.378,4.378,0,0,1,1.743-.333,3.459,3.459,0,0,1,2.325.736,2.575,2.575,0,0,1,.861,2.069v3.435a3.789,3.789,0,0,0,.315,1.707V34Zm-1.75-1.472a1.823,1.823,0,0,0,.864-.209,1.371,1.371,0,0,0,.586-.56V30.4H67.5q-1.589,0-1.692,1.1l-.007.125a.847.847,0,0,0,.278.652A1.081,1.081,0,0,0,66.841,32.528Zm9.492-.718a.682.682,0,0,0-.385-.612,4.368,4.368,0,0,0-1.234-.4q-2.827-.593-2.827-2.4a2.178,2.178,0,0,1,.875-1.761,3.531,3.531,0,0,1,2.289-.707,3.8,3.8,0,0,1,2.413.71,2.239,2.239,0,0,1,.9,1.846H76.252a1.024,1.024,0,0,0-.293-.751,1.24,1.24,0,0,0-.916-.3,1.267,1.267,0,0,0-.828.242.763.763,0,0,0-.293.615.652.652,0,0,0,.333.568,3.428,3.428,0,0,0,1.124.374,9.183,9.183,0,0,1,1.333.355,2.19,2.19,0,0,1,1.677,2.131,2.067,2.067,0,0,1-.93,1.754,4.013,4.013,0,0,1-2.4.67,4.191,4.191,0,0,1-1.769-.355,2.968,2.968,0,0,1-1.212-.974,2.263,2.263,0,0,1-.439-1.337h2.007a1.105,1.105,0,0,0,.417.864,1.656,1.656,0,0,0,1.04.3,1.533,1.533,0,0,0,.919-.231A.718.718,0,0,0,76.333,31.81Zm3.53,1.15a1.066,1.066,0,0,1,.341-.82,1.323,1.323,0,0,1,1.714,0,1.066,1.066,0,0,1,.341.82,1.051,1.051,0,0,1-.337.809,1.345,1.345,0,0,1-1.721,0A1.051,1.051,0,0,1,79.863,32.96Z" transform="translate(1146.739 2223.626)"/><g transform="translate(305.434 2243.896)"><path d="M-945.717-88.234c-5.042,0-9.144-3.787-9.144-8.441s4.1-8.44,9.144-8.44,9.143,3.785,9.143,8.44S-940.676-88.234-945.717-88.234Zm0-15.229c-4.132,0-7.492,3.046-7.492,6.788s3.36,6.788,7.492,6.788,7.491-3.046,7.491-6.788S-941.586-103.463-945.717-103.463Z" transform="translate(954.861 123.574)" fill="#f17781"/><path d="M-945.831-91.474a5.53,5.53,0,0,1-5.719-5.3,5.529,5.529,0,0,1,5.719-5.3,5.529,5.529,0,0,1,5.718,5.3A5.529,5.529,0,0,1-945.831-91.474Zm0-8.958a3.882,3.882,0,0,0-4.068,3.653,3.882,3.882,0,0,0,4.068,3.653,3.881,3.881,0,0,0,4.067-3.653A3.881,3.881,0,0,0-945.831-100.432Z" transform="translate(954.975 123.679)" fill="#f17781"/><path d="M-743.447-68.359H-946.821V-88.444h1.652v18.433H-745.1v-52.947h35.728v1.652h-34.077Z" transform="translate(955.139 122.959)" fill="#f17781"/></g><g transform="translate(571.054 2243.896)"><path d="M-688.958-88.234c-5.041,0-9.143-3.787-9.143-8.441s4.1-8.44,9.143-8.44,9.144,3.785,9.144,8.44S-683.916-88.234-688.958-88.234Zm0-15.229c-4.131,0-7.491,3.046-7.491,6.788s3.36,6.788,7.491,6.788,7.492-3.046,7.492-6.788S-684.826-103.463-688.958-103.463Z" transform="translate(698.101 123.574)" fill="#bb83ff"/><path d="M-689.072-91.474a5.53,5.53,0,0,1-5.719-5.3,5.529,5.529,0,0,1,5.719-5.3,5.53,5.53,0,0,1,5.719,5.3A5.53,5.53,0,0,1-689.072-91.474Zm0-8.958a3.88,3.88,0,0,0-4.067,3.653,3.88,3.88,0,0,0,4.067,3.653,3.881,3.881,0,0,0,4.067-3.653A3.881,3.881,0,0,0-689.072-100.432Z" transform="translate(698.215 123.679)" fill="#bb83ff"/><path d="M-486.687-68.359H-690.061V-88.444h1.652v18.433h200.07v-52.947h35.728v1.652h-34.077Z" transform="translate(698.379 122.959)" fill="#bb83ff"/></g><g transform="translate(837.182 2243.896)"><path d="M-431.708-88.234c-5.041,0-9.143-3.787-9.143-8.441s4.1-8.44,9.143-8.44,9.144,3.785,9.144,8.44S-426.666-88.234-431.708-88.234Zm0-15.229c-4.131,0-7.491,3.046-7.491,6.788s3.36,6.788,7.491,6.788,7.492-3.046,7.492-6.788S-427.576-103.463-431.708-103.463Z" transform="translate(440.851 123.574)" fill="#f17781"/><path d="M-431.822-91.474a5.53,5.53,0,0,1-5.719-5.3,5.529,5.529,0,0,1,5.719-5.3,5.529,5.529,0,0,1,5.719,5.3A5.53,5.53,0,0,1-431.822-91.474Zm0-8.958a3.881,3.881,0,0,0-4.067,3.653,3.881,3.881,0,0,0,4.067,3.653,3.881,3.881,0,0,0,4.067-3.653A3.881,3.881,0,0,0-431.822-100.432Z" transform="translate(440.965 123.679)" fill="#f17781"/><path d="M-229.437-68.359H-432.811V-88.444h1.652v18.433h200.07v-52.947h35.728v1.652h-34.077Z" transform="translate(441.128 122.959)" fill="#f17781"/></g><g transform="translate(1103.309 2243.896)"><path d="M-174.458-88.234c-5.041,0-9.143-3.787-9.143-8.441s4.1-8.44,9.143-8.44,9.144,3.785,9.144,8.44S-169.416-88.234-174.458-88.234Zm0-15.229c-4.131,0-7.491,3.046-7.491,6.788s3.36,6.788,7.491,6.788,7.492-3.046,7.492-6.788S-170.326-103.463-174.458-103.463Z" transform="translate(183.601 123.574)" fill="#bb83ff"/><path d="M-174.572-91.474a5.53,5.53,0,0,1-5.719-5.3,5.529,5.529,0,0,1,5.719-5.3,5.529,5.529,0,0,1,5.719,5.3A5.53,5.53,0,0,1-174.572-91.474Zm0-8.958a3.881,3.881,0,0,0-4.067,3.653,3.881,3.881,0,0,0,4.067,3.653,3.881,3.881,0,0,0,4.067-3.653A3.881,3.881,0,0,0-174.572-100.432Z" transform="translate(183.715 123.679)" fill="#bb83ff"/><path d="M27.813-68.359H-175.561V-88.444h1.652v18.433H26.161v-51.3H12.415v-1.652h15.4Z" transform="translate(183.878 122.959)" fill="#bb83ff"/></g><path d="M-7565-9445.493h16.539" transform="translate(7870 11687.09)" fill="none" stroke="#0a0a0a" stroke-width="1"/><path d="M-7565-9445.493h16.539" transform="translate(8137 11687.09)" fill="none" stroke="#0a0a0a" stroke-width="1"/><path d="M-7565-9445.493h16.539" transform="translate(8403 11687.09)" fill="none" stroke="#0a0a0a" stroke-width="1"/><path d="M-7565-9445.493h16.539" transform="translate(8669.998 11687.09)" fill="none" stroke="#0a0a0a" stroke-width="1"/><g transform="translate(-282.073 -24.024)"><g transform="translate(854.541 2233.08)"><g transform="translate(0 0)"><path d="M203.266-110.3l-3.951-5a4.254,4.254,0,0,0-2.714-1.561v-2.576a.6.6,0,0,0-.6-.6.6.6,0,0,0-.6.6v2.576a4.175,4.175,0,0,0-2.708,1.561l-3.963,5a2.5,2.5,0,0,0-.534,1.537v15.006a2.46,2.46,0,0,0,2.468,2.45h10.659a2.46,2.46,0,0,0,2.48-2.438v-15.018A2.532,2.532,0,0,0,203.266-110.3ZM196-111a1.745,1.745,0,0,1,1.747,1.747A1.745,1.745,0,0,1,196-107.509a1.745,1.745,0,0,1-1.747-1.747A1.749,1.749,0,0,1,196-111Zm6.605,17.252a1.259,1.259,0,0,1-1.279,1.249H190.674a1.259,1.259,0,0,1-1.279-1.249v-15.006a1.26,1.26,0,0,1,.276-.793l3.957-5a3.011,3.011,0,0,1,1.771-1.087v3.495a2.948,2.948,0,0,0-2.288,3.489,2.948,2.948,0,0,0,3.489,2.288,2.948,2.948,0,0,0,2.288-3.489,2.954,2.954,0,0,0-2.288-2.288v-3.495a3.035,3.035,0,0,1,.715.24,2.994,2.994,0,0,1,1.051.847l3.963,5a1.289,1.289,0,0,1,.276.8v15.006Z" transform="translate(-188.194 120.035)" fill="#6b6b6b"/></g><g transform="translate(5.799 16.91)"><g transform="translate(0 0)"><path d="M288.687,166.555a2.011,2.011,0,0,0-1.916-1.405.8.8,0,1,1,.8-.8.6.6,0,0,0,1.2,0,2.011,2.011,0,0,0-1.405-1.916v-.264a.6.6,0,0,0-1.2,0v.264a2.006,2.006,0,0,0,.6,3.921.8.8,0,1,1-.8.8.6.6,0,1,0-1.2,0,2.011,2.011,0,0,0,1.405,1.916v.3a.6.6,0,0,0,1.2,0v-.3A2.009,2.009,0,0,0,288.687,166.555Z" transform="translate(-284.764 -161.565)" fill="#6b6b6b"/></g></g></g></g><g transform="translate(750.358 2209.056)"><g transform="translate(86)"><path d="M111.012,9.541A9.552,9.552,0,0,0,101.471,0a9.454,9.454,0,0,0-5.782,1.951,9.61,9.61,0,0,0-3.384,4.933.561.561,0,1,0,1.078.312,8.418,8.418,0,1,1,0,4.689.561.561,0,0,0-1.078.312,9.61,9.61,0,0,0,3.384,4.933q.248.19.506.361V28.173a.561.561,0,0,0,.865.472l4.411-2.835,4.411,2.835a.561.561,0,0,0,.865-.472V17.486A9.539,9.539,0,0,0,111.012,9.541Zm-5.388,17.6-3.85-2.475a.561.561,0,0,0-.607,0l-3.85,2.475V18.134a9.555,9.555,0,0,0,8.306-.005Z" transform="translate(-91.931)" fill="#6b6b6b"/><path d="M177.694,98.6l1.387,1-.531,1.621a1.118,1.118,0,0,0,1.722,1.251l1.378-1.006,1.378,1.005a1.1,1.1,0,0,0,1.316,0,1.1,1.1,0,0,0,.405-1.252l-.531-1.621,1.387-1a1.118,1.118,0,0,0-.655-2.024h-1.713l-.524-1.62a1.118,1.118,0,0,0-2.127,0l-.524,1.62h-1.713a1.118,1.118,0,0,0-.655,2.024Zm2.777-.9a.561.561,0,0,0,.534-.389l.645-2,.645,2a.561.561,0,0,0,.534.389h2.107l-1.708,1.235a.561.561,0,0,0-.2.629l.654,2-1.7-1.239a.561.561,0,0,0-.662,0l-1.7,1.239.654-2a.561.561,0,0,0-.2-.629L178.363,97.7Z" transform="translate(-172.109 -88.894)" fill="#6b6b6b"/><path d="M137.071,58.143A7.071,7.071,0,1,0,130,51.071,7.079,7.079,0,0,0,137.071,58.143Zm0-13.02a5.949,5.949,0,1,1-5.949,5.949A5.956,5.956,0,0,1,137.071,45.122Z" transform="translate(-127.531 -41.531)" fill="#6b6b6b"/><path d="M86.958,160.958a.561.561,0,1,0-.4.165A.565.565,0,0,0,86.958,160.958Z" transform="translate(-86 -151.021)" fill="#6b6b6b"/></g></g><g transform="translate(1030.486 2214.136)"><path d="M109.33,5.776a.638.638,0,0,0,.52-.737,3.212,3.212,0,1,1,6.33-.008.638.638,0,0,0,1.258.214,4.488,4.488,0,1,0-8.846.011A.638.638,0,0,0,109.33,5.776Z" transform="translate(-34.015)" fill="#6b6b6b"/><path d="M85.789,68.639a1.913,1.913,0,0,0-2.552-.851,1.913,1.913,0,0,0-2.332-.943V62.938A1.943,1.943,0,0,0,79.039,61a1.916,1.916,0,0,0-1.972,1.913v9.83l-.75-.785a1.941,1.941,0,0,0-2.686-.118,1.913,1.913,0,0,0-.1,2.74l4.308,4.595a3.2,3.2,0,0,0,2.327,1.008h5.2a3.194,3.194,0,0,0,3.19-3.19V70.356A1.916,1.916,0,0,0,85.789,68.639Zm1.484,8.352a1.916,1.916,0,0,1-1.914,1.914h-5.2a1.921,1.921,0,0,1-1.4-.605l-4.314-4.6a.638.638,0,0,1,.034-.915.656.656,0,0,1,.907.053l1.849,1.936a.639.639,0,0,0,1.1-.44V62.912A.64.64,0,0,1,79,62.274a.658.658,0,0,1,.625.664c0,7.021-.012,3.838-.012,7.63a.644.644,0,0,0,1.288,0V68.533a.638.638,0,0,1,1.264.121v1.914a.638.638,0,0,0,1.276,0V69.5a.638.638,0,1,1,1.276,0v1.063a.638.638,0,0,0,1.276,0v-.213a.638.638,0,0,1,1.276,0Z" transform="translate(0 -58.403)" fill="#6b6b6b"/><path d="M1893.081,2054.807a7.019,7.019,0,0,0-12.643,5.255.677.677,0,0,0,1.334-.23,5.666,5.666,0,1,1,11.166-.013.676.676,0,0,0,1.333.226A6.964,6.964,0,0,0,1893.081,2054.807Z" transform="translate(-1808.355 -2054.891)" fill="#6b6b6b"/></g><g transform="translate(-1550.493 164.695)"><path d="M1858.353,2057.762h8.666v1.333h-8.666Z" fill="#6b6b6b"/><path d="M1858.353,2054.424h8.666v1.333h-8.666Z" fill="#6b6b6b"/><path d="M1858.353,2061.095h8.666v1.333h-8.666Z" fill="#6b6b6b"/><path d="M1858.353,2064.428h8.666v1.333h-8.666Z" fill="#6b6b6b"/><path d="M1858.353,2067.761h8.666v1.333h-8.666Z" fill="#6b6b6b"/><path d="M1872.441,2047.34h-14.975v3.422h-1.788v22.332h13.7v-2h3.059Zm-4.25,24.42H1856.87v-19.665h11.321Zm3.059-2h-1.872v-19h-10.721v-2.087h12.592Z" fill="#6b6b6b"/></g></g></svg>