<svg xmlns="http://www.w3.org/2000/svg" width="295" height="262" viewBox="0 0 295 262"><g transform="translate(-2206.685 -2527.102)"><rect width="295" height="262" transform="translate(2206.684 2527.102)" fill="#f0e8fc"/><rect width="294" height="261" transform="translate(2207.184 2527.602)" fill="#f0e8fc"/><path d="M2501.684,2788.6v-93.578L2369.02,2615.79l-161.336,99.746V2788.6Z" fill="#caccf9"/><path d="M2459.91,2697.917l-116.185,67.042-95.267-55.364,115.73-67.414Z" fill="#babbf3"/><path d="M2459.91,2686.4l-116.185,67.414-95.143-55.24-.034-2.742,115.64-64.8,95.721,52.779Z" fill="#6a3782"/><path d="M2459.91,2683.793l-116.185,67.414-95.267-55.364,115.73-67.414Z" fill="#fff"/><path d="M2459.91,2683.917l-116.185,67.414-95.267-55.364,115.73-67.414Z" fill="#fff"/><path d="M2369.786,2671.238l0,1.036a3.576,3.576,0,0,0,1.788,3.092h0a3.576,3.576,0,0,0,5.365-3.1v-1.035a3.578,3.578,0,0,0-1.778-3.09h0A3.577,3.577,0,0,0,2369.786,2671.238Z" fill="#fff"/><path d="M2438.359,2688.352l-84.456-48.476-8.709,5.086,84.774,48.895Z" fill="#e8eaf7"/><ellipse cx="7.821" cy="4.853" rx="7.821" ry="4.853" transform="translate(2354.091 2715.326)" fill="#e8eaf7"/><path d="M2435.548,2612.018v68.861l-4.923,3.6-.107.078-15.111-8.681-13.027-7.485-63.322-42.948-4.923-44.387v-20.944l.125-.076,5.573-3.335,95.646,55.278Z" fill="#4346a3"/><path d="M2435.548,2612.018v68.861l-4.923,3.6-.107.078-15.111-8.681,12.517-58.455,7.556-5.443Z" fill="#364085"/><path d="M2404.308,2660.391l-19.335,22.914-39.621-22.914v-4.6l39.621-6.854Z" fill="#364085"/><path d="M2403.592,2655.671l-19.1,22.545-36.013-20.744-3.127-1.8,39.14-11.272Z" fill="#4346a3"/><path d="M2430.625,2615.756v68.862l-.107-.062-28.138-16.166-68.245-39.208v-69.22l.125.073Z" fill="#d1d4f5"/><path d="M2339.493,2566.945v61.533l85.774,49.279v-61.214Z" fill="#4346a3"/><path d="M2340.905,2568.769v59.506l82.95,47.656v-59.2Z" fill="#fff"/><path d="M2369.009,2704.075l-1.443,10.7-.017.126-.014.1-.956,7.081-.177,1.315,0,.024,0,.035h-.062a12.121,12.121,0,0,1-14.515,0h-.046l-.005-.042-.012-.1-.014-.118-.956-8.2-.016-.131,0-.045-1.252-10.735Z" fill="#f8778d"/><ellipse cx="9.749" cy="7.26" rx="9.749" ry="7.26" transform="translate(2349.512 2696.807)" fill="#f4bbc4"/><ellipse cx="7.527" cy="5.605" rx="7.527" ry="5.605" transform="translate(2351.876 2698.014)" fill="#364085"/><path d="M2358.961,2700.949c3.736,0,6.837,2.028,7.425,4.686a4.367,4.367,0,0,0,.546-2.1c0-3.1-3.369-5.606-7.526-5.606s-7.527,2.51-7.527,5.606a4.253,4.253,0,0,0,.1.918C2353.1,2702.4,2355.8,2700.949,2358.961,2700.949Z" fill="#4346a3"/><path d="M2387.1,2693.587a18.97,18.97,0,0,0-7.211-7.494l-1.521,1.175.74-1.582a16.657,16.657,0,0,0-13.067-.445l-.657,1.682-.46-1.226c-6.708,3-10.655,9.641-5.4,14.325l.34,0a10.63,10.63,0,0,0,8.131-1.891l-1.98-.583,3.033-.136c3.5-2.481,6.852-5.628,13.13-4.97l-.766-1.213,1.922,1.373A23.954,23.954,0,0,1,2387.1,2693.587Z" fill="#3cebce"/><path d="M2358.949,2704.158h-.007a.116.116,0,0,1-.108-.122c.34-5.748,2.273-9.957,5.745-12.51,5.934-4.364,14.42-2.323,14.5-2.3a.115.115,0,0,1-.055.224c-.084-.021-8.469-2.036-14.315,2.264-3.413,2.511-5.314,6.662-5.65,12.338A.115.115,0,0,1,2358.949,2704.158Z" fill="#364085"/><path d="M2353.232,2688.342l-.46,1.027-.261-1.566a13.44,13.44,0,0,0-10.3-2.1l.791,1.626-1.774-1.37a10.383,10.383,0,0,0-7.317,8.562,29.533,29.533,0,0,0,4.229,1.875l2.962-.926-1.6,1.375a40.217,40.217,0,0,0,9.3,1.624l4.653-1.642-2.416,1.726a41.307,41.307,0,0,0,6.713-.4A12.162,12.162,0,0,0,2353.232,2688.342Z" fill="#2ed4e2"/><path d="M2359.284,2703.344a.134.134,0,0,1-.132-.109c-1.189-5.9-3.664-9.781-7.356-11.533-5.91-2.8-13,.87-13.072.907a.134.134,0,0,1-.183-.056.136.136,0,0,1,.057-.184c.072-.038,7.278-3.776,13.313-.913,3.775,1.791,6.3,5.736,7.507,11.725a.137.137,0,0,1-.107.16Z" fill="#364085"/><path d="M2369.314,2697.193l-.188.811.854-.806a9.94,9.94,0,0,1,7,3.371l-1.193.6,1.657-.014a7.676,7.676,0,0,1,.481,8.313,21.886,21.886,0,0,1-3.329-.786l-1.33-1.87.33,1.527a29.781,29.781,0,0,1-6.2-3.2l-2.006-3.047.652,2.1a30.463,30.463,0,0,1-3.772-3.239A8.992,8.992,0,0,1,2369.314,2697.193Z" fill="#2ed4e2"/><path d="M2359.043,2703.321a.1.1,0,0,0,.127,0c3.338-2.944,6.53-4.122,9.488-3.5,4.734.991,7.267,6.325,7.292,6.379a.1.1,0,0,0,.181-.085c-.025-.055-2.6-5.478-7.431-6.49-3.023-.633-6.274.56-9.663,3.548a.1.1,0,0,0-.009.142Z" fill="#364085"/><path d="M2347.861,2700.963l.474.683-1.091-.433a9.943,9.943,0,0,0-5.259,5.722l1.332.12-1.545.6a7.679,7.679,0,0,0,2.628,7.9,21.76,21.76,0,0,0,2.8-1.962l.545-2.229.258,1.541a29.771,29.771,0,0,0,4.578-5.267l.736-3.574.171,2.189a30.547,30.547,0,0,0,2.306-4.4A8.987,8.987,0,0,0,2347.861,2700.963Z" fill="#3cebce"/><path d="M2359.67,2702.858a.1.1,0,0,1-.119.042c-4.19-1.5-7.592-1.414-10.111.255-4.032,2.671-4.412,8.563-4.416,8.623a.1.1,0,1,1-.2-.012c0-.06.388-6.05,4.5-8.778,2.575-1.706,6.037-1.8,10.29-.276a.1.1,0,0,1,.061.128Z" fill="#364085"/><path d="M2357.114,2709.178l-1.392.928a10.833,10.833,0,0,0,.481,6l1.589-1.1-1.146,2.14a17.659,17.659,0,0,0,4.674,5.73,32.047,32.047,0,0,0,3.122-5.544l-.951-1.511,1.364.381a8.6,8.6,0,0,0-1.249-8.452l-1.879-.613s.552-.083,1.183-.174a15.975,15.975,0,0,0-4.127-2.947,13.489,13.489,0,0,0-2.852,5.212Z" fill="#3cebce"/><path d="M2361.184,2715.962h-.014a.134.134,0,0,1-.121-.149c.452-4.291-1.412-9.174-2.526-12.092-.727-1.9-.943-2.515-.662-2.706.2-.134.51.041,1.194.669a.137.137,0,0,1,.008.192.135.135,0,0,1-.192.008c-.6-.548-.8-.629-.854-.638a10.013,10.013,0,0,0,.759,2.378c1.123,2.941,3,7.862,2.543,12.218A.136.136,0,0,1,2361.184,2715.962Z" fill="#364085"/><path d="M2379.2,2597.73l-32.128-18.577v48.706l32.128,18.458Z" fill="#fb95e1"/><path d="M2349.287,2603.3v5.954l27.7,16.016v-5.954Z" fill="#fff"/><path d="M2349.287,2617.691l27.7,16.015v-5.954l-27.7-16.015Z" fill="#fff"/><path d="M2349.287,2626.126l27.7,16.016v-5.955l-27.7-16.015Z" fill="#fff"/><path d="M2363.146,2596.263l-13.859-8.013v5.954l13.859,8.013Z" fill="#fff"/><path d="M2379.189,2597.678l2.15-1.323-31.922-18.69-2.315,1.489Z" fill="#f8778d"/><path d="M2379.189,2597.678v48.628l1.819-1.323.331-48.628Z" fill="#f8778d"/><path d="M2382.838,2599.834v48.573l32.128,18.458v-48.454Z" fill="#91dafb"/><path d="M2384.848,2623.811v5.954l27.7,16.015v-5.954Z" fill="#fff"/><path d="M2384.848,2638.2l27.7,16.016v-5.955l-27.7-16.015Z" fill="#fff"/><path d="M2384.848,2646.636l27.7,16.015V2656.7l-27.7-16.016Z" fill="#fff"/><path d="M2398.707,2616.773l-13.859-8.013v5.954l13.859,8.014Z" fill="#fff"/><path d="M2414.916,2618.353l2.15-1.323-31.922-18.69-2.316,1.489Z" fill="#4d86ed"/><path d="M2414.916,2618.353v48.628l1.819-1.323.331-48.628Z" fill="#4d86ed"/><ellipse cx="18.198" cy="11.293" rx="18.198" ry="11.293" transform="translate(2294.31 2678.951)" fill="#e8eaf7"/><path d="M2339.46,2607.568c4.488-9.606,2.756-2.677,2.756-2.677,2.6-.473,2.126,2.992-.315,4.016" fill="#ffbd8b"/><path d="M2343.161,2608.27l-4.327,7.238h0l-2.7,4.515a3.8,3.8,0,0,1-1.614,1.476l-13.243,6.384-1.057-3.916-.919-3.4,12.589-3.879,7.9-10.1Z" fill="#2ed4e2"/><g opacity="0.31" style="mix-blend-mode:multiply;isolation:isolate"><path d="M2338.834,2615.434l-2.7,4.516a3.8,3.8,0,0,1-1.614,1.475l-13.243,6.384-1.057-3.916C2328,2623.6,2335.879,2620.354,2338.834,2615.434Z" fill="#2c4e8e"/></g><path d="M2303.882,2644.3c2.819,4.36-.022,2.127-.022,2.127-.2,3.873-3.927,3.572-2.416-2.548" fill="#ffbd8b"/><path d="M2318.357,2697.65a7.78,7.78,0,0,1-2.047-2.126v2.519h-.945s-.788-6.456-.788-7.086.788-.788.788-.788l-.043-.351-.43-3.507,3.623-.236-.709,4.252s1.653,3.149,2.362,3.622a1.434,1.434,0,0,0,.84.217c.381,0,.706-.039.892.334C2322.215,2695.13,2320.247,2698.122,2318.357,2697.65Z" fill="#364085"/><path d="M2321.008,2694.166c-3.079,1.4-4.767-1.294-5.686-4.348l-.43-3.507,3.623-.236-.709,4.252s1.653,3.149,2.362,3.622A1.434,1.434,0,0,0,2321.008,2694.166Z" fill="#ffbd8b"/><path d="M2308.019,2689.326c-.006.7-3.12,2.474-4.588,1.194a7.791,7.791,0,0,1-.856-2.825l-1.146,2.244-.842-.429s2.235-6.109,2.521-6.67,1.06-.343,1.06-.343l0-.011.117-.322,1.212-3.319,3.334,1.437-2.565,3.465s.014,1.207.108,2.362a6.377,6.377,0,0,0,.349,1.938,1.431,1.431,0,0,0,.649.575C2307.714,2688.8,2308.023,2688.909,2308.019,2689.326Z" fill="#ffbd8b"/><path d="M2309.1,2638.141c-3.544,5.433.551,21.969.551,21.969s-4.095,11.89-5.04,19.922l3.544,1.653s10.63-18.189,10.394-21.024-4.646-22.52-4.646-22.52Z" fill="#e26f88"/><path d="M2321.9,2643.554a111.04,111.04,0,0,1,0,23.859l-2.677,19.764-5.118-.472.866-19.844s-3.622-12.52-4.173-15.118a71.827,71.827,0,0,1-.709-8.741" fill="#f8778d"/><path d="M2308.616,2617.4c-6.559,2.536-7.5,16.316-8.212,27.1a16.026,16.026,0,0,0,4.094,0l.945-8.819s3.071-6.3,4.646-10.551" fill="#2ed4e2"/><path d="M2322.112,2643.7a5.158,5.158,0,0,1-.054,1.269c-7.166,3.15-14.8.472-14.567-2.2,1.181-4.882,1.5-8.9,0-11.5a15.534,15.534,0,0,1-1.849-4.7,10.5,10.5,0,0,1,1.849-8.375c1.417-1.417,2.992-1.5,7.48,0,5.917,1.973,7.874,3.308,7.874,6.694,0,1.338-.157,8.11-1.023,10.551C2321.111,2637.447,2321.992,2641.363,2322.112,2643.7Z" fill="#2ed4e2"/><g opacity="0.31" style="mix-blend-mode:multiply;isolation:isolate"><path d="M2322.058,2644.971c-7.166,3.15-14.8.472-14.567-2.2,1.181-4.882,1.5-8.9,0-11.5a15.534,15.534,0,0,1-1.849-4.7c1.648,3.641,4,5.1,7.833,11.862,2.458,4.334,5.686,5.453,8.637,5.267A5.158,5.158,0,0,1,2322.058,2644.971Z" fill="#2c4e8e"/></g><path d="M2308.019,2689.326c-.006.7-3.12,2.474-4.588,1.194a7.791,7.791,0,0,1-.856-2.825l-1.146,2.244-.842-.429s2.235-6.109,2.521-6.67,1.06-.343,1.06-.343l0-.011c.937.744,1.342,2.649,2.206,3.623a6.377,6.377,0,0,0,.349,1.938,1.431,1.431,0,0,0,.649.575C2307.714,2688.8,2308.023,2688.909,2308.019,2689.326Z" fill="#364085"/><path d="M2317.465,2619.745s-5.092,2.387-5.092-1.432v-3.5a7.15,7.15,0,0,1-2.547-6.366c.478-4.138,7.162-7.162,10.345-3.183,1.751,2.546,1.365,10,.8,11.14-.8,1.592-3.661.159-3.661.159Z" fill="#ffbd8b"/><path d="M2318.1,2611.31c0-1.591,2.546-2.546,3.342-3.979a4.474,4.474,0,0,0,.413-1.128,3.026,3.026,0,0,0-.411-2.343,3.2,3.2,0,0,0-1.175-1.084c-.037-.02-.07-.04-.1-.06-.478-.318-7.162-3.342-10.345,3.024-3.183,3.024-.477,7.957,2.547,9.072,0,1.591,4.3,1.114,4.456,0A19.052,19.052,0,0,1,2318.1,2611.31Z" fill="#0f183f"/><path d="M2317.274,2616.578l.086,1.728a4.02,4.02,0,0,1-1.672-2.79,15.958,15.958,0,0,0,1.885,1.2C2317.387,2616.635,2317.274,2616.578,2317.274,2616.578Z" fill="#ffbd8b" style="mix-blend-mode:multiply;isolation:isolate"/><circle cx="2.615" cy="2.615" r="2.615" transform="translate(2308.291 2605.802)" fill="#fbb40a"/><path d="M2311.291,2605.6a1.821,1.821,0,0,0-3.054-1.916,1.65,1.65,0,0,0-2.889,1.092,1.7,1.7,0,0,0,.022.261,2.882,2.882,0,0,0-1.865,5.451,1.73,1.73,0,0,0-.021.261,1.779,1.779,0,0,0,3.461.578,3.6,3.6,0,0,0,4.346-5.727Z" fill="#0f183f"/><circle cx="1.461" cy="1.461" r="1.461" transform="translate(2316.127 2609.926)" fill="#0f183f"/><circle cx="1.461" cy="1.461" r="1.461" transform="translate(2316.127 2610.449)" fill="#ffbd8b"/><path d="M2452.851,2643.074V2664.4l-1.967,1.261-.1.067-1.966-1.136v-19.135l2.06-1.215Z" fill="#a067f4"/><path d="M2452.851,2643.074l-1.977,1.166-2.06,1.215-41.132-23.772v-2.218l.183-.094,2.026-1.037Z" fill="#fb79c3"/><path d="M2450.884,2644.246v21.541l-.1-.06-1.966-1.136-41.132-23.784v-21.541l.183.106,43.009,24.869Z" fill="#fb95e1"/><path d="M2412.707,2632.879l-.183-.105v2.484l.183.105L2446,2654.613v-2.484Z" fill="#fff"/><path d="M2412.524,2637.639v2.485l.183.105L2446,2659.478v-2.484l-33.289-19.249Z" fill="#fff"/><path d="M2436.144,2639.5l-13.768-7.961v2.484l13.768,7.961Z" fill="#fff"/></g></svg>