<svg xmlns="http://www.w3.org/2000/svg" width="295" height="262" viewBox="0 0 295 262"><g transform="translate(-3749.553 -2527.102)"><rect width="295" height="262" transform="translate(3749.553 2527.102)" fill="#f0e8fc"/><rect width="294" height="261" transform="translate(3750.053 2527.602)" fill="#f0e8fc"/><path d="M4044.553,2788.6v-93.578l-132.664-79.235-161.336,99.746V2788.6Z" fill="#caccf9"/><path d="M4002.779,2697.917l-116.185,67.042-95.267-55.364,115.73-67.414Z" fill="#babbf3"/><path d="M4002.779,2686.4l-116.185,67.414-95.143-55.24-.034-2.742,115.64-64.8,95.721,52.779Z" fill="#6a3782"/><path d="M4002.779,2683.793l-116.185,67.414-95.267-55.364,115.73-67.414Z" fill="#fff"/><path d="M4002.779,2683.917l-116.185,67.414-95.267-55.364,115.73-67.414Z" fill="#fff"/><path d="M3881.984,2646.687l3.26,2.261,4.383-10.241" fill="none" stroke="#fff" stroke-miterlimit="10" stroke-width="1"/><path d="M3912.87,2671.921v.869a3,3,0,0,0,1.5,2.593h0a3,3,0,0,0,4.5-2.6v-.868a3,3,0,0,0-1.492-2.592h0A3,3,0,0,0,3912.87,2671.921Z" fill="#fff"/><ellipse cx="13.628" cy="7.936" rx="13.628" ry="7.936" transform="translate(3865.842 2697.339)" fill="#babbf3"/><path d="M3949.721,2697.637a7.819,7.819,0,0,1-3.907-.942l-47.45-27a4.136,4.136,0,0,1-2.242-3.571,4.807,4.807,0,0,1,2.7-4.054l15.526-8.736a9.626,9.626,0,0,1,4.744-1.206,7.827,7.827,0,0,1,3.907.942l47.45,27a4.134,4.134,0,0,1,2.242,3.571,4.808,4.808,0,0,1-2.7,4.053l-15.527,8.736A9.616,9.616,0,0,1,3949.721,2697.637Z" fill="#debceb" opacity="0.5"/><path d="M3947.75,2694.184l-41.2-23.786c-4.647-2.683-8.415-9.881-8.415-16.078v-99.294c0-3.151-2.59-3.847-1.021-4.979.06-.043,3.678-1.687,3.746-1.713a6.077,6.077,0,0,1,5.69.331l41.2,23.786c4.648,2.683,8.415,9.882,8.415,16.078v99.294c0,3.292-1.064,5.639-2.758,6.713-.1.064-4.459,2.137-4.571,2.174C3947.334,2697.211,3949.782,2695.357,3947.75,2694.184Z" fill="#ada2e5"/><path d="M3943.817,2696.043l-41.2-23.786c-4.648-2.683-8.415-9.881-8.415-16.077v-99.294c0-6.2,3.767-9.045,8.415-6.361l41.2,23.786c4.648,2.683,8.415,9.881,8.415,16.077v99.294C3952.232,2695.878,3948.465,2698.726,3943.817,2696.043Z" fill="#e0dcff"/><path d="M3895.352,2656.91v-99.429c0-5.432,3.3-7.929,7.376-5.577l40.98,23.66c4.074,2.352,7.376,8.662,7.376,14.094v99.429c0,5.432-3.3,7.928-7.376,5.576L3902.728,2671C3898.654,2668.651,3895.352,2662.341,3895.352,2656.91Z" fill="#bebef4"/><path d="M3896.991,2657.578V2563.6c0-4.546,2.764-6.636,6.174-4.668l40.106,23.156c3.41,1.968,6.174,7.25,6.174,11.8v93.98c0,4.547-2.764,6.637-6.174,4.668l-40.106-23.155C3899.755,2667.406,3896.991,2662.124,3896.991,2657.578Z" fill="#7b65ab"/><path d="M3925.576,2665.991l-13.2-7.621a6.846,6.846,0,0,1-3.423-5.928v-6.309a2.536,2.536,0,0,1,3.8-2.2l13.2,7.621a6.845,6.845,0,0,1,3.423,5.928v6.309A2.536,2.536,0,0,1,3925.576,2665.991Z" fill="#c39bd1"/><path d="M3922.328,2653.906l-6.655-3.842-.409-1.559a.873.873,0,0,0-.369-.512l-2.069-1.195c-.217-.125-.392-.025-.392.224a.863.863,0,0,0,.392.676l1.792,1.035,2.274,8.665a.875.875,0,0,0,.37.512l.567.327c-.3.195-.292.767.018,1.3s.831.843,1.148.662.314-.744.018-1.28l1.246.719c-.3.194-.292.767.018,1.3s.831.843,1.147.662.315-.744.019-1.28l.212.123c.217.125.392.025.392-.224a.861.861,0,0,0-.392-.676l-4.116-2.377-.439-1.67,4.772,2.755c.447.258.833.123.926-.324l.456-2.176A2,2,0,0,0,3922.328,2653.906Z" fill="#fff"/><path d="M3934.4,2652.25,3907,2636.437v-35.274l27.39,15.814Z" fill="#fff"/><path d="M3929.382,2620.7a17.39,17.39,0,0,0-4.943-4.884c0,.027.005.056.005.083,0,1.452-1.676,1.661-3.744.467s-3.745-3.339-3.745-4.791c0-.027,0-.05.006-.076-1.224-.655-3.279-1.376-4.944-.825-1.773.588-2.143,7.667-2.143,7.667l3.51,3.271v14.272l14.631,8.448v-14.273l3.51.782S3931.156,2623.331,3929.382,2620.7Z" fill="#2ed4e2"/><path d="M3888.233,2579.621l-7.259-4.191,15.84-16.518a4.85,4.85,0,0,1,5.925-.843l3.966,2.29Z" fill="#f17781"/><path d="M3895.43,2583.776l-7.26-4.191,18.472-19.262,7.259,4.191Z" fill="#fff"/><path d="M3902.689,2587.968l-7.259-4.191,18.472-19.262,7.259,4.191Z" fill="#f17781"/><path d="M3909.886,2592.123l-7.259-4.191,18.472-19.262,7.259,4.191Z" fill="#fff"/><path d="M3917.133,2596.307l-7.259-4.191,18.472-19.262,7.26,4.191Z" fill="#f17781"/><path d="M3924.33,2600.462l-7.259-4.191,18.472-19.262,7.26,4.191Z" fill="#fff"/><path d="M3931.526,2604.617l17.241-17.979a11.423,11.423,0,0,0-2.873-3.653l-3.155-1.821-18.472,19.262Z" fill="#f17781"/><path d="M3884.6,2584.851h0c-2-1.158-3.629-4.263-3.629-6.936v-2.557l7.259,4.192v2.557C3888.233,2584.779,3886.608,2586.008,3884.6,2584.851Z" fill="#c65260"/><path d="M3891.8,2589.006h0c-2.005-1.158-3.63-4.263-3.63-6.936v-2.557l7.26,4.192v2.557C3895.43,2588.934,3893.8,2590.163,3891.8,2589.006Z" fill="#eadcf2"/><path d="M3899.059,2593.2h0c-2-1.158-3.629-4.263-3.629-6.935v-2.557l7.259,4.191v2.557C3902.689,2593.126,3901.064,2594.354,3899.059,2593.2Z" fill="#c65260"/><path d="M3906.256,2597.352h0c-2-1.158-3.629-4.263-3.629-6.935v-2.557l7.259,4.191v2.557C3909.886,2597.281,3908.261,2598.509,3906.256,2597.352Z" fill="#eadcf2"/><path d="M3913.5,2601.536h0c-2-1.158-3.63-4.263-3.63-6.935v-2.557l7.26,4.191v2.557C3917.133,2601.465,3915.508,2602.693,3913.5,2601.536Z" fill="#c65260"/><path d="M3920.7,2605.691h0c-2-1.158-3.63-4.262-3.63-6.935V2596.2l7.26,4.191v2.557C3924.33,2605.62,3922.705,2606.848,3920.7,2605.691Z" fill="#eadcf2"/><path d="M3927.9,2609.846h0c-2-1.157-3.63-4.262-3.63-6.935v-2.557l7.259,4.191v2.557C3931.526,2609.775,3929.9,2611,3927.9,2609.846Z" fill="#c65260"/><path d="M3931.526,2607.1l18.442-9.609c0-2.793.006-5.649.006-5.772a11.343,11.343,0,0,0-1.208-5.086l-17.24,17.91Z" fill="#c65260"/><path d="M3893.466,2666.012c4.183,2.439.878,1.779.878,1.779,1.469,3.3-1.762,4.626-3.084-1.1" fill="#ffbd8b"/><path d="M3871.962,2660.847c2.628,4.066-.021,1.984-.021,1.984-.183,3.611-3.662,3.33-2.253-2.377" fill="#ffbd8b"/><path d="M3885.46,2710.6a7.251,7.251,0,0,1-1.91-1.983v2.35h-.881s-.734-6.021-.734-6.609.734-.734.734-.734l-.04-.327-.4-3.271,3.377-.22-.66,3.965s1.542,2.937,2.2,3.378a1.34,1.34,0,0,0,.783.2c.356,0,.659-.036.833.312C3889.058,2708.25,3887.222,2711.04,3885.46,2710.6Z" fill="#362e69"/><path d="M3887.931,2707.351c-2.87,1.31-4.445-1.206-5.3-4.054l-.4-3.271,3.377-.22-.66,3.965s1.542,2.937,2.2,3.378A1.34,1.34,0,0,0,3887.931,2707.351Z" fill="#ffbd8b"/><path d="M3875.575,2702.989c-.006.657-2.91,2.307-4.278,1.113a7.238,7.238,0,0,1-.8-2.634l-1.069,2.093-.785-.4s2.084-5.7,2.351-6.22.988-.32.988-.32l0-.011.109-.3,1.13-3.095,3.109,1.34-2.391,3.231s.012,1.125.1,2.2a5.938,5.938,0,0,0,.326,1.808,1.336,1.336,0,0,0,.6.536C3875.29,2702.5,3875.578,2702.6,3875.575,2702.989Z" fill="#ffbd8b"/><path d="M3876.761,2655.432c-3.3,5.067.514,20.487.514,20.487s-3.818,11.088-4.7,18.577l3.3,1.542s9.913-16.962,9.693-19.6-4.333-21-4.333-21Z" fill="#2b275a"/><path d="M3888.764,2660.154a103.582,103.582,0,0,1,0,22.249l-2.5,18.431-4.773-.441.808-18.5s-3.378-11.675-3.892-14.1a66.957,66.957,0,0,1-.661-8.151" fill="#362e69"/><path d="M3876.376,2635.76c-6.116,2.365-7,15.215-7.658,25.275a14.921,14.921,0,0,0,3.818,0l.881-8.224s2.864-5.874,4.332-9.84" fill="#f17781"/><path d="M3888.961,2660.293a4.757,4.757,0,0,1-.05,1.183c-6.682,2.937-13.8.44-13.585-2.056,1.1-4.553,1.4-8.3,0-10.721a14.5,14.5,0,0,1-1.723-4.379,9.788,9.788,0,0,1,1.723-7.81c1.322-1.322,2.791-1.4,6.976,0,5.518,1.839,7.343,3.084,7.343,6.241,0,1.248-.147,7.563-.955,9.84C3888.027,2654.459,3888.849,2658.111,3888.961,2660.293Z" fill="#f17781"/><g opacity="0.32" style="mix-blend-mode:multiply;isolation:isolate"><path d="M3888.911,2661.476c-6.682,2.937-13.8.44-13.585-2.056,1.1-4.553,1.4-8.3,0-10.721a14.5,14.5,0,0,1-1.723-4.379c1.536,3.394,3.726,4.752,7.3,11.061,2.292,4.042,5.3,5.085,8.054,4.912A4.757,4.757,0,0,1,3888.911,2661.476Z" fill="#7b66a9"/></g><path d="M3894.051,2666.322l-.118.065-2.526,1.4s-3.671-8.445-4.185-9.62-.955-9.692-.955-9.692-.212-5.077.96-7.454c.358-.727.846-1.2,1.507-1.2,4.436-.008,2.894,16.807,2.894,16.807Z" fill="#f17781"/><g opacity="0.32" style="mix-blend-mode:multiply;isolation:isolate"><path d="M3893.933,2666.387l-2.526,1.4s-3.671-8.445-4.185-9.62-.955-9.692-.955-9.692-.212-5.077.96-7.454C3885.65,2655.863,3890.343,2663.685,3893.933,2666.387Z" fill="#7b66a9"/></g><path d="M3875.575,2702.989c-.006.657-2.91,2.307-4.278,1.113a7.238,7.238,0,0,1-.8-2.634l-1.069,2.093-.785-.4s2.084-5.7,2.351-6.22.988-.32.988-.32l0-.011c.874.694,1.252,2.471,2.057,3.379a5.938,5.938,0,0,0,.326,1.808,1.336,1.336,0,0,0,.6.536C3875.29,2702.5,3875.578,2702.6,3875.575,2702.989Z" fill="#2b275a"/><path d="M3884.628,2637.952s-4.749,2.226-4.749-1.336v-3.265a6.664,6.664,0,0,1-2.375-5.936c.446-3.859,6.679-6.679,9.647-2.968,1.633,2.374,1.273,9.326.742,10.388-.742,1.484-3.413.149-3.413.149Z" fill="#ffbd8b"/><path d="M3885.222,2630.086c0-1.484,2.374-2.374,3.116-3.71a4.118,4.118,0,0,0,.385-1.053,2.82,2.82,0,0,0-.383-2.185,2.993,2.993,0,0,0-1.1-1.01c-.034-.019-.065-.037-.093-.056-.445-.3-6.678-3.117-9.647,2.82-2.968,2.82-.445,7.42,2.375,8.459,0,1.484,4.007,1.039,4.155,0A17.834,17.834,0,0,1,3885.222,2630.086Z" fill="#362e69"/><circle cx="2.439" cy="2.439" r="2.439" transform="translate(3877.59 2623.631)" fill="#e65c9a"/><path d="M3880.95,2626.393a5.694,5.694,0,0,0-5.013-2.6c-3.1.161-5.342,2.907-5.721,6.145a7.59,7.59,0,0,0,.308,3.26c1.868,5.648.349,7.5.349,7.5,4.567.489,10.336-2.056,11.459-7.324A9.151,9.151,0,0,0,3880.95,2626.393Z" fill="#433f82"/><circle cx="1.363" cy="1.363" r="1.363" transform="matrix(0.207, -0.978, 0.978, 0.207, 3883.128, 2631.867)" fill="#362e69"/><circle cx="1.363" cy="1.363" r="1.363" transform="translate(3883.381 2629.942)" fill="#ffbd8b"/><path d="M3911.327,2697.595l-2.277,1.087,28.278,16.439,2.285-1.082Z" fill="#f3ab45"/><path d="M3937.337,2728.824V2715.1l-28.291-16.521V2712.3Z" fill="#ffd47c"/><path d="M3920.186,2708.7v2.414l14.145,8.26v-2.414Z" fill="#fff"/><path d="M3920.186,2715.605l14.145,8.26v-2.414l-14.145-8.26Z" fill="#fff"/><ellipse cx="3.299" cy="5.714" rx="3.299" ry="5.714" transform="translate(3908.755 2705.586) rotate(-30.311)" fill="#fff"/><path d="M3937.311,2715.1v13.728l2.279-1.538v-13.272Z" fill="#d89341"/><ellipse cx="8.549" cy="5.305" rx="8.549" ry="5.305" transform="translate(3831.631 2695.593)" fill="#e8eaf7"/><path d="M3847.493,2682.553l-1.577,11.691-.018.138-.016.112-1.045,7.741-.194,1.436,0,.027,0,.038h-.069a13.247,13.247,0,0,1-15.866,0h-.05l0-.046-.013-.112-.015-.129-1.045-8.969-.018-.144,0-.049-1.368-11.734Z" fill="#f8778d"/><ellipse cx="10.657" cy="7.936" rx="10.657" ry="7.936" transform="translate(3826.181 2674.609)" fill="#f4bbc4"/><ellipse cx="8.227" cy="6.127" rx="8.227" ry="6.127" transform="translate(3828.766 2675.928)" fill="#364085"/><path d="M3836.51,2679.136c4.084,0,7.473,2.217,8.116,5.123a4.778,4.778,0,0,0,.6-2.295c0-3.383-3.683-6.126-8.227-6.126s-8.228,2.743-8.228,6.126a4.66,4.66,0,0,0,.111,1C3830.1,2680.722,3833.055,2679.136,3836.51,2679.136Z" fill="#4346a3"/><path d="M3867.268,2671.089a20.74,20.74,0,0,0-7.883-8.192l-1.663,1.284.809-1.728a18.2,18.2,0,0,0-14.283-.487l-.718,1.838-.5-1.34c-7.333,3.277-11.647,10.538-5.9,15.658l.372,0a11.616,11.616,0,0,0,8.888-2.068l-2.164-.636,3.315-.148c3.821-2.713,7.49-6.153,14.352-5.434l-.837-1.326,2.1,1.5A26.317,26.317,0,0,1,3867.268,2671.089Z" fill="#3cebce"/><path d="M3836.5,2682.644h-.008a.125.125,0,0,1-.118-.132c.372-6.283,2.485-10.884,6.28-13.675,6.487-4.77,15.762-2.539,15.855-2.516a.126.126,0,0,1-.06.244c-.092-.023-9.257-2.225-15.647,2.475-3.732,2.745-5.81,7.282-6.177,13.486A.126.126,0,0,1,3836.5,2682.644Z" fill="#364085"/><path d="M3830.248,2665.356l-.5,1.122-.286-1.712a14.7,14.7,0,0,0-11.258-2.291l.865,1.778-1.939-1.5a11.349,11.349,0,0,0-8,9.359,32.284,32.284,0,0,0,4.623,2.05l3.238-1.012-1.754,1.5a44.076,44.076,0,0,0,10.164,1.775l5.086-1.795-2.641,1.886a45.224,45.224,0,0,0,7.338-.442A13.294,13.294,0,0,0,3830.248,2665.356Z" fill="#2ed4e2"/><path d="M3836.863,2681.754a.148.148,0,0,1-.145-.119c-1.3-6.45-4-10.691-8.04-12.607-6.461-3.066-14.211.951-14.289.992a.148.148,0,1,1-.138-.262c.079-.042,7.956-4.128,14.552-1,4.127,1.958,6.887,6.27,8.206,12.817a.149.149,0,0,1-.116.175Z" fill="#364085"/><path d="M3847.827,2675.031l-.2.886.933-.881a10.868,10.868,0,0,1,7.654,3.685l-1.3.66,1.812-.016a8.391,8.391,0,0,1,.525,9.087,23.8,23.8,0,0,1-3.638-.859l-1.455-2.044.361,1.669a32.527,32.527,0,0,1-6.779-3.5l-2.192-3.332.712,2.292a33.344,33.344,0,0,1-4.123-3.541A9.826,9.826,0,0,1,3847.827,2675.031Z" fill="#2ed4e2"/><path d="M3836.6,2681.729a.109.109,0,0,0,.138,0c3.649-3.217,7.138-4.505,10.372-3.829,5.175,1.083,7.943,6.914,7.97,6.973a.11.11,0,0,0,.146.053.111.111,0,0,0,.053-.146c-.028-.059-2.84-5.987-8.123-7.094-3.3-.692-6.859.613-10.563,3.879a.109.109,0,0,0-.009.154Z" fill="#364085"/><path d="M3824.377,2679.151l.518.747-1.193-.473a10.861,10.861,0,0,0-5.748,6.254l1.456.131-1.689.656a8.392,8.392,0,0,0,2.872,8.637,23.769,23.769,0,0,0,3.063-2.144l.595-2.437.283,1.684a32.509,32.509,0,0,0,5-5.758l.8-3.905.186,2.392a33.4,33.4,0,0,0,2.521-4.815A9.826,9.826,0,0,0,3824.377,2679.151Z" fill="#3cebce"/><path d="M3837.285,2681.223a.11.11,0,0,1-.131.046c-4.579-1.64-8.3-1.546-11.052.278-4.407,2.92-4.823,9.361-4.826,9.426a.11.11,0,1,1-.219-.013c0-.065.424-6.613,4.923-9.595,2.815-1.865,6.6-1.967,11.248-.3a.11.11,0,0,1,.067.14Z" fill="#364085"/><path d="M3834.491,2688.131l-1.522,1.015a11.852,11.852,0,0,0,.526,6.561l1.737-1.2-1.253,2.338a19.32,19.32,0,0,0,5.109,6.264,34.948,34.948,0,0,0,3.413-6.061l-1.04-1.651,1.491.417c.971-3.022,1-6.262-1.365-9.24l-2.054-.669s.6-.091,1.294-.19a17.482,17.482,0,0,0-4.511-3.222,14.739,14.739,0,0,0-3.118,5.7Z" fill="#3cebce"/><path d="M3838.94,2695.547h-.016a.149.149,0,0,1-.132-.163c.494-4.69-1.544-10.029-2.761-13.218-.794-2.081-1.031-2.749-.723-2.958.215-.146.557.045,1.3.732a.148.148,0,1,1-.2.218c-.651-.6-.87-.687-.933-.7a10.945,10.945,0,0,0,.83,2.6c1.227,3.214,3.28,8.594,2.779,13.355A.148.148,0,0,1,3838.94,2695.547Z" fill="#364085"/><path d="M3951.945,2688.167v19.279l-1.778,1.14-.094.061-1.777-1.028v-17.3l1.862-1.1Z" fill="#fb95e1"/><path d="M3951.945,2688.167l-1.788,1.054-1.862,1.1-37.187-21.491v-2.006l.166-.085,1.832-.938Z" fill="#f4bbc4"/><path d="M3950.166,2689.226V2708.7l-.094-.054-1.777-1.028-37.187-21.5v-19.475l.166.1,38.883,22.484Z" fill="#f8778d"/><path d="M3915.652,2678.95l-.166-.1v2.246l.166.1,30.1,17.4v-2.246Z" fill="#fff"/><path d="M3915.486,2683.253v2.246l.166.1,30.1,17.4v-2.246l-30.1-17.4Z" fill="#fff"/><path d="M3936.84,2684.932l-12.447-7.2v2.246l12.447,7.2Z" fill="#fff"/></g></svg>