<svg xmlns="http://www.w3.org/2000/svg" width="295" height="262" viewBox="0 0 295 262"><g transform="translate(-3327.666 -2527.102)"><rect width="295" height="262" transform="translate(3327.666 2527.102)" fill="#f0e8fc"/><rect width="294" height="261" transform="translate(3328.166 2527.602)" fill="#f0e8fc"/><path d="M3622.666,2788.6v-93.578L3490,2615.79l-161.336,99.746V2788.6Z" fill="#caccf9"/><path d="M3580.892,2697.917l-116.185,67.042-95.267-55.364,115.73-67.414Z" fill="#babbf3"/><path d="M3580.892,2686.4l-116.185,67.414-95.143-55.24-.034-2.742,115.64-64.8,95.721,52.779Z" fill="#6a3782"/><path d="M3580.892,2683.793l-116.185,67.414-95.267-55.364,115.73-67.414Z" fill="#fff"/><path d="M3580.892,2683.917l-116.185,67.414-95.267-55.364,115.73-67.414Z" fill="#fff"/><path d="M3460.1,2646.687l3.26,2.261,4.383-10.241" fill="none" stroke="#fff" stroke-miterlimit="10" stroke-width="1"/><path d="M3486.694,2554.76v67.429l44.6,25.623v-67.263Z" fill="#91dafb"/><path d="M3489.484,2588.044v8.266l38.449,22.232v-8.266Z" fill="#fff"/><path d="M3489.484,2608.02l38.449,22.232v-8.266l-38.449-22.232Z" fill="#fff"/><path d="M3489.484,2619.73l38.449,22.232V2633.7l-38.449-22.232Z" fill="#fff"/><path d="M3508.722,2578.274l-19.238-11.124v8.266l19.238,11.124Z" fill="#fff"/><path d="M3531.224,2580.467l2.985-1.837-44.314-25.945-3.214,2.066Z" fill="#4d86ed"/><path d="M3531.224,2580.467v67.5l2.526-1.837.459-67.5Z" fill="#4d86ed"/><path d="M3569.484,2618.061v24.668l-2.275,1.458-.121.078-2.274-1.315v-22.136l2.383-1.406Z" fill="#a067f4"/><path d="M3569.484,2618.061l-2.287,1.348-2.383,1.406-47.582-27.5v-2.566l.212-.109,2.344-1.2Z" fill="#fb79c3"/><path d="M3567.208,2619.416v24.919l-.121-.07-2.274-1.315-47.582-27.514v-24.919l.212.122,49.752,28.769Z" fill="#f8778d"/><path d="M3523.046,2606.268l-.212-.122v2.874l.212.122,38.508,22.267v-2.874Z" fill="#fff"/><path d="M3522.834,2611.774v2.874l.212.122,38.508,22.267v-2.874l-38.508-22.267Z" fill="#fff"/><path d="M3550.157,2613.921l-15.927-9.209v2.874l15.927,9.209Z" fill="#fff"/><path d="M3500.126,2623.251v14.923l-1.376.882-.073.047-1.376-.8v-13.391l1.442-.851Z" fill="#a067f4"/><path d="M3500.126,2623.251l-1.384.816-1.442.851-28.784-16.635v-1.552l.128-.066,1.418-.726Z" fill="#fb79c3"/><path d="M3498.75,2624.071v15.074l-.073-.042-1.376-.8-28.784-16.644v-15.074l.128.074,30.1,17.4Z" fill="#f8778d"/><path d="M3472.034,2616.117l-.128-.074v1.739l.128.074,23.3,13.47v-1.739Z" fill="#fff"/><path d="M3471.906,2619.448v1.739l.128.074,23.3,13.47v-1.739l-23.3-13.47Z" fill="#fff"/><path d="M3488.435,2620.747l-9.635-5.571v1.739l9.635,5.571Z" fill="#fff"/><path d="M3544.956,2698.266l-43.441,25.353-72.439-41.579,12.876-7.521,30.565-17.854,50.969,29.27Z" fill="#e8eaf7"/><path d="M3544.956,2681.008v5.586l-43.441,25.353-72.439-41.579v-5.587l12.876-7.52,30.565-12.267,50.969,23.684Z" fill="#4346a3"/><path d="M3544.956,2681.008l-43.441,25.353-72.439-41.579,12.876-7.52,30.565-17.854,50.969,29.27Z" fill="#4346a3"/><path d="M3463.964,2650.648l-2.667-1.532-8.26,4.825,2.667,1.532Z" fill="#fff"/><path d="M3451.948,2654.576l-3.8,2.219,2.667,1.532,3.8-2.219Z" fill="#fff"/><path d="M3531.678,2677.593l-53.471-30.707-36.554,21.333,53.5,30.708Z" fill="#fff"/><path d="M3526.206,2677.023l-46.97-26.973-32.109,18.74,46.995,26.974Z" fill="#e8eaf7"/><path d="M3544.956,2681.05v5.545l-43.441,25.353V2706.6Z" fill="#364085"/><ellipse cx="4.421" cy="1.839" rx="4.421" ry="1.839" transform="translate(3516.029 2688.423)" fill="#fff"/><path d="M3469.583,2626.514c4.093,3.547.6,2.137.6,2.137.931,3.936-2.894,4.721-3.163-1.848" fill="#ffbd8b"/><path d="M3466.489,2598.192c-5.83,4.45-2.763,18.527-.331,29.537a16.722,16.722,0,0,0,4.1-1.192l-1.622-9.108s1.241-7.2,1.58-11.921" fill="#2ed4e2"/><path d="M3470.34,2675.415a8.417,8.417,0,0,1-1.973-2.516l-.277,2.715-1.018-.1s-.138-7.044-.069-7.723.935-.762.935-.762l-.008-.383-.076-3.827,3.929.144-1.232,4.5s1.436,3.576,2.147,4.163a1.562,1.562,0,0,0,.881.327c.411.044.766.035.926.458C3474.775,2673.124,3472.324,2676.132,3470.34,2675.415Z" fill="#364085"/><path d="M3473.579,2671.953c-3.471,1.174-4.994-1.919-5.649-5.311l-.076-3.827,3.929.144-1.232,4.5s1.436,3.576,2.147,4.163A1.562,1.562,0,0,0,3473.579,2671.953Z" fill="#ffbd8b"/><path d="M3478.427,2618.585l-10.921-1.2a119.58,119.58,0,0,0-.039,25.981c-1.207,6.574-.863,21.5-.863,21.5l5.9.554,2.95-21.4A219.533,219.533,0,0,0,3478.427,2618.585Z" fill="#e26f88"/><path d="M3482.2,2678.485a8.422,8.422,0,0,1-2.32-2.2l.124,2.727-1.022.046s-1.169-6.948-1.2-7.63.813-.89.813-.89l-.064-.378-.637-3.774,3.908-.434-.558,4.636s1.944,3.327,2.734,3.8a1.565,1.565,0,0,0,.919.194c.413-.016.763-.078.983.317C3486.247,2675.569,3484.263,2678.9,3482.2,2678.485Z" fill="#364085"/><path d="M3484.892,2674.586c-3.262,1.67-5.221-1.166-6.366-4.426l-.637-3.774,3.908-.434-.558,4.636s1.944,3.327,2.734,3.8A1.565,1.565,0,0,0,3484.892,2674.586Z" fill="#ffbd8b"/><path d="M3481.326,2620.331l-10.971.582a119.593,119.593,0,0,0,4.152,25.647c-.13,6.683,2.617,21.361,2.617,21.361l5.913-.4-.541-21.6A219.16,219.16,0,0,0,3481.326,2620.331Z" fill="#f8778d"/><path d="M3503.316,2603.55c10.261-4.126,4.007-.078,4.007-.078,2.317,1.49-.51,3.794-3.1,2.836Z" fill="#ffbd8b"/><path d="M3505.637,2606.72l-8.451,2.436h0l-5.273,1.52a3.961,3.961,0,0,1-2.28-.024l-14.639-4.563,1.982-3.738,1.722-3.247,12.357,6.006,13.216-2.07Z" fill="#2ed4e2"/><g opacity="0.31" style="mix-blend-mode:multiply;isolation:isolate"><path d="M3497.238,2609.1l-5.273,1.521a3.971,3.971,0,0,1-2.28-.025l-14.639-4.563,1.982-3.738C3483.161,2607.609,3491.483,2610.745,3497.238,2609.1Z" fill="#2c4e8e"/></g><path d="M3481.774,2624.254a5.323,5.323,0,0,1-.056,1.324c-7.474,3.285-15.441.492-15.194-2.3,1.232-5.092,1.56-9.281,0-11.991a16.2,16.2,0,0,1-1.928-4.9,10.947,10.947,0,0,1,1.928-8.736c1.478-1.478,3.121-1.56,7.8,0,6.171,2.058,8.213,3.45,8.213,6.981,0,1.4-.164,8.46-1.068,11.006C3480.73,2617.73,3481.649,2621.814,3481.774,2624.254Z" fill="#2ed4e2"/><g opacity="0.31" style="mix-blend-mode:multiply;isolation:isolate"><path d="M3481.718,2625.578c-7.474,3.285-15.441.492-15.194-2.3,1.232-5.092,1.56-9.281,0-11.991a16.2,16.2,0,0,1-1.928-4.9c1.718,3.8,4.167,5.315,8.169,12.372,2.565,4.52,5.931,5.687,9.009,5.493A5.323,5.323,0,0,1,3481.718,2625.578Z" fill="#2c4e8e"/></g><path d="M3476.928,2599.266s-5.312,2.49-5.312-1.494v-3.651a7.454,7.454,0,0,1-2.656-6.64c.5-4.316,7.47-7.47,10.79-3.32,1.825,2.656,1.423,10.432.829,11.619-.829,1.66-3.817.166-3.817.166Z" fill="#ffbd8b"/><path d="M3477.592,2590.469c0-1.66,2.655-2.656,3.485-4.15a4.618,4.618,0,0,0,.431-1.178,3.161,3.161,0,0,0-.428-2.444,3.351,3.351,0,0,0-1.226-1.13c-.038-.021-.073-.041-.1-.062-.5-.332-7.47-3.486-10.79,3.154-3.32,3.154-.5,8.3,2.656,9.462,0,1.659,4.482,1.162,4.648,0A19.9,19.9,0,0,1,3477.592,2590.469Z" fill="#0f183f"/><path d="M3476.728,2595.963l.09,1.8a4.191,4.191,0,0,1-1.744-2.91,16.573,16.573,0,0,0,1.966,1.248C3476.845,2596.022,3476.728,2595.963,3476.728,2595.963Z" fill="#ffbd8b" style="mix-blend-mode:multiply;isolation:isolate"/><circle cx="2.728" cy="2.728" r="2.728" transform="translate(3467.358 2584.723)" fill="#2ed4e2"/><path d="M3470.487,2584.511a1.9,1.9,0,0,0-3.184-2,1.722,1.722,0,0,0-3.014,1.139,1.755,1.755,0,0,0,.023.272,3.005,3.005,0,0,0-1.945,5.686,1.768,1.768,0,0,0-.023.273,1.855,1.855,0,0,0,3.61.6,3.756,3.756,0,0,0,4.533-5.973Z" fill="#0f183f"/><circle cx="1.524" cy="1.524" r="1.524" transform="translate(3475.531 2589.024)" fill="#0f183f"/><circle cx="1.524" cy="1.524" r="1.524" transform="matrix(0.23, -0.973, 0.973, 0.23, 3475.222, 2592.227)" fill="#ffbd8b"/><path d="M3409.709,2666.809l13.94-8.27,14.886,8.27-14.413,8.742Z" fill="#fb79c3"/><path d="M3424.122,2675.552v33.374l14.413-8.8V2666.75Z" fill="#a067f4"/><path d="M3409.709,2666.868v33.552l14.413,8.506v-33.374Z" fill="#f8778d"/><path d="M3431.211,2684.545l11.936-7.081,12.745,7.081-12.341,7.485Z" fill="#fb79c3"/><path d="M3442.259,2706.325l11.936-7.081,12.745,7.081-12.341,7.485Z" fill="#e8eaf7"/><path d="M3443.552,2692.031v28.575l12.341-7.536v-28.576Z" fill="#a067f4"/><path d="M3431.211,2684.6v28.727l12.341,7.283v-28.575Z" fill="#f8778d"/></g></svg>