<svg xmlns="http://www.w3.org/2000/svg" xmlns:xlink="http://www.w3.org/1999/xlink" width="610.021" height="291.568" viewBox="0 0 610.021 291.568"><defs><linearGradient id="a" y1="0.5" x2="1" y2="0.5" gradientUnits="objectBoundingBox"><stop offset="0" stop-color="#bb83ff"/><stop offset="1" stop-color="#f17781"/></linearGradient><linearGradient id="b" x1="0.296" y1="-0.218" x2="1.15" y2="2.793" gradientUnits="objectBoundingBox"><stop offset="0" stop-color="#fff"/><stop offset="1" stop-color="#ccc"/></linearGradient></defs><g transform="translate(-494.989 -939.226)"><path d="M2808.837,363a144.921,144.921,0,0,0-103.089-42.687q-2.621,0-5.228.093a145.4,145.4,0,0,0-72.793,22.432,132.028,132.028,0,0,0-28.189,24.429c-23.943,26.83-40.393,62.923-56.431,98.14-16.44,36.1-33.318,73.157-58.121,99.23a124.556,124.556,0,0,1-23.248,19.252,138.671,138.671,0,0,1-69.443,21.43q-2.416.082-4.839.085a139.326,139.326,0,0,1-127.578-83.3,3.269,3.269,0,0,0-.532-.813,139.319,139.319,0,0,1,217.078-162.239,7.321,7.321,0,1,0,4.319-4.827,145.777,145.777,0,1,0-93.434,257.656q2.614,0,5.217-.092a144.988,144.988,0,0,0,72.8-22.459,128.146,128.146,0,0,0,24.057-19.911c26.224-27.208,43.625-65.421,60.574-102.643,15.649-34.371,31.7-69.6,54.6-95.4a127.964,127.964,0,0,1,26.78-23.069,138.51,138.51,0,0,1,69.409-21.427q2.431-.084,4.872-.085a139.376,139.376,0,0,1,123.1,74.021,3.186,3.186,0,0,0,.522.7,139.311,139.311,0,0,1-204.3,178.015,7.1,7.1,0,0,0,.13-1.285,7.323,7.323,0,1,0-7.323,7.322h0a7.232,7.232,0,0,0,3.332-.836A145.775,145.775,0,0,0,2808.837,363Z" transform="translate(-1746.518 618.918)" fill="url(#a)"/><ellipse cx="88.469" cy="88.47" rx="88.469" ry="88.47" transform="translate(871.563 993.227)" fill="url(#b)"/><path d="M992.777,912.668a88.467,88.467,0,0,1-124.959,124.959A88.467,88.467,0,1,0,992.777,912.668Z" transform="translate(32.822 109.635)" fill="#ccc"/><g transform="translate(-1746.518 619.918)"><text transform="translate(2670.604 506.888)" fill="#636363" font-size="16" font-family="Roboto-Bold, Roboto" font-weight="700" style="isolation:isolate"><tspan x="0" y="0">Contenido</tspan></text></g><g transform="translate(-1746.518 619.918)"><path d="M2672.662,414.678h69.683a6.637,6.637,0,0,1,6.636,6.637v53.091h-82.955V421.315A6.637,6.637,0,0,1,2672.662,414.678Z" fill="#afafaf"/><path d="M2675.98,421.315h63.047a3.318,3.318,0,0,1,3.318,3.318v46.455h-69.683V424.633A3.318,3.318,0,0,1,2675.98,421.315Z" fill="#885cbe"/><path d="M2695.89,391.451h43.137a3.318,3.318,0,0,1,3.318,3.318v3.318H2695.89v-6.636Z" fill="#dadcde"/><path d="M2739.027,391.451h-56.41a3.317,3.317,0,0,0-3.318,3.318v69.683h56.409V394.769A3.318,3.318,0,0,1,2739.027,391.451Z" fill="#e9eef2"/><path d="M2689.253,401.4h16.591v13.273h-16.591Z" fill="#c3c6c7"/><path d="M2695.89,422.974h-3.318a1.659,1.659,0,1,1,0-3.318h3.318a1.659,1.659,0,1,1,0,3.318Z" fill="#dadcde"/><path d="M2725.754,422.974h-23.228a1.659,1.659,0,0,1,0-3.318h23.228a1.659,1.659,0,1,1,0,3.318Z" fill="#dadcde"/><path d="M2702.526,429.61h-13.273a1.659,1.659,0,0,1,0-3.318h13.273a1.659,1.659,0,1,1,0,3.318Z" fill="#dadcde"/><path d="M2702.526,436.247h-13.273a1.659,1.659,0,0,1,0-3.318h13.273a1.659,1.659,0,1,1,0,3.318Z" fill="#dadcde"/><path d="M2725.754,442.883h-36.5a1.659,1.659,0,0,1,0-3.318h36.5a1.659,1.659,0,1,1,0,3.318Z" fill="#dadcde"/><path d="M2692.572,449.52h-3.319a1.66,1.66,0,0,1,0-3.319h3.319a1.66,1.66,0,0,1,0,3.319Z" fill="#dadcde"/><path d="M2725.754,449.52h-26.546a1.66,1.66,0,0,1,0-3.319h26.546a1.66,1.66,0,0,1,0,3.319Z" fill="#dadcde"/><path d="M2709.163,456.156h-19.91a1.659,1.659,0,0,1,0-3.318h19.91a1.659,1.659,0,0,1,0,3.318Z" fill="#dadcde"/><path d="M2659.389,471.088h96.229a13.274,13.274,0,0,1-13.273,13.273h-69.683a13.274,13.274,0,0,1-13.273-13.273Z" fill="#afafaf"/><path d="M2715.407,477.724H2699.6a3.318,3.318,0,0,1-2.968-1.834l-2.4-4.8h26.545l-2.4,4.8A3.318,3.318,0,0,1,2715.407,477.724Z" fill="#e8e8e8"/><path d="M2709.163,427.951h16.591v6.637h-16.591Z" fill="#c3c6c7"/><path d="M2725.754,403.065H2715.8a1.66,1.66,0,0,1,0-3.319h9.955a1.66,1.66,0,0,1,0,3.319Z" fill="#dadcde"/><path d="M2725.754,409.7h-13.273a1.659,1.659,0,0,1,0-3.318h13.273a1.659,1.659,0,1,1,0,3.318Z" fill="#dadcde"/><path d="M2725.754,416.337h-13.273a1.659,1.659,0,0,1,0-3.318h13.273a1.659,1.659,0,1,1,0,3.318Z" fill="#dadcde"/><path d="M2753.858,414.578l-4.776-4.776a6.008,6.008,0,0,0-8.5,0l-23.953,23.953a13.266,13.266,0,0,0-3.42,5.893l-4.049,14.849,14.849-4.05a13.285,13.285,0,0,0,5.893-3.42l23.953-23.953a6.009,6.009,0,0,0,0-8.5Z" fill="#fbe9d8"/><path d="M2719.59,451.652l-10.427,2.845,2.845-10.428Z" fill="#6a7073"/><path d="M2748.981,427.951l-19.075,19.076-.005,0-13.272-13.273,0,0,19.075-19.076Z" fill="#f17781"/><path d="M2720.765,437.908,2740.671,418l4.977,4.976-19.907,19.907Z" fill="#ed5a6c"/><path d="M2749.082,409.8l4.776,4.776a6.007,6.007,0,0,1,0,8.5l-4.877,4.877-13.273-13.273,4.877-4.876a6.008,6.008,0,0,1,8.5,0Z" fill="#eb423f"/><path d="M2735.7,414.685l3.318-3.318,13.271,13.271-3.318,3.318Z" fill="#ffd33a"/></g><ellipse cx="88.469" cy="88.47" rx="88.469" ry="88.47" transform="translate(550.563 993.227)" fill="url(#b)"/><path d="M992.777,912.668a88.467,88.467,0,0,1-124.959,124.959A88.467,88.467,0,1,0,992.777,912.668Z" transform="translate(-288.178 109.635)" fill="#ccc"/><g transform="translate(-1746.518 619.918)"><text transform="translate(2329.917 506.888)" fill="#636363" font-size="16" font-family="Roboto-Bold, Roboto" font-weight="700" style="isolation:isolate"><tspan x="0" y="0">Características</tspan></text></g><g transform="translate(-1746.518 619.918)"><path d="M2352.347,414.678h69.683a6.637,6.637,0,0,1,6.636,6.637v53.091h-82.955V421.315A6.637,6.637,0,0,1,2352.347,414.678Z" fill="#afafaf"/><path d="M2355.666,421.315h63.046a3.318,3.318,0,0,1,3.318,3.318v46.455h-69.683V424.633A3.318,3.318,0,0,1,2355.666,421.315Z" fill="#6e33b5"/><path d="M2375.575,391.451h43.137a3.318,3.318,0,0,1,3.318,3.318v3.318h-46.455v-6.636Z" fill="#dadcde"/><path d="M2418.712,391.451H2362.3a3.317,3.317,0,0,0-3.318,3.318v69.683h56.409V394.769A3.318,3.318,0,0,1,2418.712,391.451Z" fill="#e9eef2"/><path d="M2339.074,471.088H2435.3a13.274,13.274,0,0,1-13.273,13.273h-69.683a13.274,13.274,0,0,1-13.273-13.273Z" fill="#afafaf"/><path d="M2395.092,477.724h-15.807a3.318,3.318,0,0,1-2.968-1.834l-2.4-4.8h26.545l-2.4,4.8A3.318,3.318,0,0,1,2395.092,477.724Z" fill="#e8e8e8"/></g><g transform="translate(-1747.518 620.918)"><path d="M2410.392,428.212c0,.529-.018,1.055-.055,1.575a22.52,22.52,0,0,1-6,13.83l-.013.013q-.27.291-.552.573a22.615,22.615,0,0,1-31.593.379l-.768-.768a22.617,22.617,0,0,1-.186-31.008l.012-.013c.181-.194.366-.385.553-.572a22.615,22.615,0,0,1,38.606,15.991Z" fill="#bb83ff"/><path d="M2410.337,429.787a22.52,22.52,0,0,1-6,13.83l-.013.013q-.27.291-.552.573a22.615,22.615,0,0,1-31.593.379c-.135-.128-.268-.259-.4-.39l26.363-26.363.121-.12Z" fill="#31d9e7"/><path d="M2386.839,442.983a5.473,5.473,0,0,1-9.451-4.395l-5.607,5.6-.005,0q-.186-.186-.369-.378a22.617,22.617,0,0,1-.186-31.008l.012-.013.558-.556,5.5,5.5a5.475,5.475,0,1,0,4.979,4.985l5.485,5.493.011.01-5.617,5.61a5.473,5.473,0,0,1,4.694,9.146Z" fill="#f17781"/><path d="M2410.392,428.212c0,.529-.018,1.055-.055,1.575a22.52,22.52,0,0,1-6,13.83l-.013.013-.588.588-5.5-5.5a5.474,5.474,0,1,0-4.979-4.985l-5.5-5.5,5.617-5.61-.031,0a5.476,5.476,0,1,1,4.791-4.792c0,.012,0,.025,0,.037l.14-.14,5.476-5.469.914.915A22.528,22.528,0,0,1,2410.392,428.212Z" fill="#f9e478"/></g></g></svg>