<svg xmlns="http://www.w3.org/2000/svg" xmlns:xlink="http://www.w3.org/1999/xlink" width="294.5" height="115.367" viewBox="0 0 294.5 115.367"><defs><linearGradient id="a" x1="-36.9" y1="69.158" x2="-36.9" y2="69.187" gradientUnits="objectBoundingBox"><stop offset="0" stop-color="#96d1f3"/><stop offset="1" stop-color="#ccfff4"/></linearGradient><linearGradient id="b" x1="-264.259" y1="200.585" x2="-264.259" y2="200.673" gradientUnits="objectBoundingBox"><stop offset="0" stop-color="#a8abff"/><stop offset="1" stop-color="#fac8ff"/></linearGradient><linearGradient id="c" x1="-269.004" y1="200.585" x2="-269.004" y2="200.673" xlink:href="#b"/><linearGradient id="d" x1="-185.362" y1="227.079" x2="-185.362" y2="227.182" xlink:href="#b"/></defs><g transform="translate(-9630.309 9444.391)"><rect width="294.5" height="96.969" transform="translate(9630.309 -9425.993)" fill="#f1e5ff"/><g transform="translate(7678.125 -10153.674)" style="isolation:isolate"><text transform="translate(2066.775 754.485)" font-size="16" font-family="Roboto-Regular, Roboto" style="isolation:isolate"><tspan x="0" y="0">Comprensible a </tspan></text><text transform="translate(2066.775 773.685)" font-size="16" font-family="Roboto-Regular, Roboto" style="isolation:isolate"><tspan x="0" y="0">todos los empleados.</tspan></text></g><g transform="translate(7678.125 -10153.674)"><path d="M1996.939,761.951v21.9h53.081v-21.9a9.651,9.651,0,0,0-7.31-9.363l-12.636-3.159h-13.19l-12.635,3.159A9.651,9.651,0,0,0,1996.939,761.951Z" fill="url(#a)"/><path d="M2030.074,743.477h-13.19v5.952a6.6,6.6,0,0,0,13.19.515c.007-.172.007-.343,0-.515Z" fill="#fff"/><path d="M2035.543,727.392a12.064,12.064,0,1,0-24.128,0h15.972a6.434,6.434,0,0,1,5.475,3.055l2.674,4.332c0-.1.007-.206.007-.309v-7.078Z" fill="#fff"/><path d="M2027.387,727.392h-15.972v7.078a12.062,12.062,0,0,0,24.12.309l-2.673-4.332a6.434,6.434,0,0,0-5.475-3.055Z" fill="#fff"/><path d="M1973.454,783.851h79.783v6.435h-79.783Z" fill="#fff"/><path d="M2018.493,783.851h-41.822v-20.91a4.826,4.826,0,0,1,4.826-4.826h32.17a4.826,4.826,0,0,1,4.826,4.826h0Z" fill="#fff"/><path d="M2011.415,738.169H2008.2a3.217,3.217,0,0,1-3.217-3.217h0v-4.825a3.217,3.217,0,0,1,3.217-3.217h3.217Z" fill="url(#b)"/><path d="M2035.543,738.169h3.217a3.217,3.217,0,0,0,3.217-3.217h0v-4.825a3.217,3.217,0,0,0-3.217-3.217h-3.217Z" fill="url(#c)"/><circle cx="4.826" cy="4.826" r="4.826" transform="translate(1992.756 766.158)" fill="url(#d)"/><path d="M2051.226,782.645V761.951A10.838,10.838,0,0,0,2043,751.418l-11.721-2.931V745.2a13.34,13.34,0,0,0,4.525-5.819h2.954a4.43,4.43,0,0,0,4.424-4.424v-4.825a4.418,4.418,0,0,0-1.623-3.422,18.094,18.094,0,0,0-36.163,0c-2.481,2.035-1.331,4.819-1.623,8.247a4.429,4.429,0,0,0,4.423,4.424h2.955a13.34,13.34,0,0,0,4.525,5.819v3.292l-11.721,2.931a10.923,10.923,0,0,0-6.978,5.491H1981.5a6.038,6.038,0,0,0-6.032,6.032v19.7h-3.217v8.847h82.2v-8.843Zm-16.889-52.1a7.892,7.892,0,0,0-6.95-4.354h-14.7a10.857,10.857,0,0,1,21.647,1.206Zm6.434-.413v4.825a2.013,2.013,0,0,1-2.011,2.011h-2.249c.39-2.042.177-2.9.239-8.847h2.01a2.013,2.013,0,0,1,2.011,2.006Zm-32.57,6.831a2.013,2.013,0,0,1-2.01-2.011v-4.825a2.012,2.012,0,0,1,2.01-2.011h2.011v6.354a13.377,13.377,0,0,0,.238,2.493Zm2.122-11.26c-2.179,0-2.118-.01-2.434.012a15.683,15.683,0,0,1,31.187,0c-.317-.022-.256-.007-2.434-.012a13.267,13.267,0,0,0-26.319,0Zm2.3,8.767V728.6h14.765c4.251,0,5.2,4.3,6.93,6.5a10.857,10.857,0,0,1-21.695-.631Zm16.246,12.122v2.837a5.388,5.388,0,0,1-10.777,0v-2.837A13.225,13.225,0,0,0,2028.869,746.592Zm-24.326,7.166,11.284-2.821a7.8,7.8,0,0,0,15.307,0l11.284,2.821a8.433,8.433,0,0,1,6.4,8.193v20.694h-8.2V763.906H2038.2v18.739h-18.5v-19.7a6.038,6.038,0,0,0-6.032-6.032h-13.847a8.505,8.505,0,0,1,4.722-3.151Zm-26.664,9.183a3.623,3.623,0,0,1,3.619-3.62h32.17a3.623,3.623,0,0,1,3.619,3.62v19.7h-39.408Zm74.153,26.138h-77.371v-4.021h77.371Zm-54.449-24.128a6.032,6.032,0,1,0,6.032,6.032h0a6.039,6.039,0,0,0-6.033-6.032Zm0,9.651a3.619,3.619,0,1,1,3.619-3.619,3.619,3.619,0,0,1-3.619,3.619Z" fill="#692fbc"/></g></g></svg>