<svg xmlns="http://www.w3.org/2000/svg" width="420" height="320.068" viewBox="0 0 420 320.068"><g transform="translate(729.813 -1024.748)"><g transform="translate(-696.072 1025.489)"><path d="M-664.486,1040.682c20.366-16.138,48.175-19.089,71.928-10.119,31.556,11.921,54.782,42.11,85.431,56.607a95.8,95.8,0,0,0,68.813,5.073c10.983-3.371,21.664-8.78,33.063-9.142,10.1-.32,20.07,3.428,28.651,9.273,25.254,17.2,37.934,53.874,29.418,85.124-4.557,16.732-14.341,31.265-25.739,43.448-23.545,25.179-54.782,41.547-87.429,45.808-18.222,2.379-36.707,1.087-54.862-1.836-39.564-6.368-78.544-20.795-111.122-46.236-39-30.459-77.652-83.589-63.05-138.973C-685.294,1064.213-676.423,1050.141-664.486,1040.682Z" transform="translate(692.537 -1025.567)" fill="#dcbfff"/><path d="M-323.938,1090.4c-1.283-3.279-2.348-7.442-.186-10.11a5.978,5.978,0,0,1,3.15-1.915c5.71-1.539,11.308,2.849,15.29,7.6a67.647,67.647,0,0,1,9.363,14.715,25.923,25.923,0,0,1,2.666,8.645,11.5,11.5,0,0,1-2.353,8.516C-309.04,1132.676-320.38,1099.486-323.938,1090.4Z" transform="translate(657.719 -1030.545)" fill="#dcbfff"/></g><g transform="translate(-719.514 1202.854)"><g transform="translate(251.768 12.768)"><path d="M-417.933,1304.916c2.017-3.262,3.979-6.531,7.278-8.36,3.253-1.8,7.176-1.822,10.9-2.186,3.026-.3,6.9-.936,9.052-3.293.881-.966,1.341-2,2.334-2.914.94-.864,2.723-2.03,2.749-3.5.505-2.265-1.348-4.419-3.327-5.681s-4.3-2.151-5.735-4c-2.346-3.026-.957-8.1,2.588-9.443,1.589-.6,3.6-.654,4.544-2.058,1.274-1.889-.523-4.409-2.448-5.691s-4.323-2.466-4.817-4.71c-1.03-4.684,7.2-7.445,6.2-12.136-.528-2.476-3.615-3.7-6.08-3.155s-4.432,2.3-6.332,3.946-4.01,3.294-6.527,3.537c-3.986.386-7.429-2.844-9.73-6.151-1.035-1.486-2.191-3.192-3.976-3.466a3.748,3.748,0,0,0-3.482,1.626,6.586,6.586,0,0,0-1.06,3.833c-.007,3.04,1.243,5.939,2.25,8.824s1.79,6.051.847,8.93-4.237,5.139-7.067,3.959c-1.689-.7-2.747-2.357-4.033-3.66s-3.327-2.327-4.876-1.4c-1.242.747-1.553,2.391-1.6,3.844a22.021,22.021,0,0,0,5.5,15.07,49.739,49.739,0,0,1,4.181,4.664c1.178,1.725,1.875,3.956,1.141,5.885-.772,2.034-2.917,3.257-3.829,5.232-1.075,2.333-.195,5.078.692,7.516.953,2.619,2.811,5.844,2.622,8.63-.138,2.046-.039,4.265,2.771,4.51,1.873.163,3.6-.964,4.921-2.276A31.607,31.607,0,0,0-417.933,1304.916Z" transform="translate(440.292 -1235.619)" fill="#95f7ff"/><g transform="translate(6.617 2.184)"><path d="M-393.143,1238.551a.563.563,0,0,0-.793-.054,113.525,113.525,0,0,0-14.517,16.267,122.289,122.289,0,0,0-7.465,11.281c.029-8.656-2.426-22.483-2.54-23.12a.561.561,0,0,0-.652-.453.561.561,0,0,0-.454.652c.03.168,3,16.873,2.455,25.008a106.862,106.862,0,0,0-6.581,14.09c-3.405-7.409-7.826-19.8-7.872-19.93a.562.562,0,0,0-.718-.34.561.561,0,0,0-.341.718c.05.138,4.906,13.75,8.385,21.034a88.915,88.915,0,0,0-3.712,13.459.561.561,0,0,0,.446.657.563.563,0,0,0,.418-.085.562.562,0,0,0,.239-.361q.576-3.016,1.354-5.919c8.288,4.8,21.7-3.694,24.27-5.42.221-.148.352-.262.4-.3a.579.579,0,0,0,.126-.8.6.6,0,0,0-.794-.174l-.01.007c-.157.105-15.346,10.718-23.682,5.542a100.94,100.94,0,0,1,9.928-23.141,35.452,35.452,0,0,1,19.786-4.95.562.562,0,0,0,.369-.092.562.562,0,0,0,.246-.41.562.562,0,0,0-.5-.616,35.8,35.8,0,0,0-18.749,4.123,120.791,120.791,0,0,1,20.9-25.883A.562.562,0,0,0-393.143,1238.551Z" transform="translate(432.951 -1238.063)" fill="#fff"/><path d="M-427.427,1298.095a.836.836,0,0,1-.163-.015.853.853,0,0,1-.549-.36.859.859,0,0,1-.133-.644,89.568,89.568,0,0,1,3.683-13.388c-3.405-7.163-8.138-20.379-8.339-20.94l0-.009a.862.862,0,0,1,.521-1.1.859.859,0,0,1,1.1.52c.043.12,4.214,11.811,7.569,19.261a107.623,107.623,0,0,1,6.313-13.407c.519-8.139-2.426-24.7-2.456-24.87a.855.855,0,0,1,.141-.644.853.853,0,0,1,.553-.353.851.851,0,0,1,.642.14.848.848,0,0,1,.355.554c.1.564,2.378,13.4,2.535,22.1a122.9,122.9,0,0,1,6.939-10.385,114.061,114.061,0,0,1,14.561-16.314.862.862,0,0,1,1.211.084h0a.859.859,0,0,1-.084,1.211,119.435,119.435,0,0,0-20.295,24.917,36.061,36.061,0,0,1,17.977-3.677.861.861,0,0,1,.768.941.858.858,0,0,1-.377.626.855.855,0,0,1-.565.141,35.191,35.191,0,0,0-19.537,4.87,100.622,100.622,0,0,0-9.8,22.79c4.141,2.415,10,.888,14.225-.837a51.237,51.237,0,0,0,8.923-4.8l.031-.021a.9.9,0,0,1,1.2.249.882.882,0,0,1-.2,1.213l-.052.04c-.071.056-.19.15-.357.263-2.056,1.379-10.79,6.916-18.532,6.916a12.1,12.1,0,0,1-5.713-1.3c-.483,1.847-.9,3.7-1.253,5.53a.849.849,0,0,1-.365.552A.853.853,0,0,1-427.427,1298.095Zm-4.7-35.911a.251.251,0,0,0-.089.015.266.266,0,0,0-.161.339l0,.009c.2.563,4.974,13.886,8.369,21l.053.112-.042.117a88.9,88.9,0,0,0-3.7,13.414.263.263,0,0,0,.041.2.267.267,0,0,0,.169.111.265.265,0,0,0,.2-.041.264.264,0,0,0,.113-.17c.374-1.96.831-3.958,1.359-5.939l.1-.375.336.194c8.127,4.7,21.38-3.681,23.954-5.409.148-.1.251-.181.32-.235.034-.027.06-.047.078-.06a.283.283,0,0,0,.053-.385.3.3,0,0,0-.385-.1l-.025.017a51.947,51.947,0,0,1-9.035,4.862,27.811,27.811,0,0,1-7.692,2.064,11.424,11.424,0,0,1-7.261-1.388l-.19-.118.061-.214a101.147,101.147,0,0,1,9.957-23.211l.038-.065.065-.04a35.743,35.743,0,0,1,19.97-4.992.26.26,0,0,0,.174-.043.264.264,0,0,0,.117-.193.265.265,0,0,0-.237-.291,35.477,35.477,0,0,0-18.58,4.091l-.949.5.556-.919a120.509,120.509,0,0,1,20.961-25.954.264.264,0,0,0,.026-.373.267.267,0,0,0-.375-.025,113.348,113.348,0,0,0-14.474,16.22,121.845,121.845,0,0,0-7.447,11.254l-.558.953,0-1.1c.029-8.622-2.43-22.481-2.535-23.067a.266.266,0,0,0-.11-.171.263.263,0,0,0-.2-.042.259.259,0,0,0-.171.109.262.262,0,0,0-.043.2c.03.168,3,16.894,2.459,25.081l0,.066-.033.059a106.566,106.566,0,0,0-6.562,14.05l-.251.664-.3-.645c-3.412-7.422-7.84-19.832-7.882-19.955A.266.266,0,0,0-432.123,1262.184Z" transform="translate(432.982 -1238.031)" fill="#a1ccb8"/></g></g><g transform="translate(268.253 68.668)"><path d="M-421.21,1359.005c-.253-.091-.511-.183-.768-.28,0,0,.094-.2.276-.593,2.733-5.7,25.571-50.713,69.617-59.331q.527-.109,1.052-.2a77.783,77.783,0,0,1,17.727-1.128s8.74.163,19.479,7.749c.24.165.483.335.721.514a64.96,64.96,0,0,1,15,15.751c.1.132.2.274.291.416,0,0-.081.2-.24.583a79.6,79.6,0,0,1-31.759,34.888c-.276.162-.556.324-.835.48C-349.876,1368.772-378.918,1374.314-421.21,1359.005Z" transform="translate(422.07 -1297.374)" fill="#31d9e7"/><g transform="translate(0 24.112)"><path d="M-421.894,1361.73l-.093-.478-.092-.482.368-.11,123.592-36.647c.1.132.2.274.291.416,0,0-.081.2-.24.583l-123.152,36.52Z" transform="translate(422.08 -1324.012)" fill="#fff"/></g><g transform="translate(72.956 39.053)"><path d="M-323.018,1361.945l-18.463-20.7.614-.728,18.684,20.946C-322.46,1361.627-322.739,1361.789-323.018,1361.945Z" transform="translate(341.481 -1340.519)" fill="#fff"/></g><g transform="translate(49.346 1.225)"><path d="M-366.534,1343.935l-1.031.142,20.64-45.146q.527-.109,1.052-.2Z" transform="translate(367.565 -1298.728)" fill="#fff"/></g><g transform="translate(95.918 7.847)"><path d="M-315.369,1331.253l-.744-.472,12.325-24.738c.24.165.483.335.721.514Z" transform="translate(316.113 -1306.043)" fill="#fff"/></g></g><g transform="translate(281.957 58.26)"><path d="M-406.269,1336.454c-.18-.035-.364-.071-.547-.11,0,0,.043-.148.125-.428,1.256-4.12,12.021-36.811,40.822-47.148.229-.085.459-.167.688-.245a53.1,53.1,0,0,1,11.832-2.583s5.908-.788,13.926,3.221c.178.086.36.176.54.272a44.3,44.3,0,0,1,11.727,9.074c.079.079.16.165.24.251,0,0-.034.144-.1.417a54.268,54.268,0,0,1-17.818,26.781c-.169.137-.341.275-.513.409C-357.186,1335.7-376.19,1342.422-406.269,1336.454Z" transform="translate(406.928 -1285.877)" fill="#95f7ff"/><path d="M-406.716,1337.98l-.112-.313-.112-.316.237-.112,79.534-37.409c.079.079.16.165.24.251,0,0-.034.144-.1.417l-79.25,37.279Z" transform="translate(406.94 -1287.2)" fill="#fff"/><path d="M-340.439,1329.286l-14.572-12.052.339-.554,14.747,12.2C-340.095,1329.014-340.267,1329.153-340.439,1329.286Z" transform="translate(402.016 -1288.798)" fill="#fff"/><path d="M-371.139,1321.394l-.681.2,9.269-32.551c.229-.085.459-.167.688-.245Z" transform="translate(403.61 -1286.154)" fill="#fff"/><path d="M-338.18,1307.686l-.55-.242,5.763-17.94c.178.086.36.176.54.272Z" transform="translate(400.472 -1286.221)" fill="#fff"/></g><g transform="translate(2.884 25.637)"><path d="M-577.9,1337.38c.311-.061.628-.122.945-.189,0,0-.073-.255-.216-.742-2.173-7.133-20.806-63.716-70.658-81.609q-.6-.22-1.191-.424a91.841,91.841,0,0,0-20.481-4.471s-10.226-1.365-24.1,5.574c-.309.149-.624.3-.933.472a76.684,76.684,0,0,0-20.3,15.707c-.136.136-.278.285-.415.434,0,0,.059.248.177.722,1.163,4.409,8.252,28.075,30.842,46.356.292.238.59.476.888.708C-662.857,1336.077-629.963,1347.712-577.9,1337.38Z" transform="translate(715.249 -1249.836)" fill="#31d9e7"/><path d="M-577.146,1340.021l.194-.54.195-.547-.411-.195-137.666-64.752c-.136.136-.278.285-.415.434,0,0,.059.248.177.722L-577.9,1339.67Z" transform="translate(715.249 -1252.126)" fill="#fff"/><path d="M-680.093,1324.973l25.224-20.861-.586-.959-25.525,21.112C-680.689,1324.5-680.391,1324.742-680.093,1324.973Z" transform="translate(712 -1254.892)" fill="#fff"/><path d="M-626.022,1311.315l1.178.349-16.043-56.344q-.6-.22-1.191-.424Z" transform="translate(708.311 -1250.316)" fill="#fff"/><path d="M-682.41,1287.587l.953-.418-9.976-31.055c-.309.149-.624.3-.933.472Z" transform="translate(713.079 -1250.431)" fill="#fff"/></g><g transform="translate(0 72.452)"><path d="M-662.923,1365.237c-3.289-1.974-6.531-3.978-10.3-4.091a18.627,18.627,0,0,0-6.8,1.393c-1.946.711-3.623,1.893-5.687,2.422a18.369,18.369,0,0,1-12.625-1.243,6.361,6.361,0,0,1-2.964-2.535,5.163,5.163,0,0,1-.075-4.1c1.011-2.774,3.51-4.8,4.062-7.786.7-3.765-2.865-7.634-6.631-7.2-1.689.193-3.5,1.069-4.982.255-2-1.094-1.557-4.158-.434-6.18s2.71-4.175,2.12-6.4c-1.234-4.635-9.809-3.315-11.073-7.941-.667-2.443,1.515-4.946,3.956-5.593s4.995.015,7.436.6,5.074,1.088,7.422.15c3.72-1.485,5.3-5.934,5.826-9.929.237-1.795.483-3.841,1.943-4.9a3.746,3.746,0,0,1,3.84-.153,6.582,6.582,0,0,1,2.7,2.919c1.4,2.7,1.62,5.847,2.048,8.873s1.184,6.2,3.343,8.324,6.122,2.621,8.1.276c1.178-1.4,1.36-3.354,1.9-5.1s1.889-3.594,3.693-3.477c1.446.095,2.477,1.412,3.182,2.684a22.022,22.022,0,0,1,2.028,15.913,49.728,49.728,0,0,0-1.576,6.063c-.255,2.073.148,4.375,1.685,5.752,1.619,1.454,4.087,1.556,5.8,2.893,2.026,1.579,2.5,4.423,2.832,7,.354,2.764.183,6.482,1.628,8.871,1.062,1.755,1.99,3.773-.393,5.28-1.589,1-3.643.8-5.417.235A31.616,31.616,0,0,1-662.923,1365.237Z" transform="translate(718.435 -1301.555)" fill="#95f7ff"/><g transform="translate(3.255 6.767)"><path d="M-714.5,1317.813a.562.562,0,0,1,.68-.412,113.535,113.535,0,0,1,20.362,7.8,122.337,122.337,0,0,1,11.808,6.6c-4-7.679-8.157-21.09-8.348-21.709a.561.561,0,0,1,.371-.7.561.561,0,0,1,.7.371c.051.163,5.078,16.367,9.29,23.348a106.885,106.885,0,0,1,12.31,9.5c-.372-8.146-2.127-21.183-2.146-21.321a.562.562,0,0,1,.482-.632.561.561,0,0,1,.633.482c.019.145,1.947,14.468,2.2,22.537a89.006,89.006,0,0,1,9.473,10.257.562.562,0,0,1-.1.789.561.561,0,0,1-.411.116.561.561,0,0,1-.378-.212q-1.894-2.414-3.919-4.637c-5.164,8.062-20.975,6.669-24.051,6.315-.264-.031-.433-.073-.494-.08a.578.578,0,0,1-.478-.652.594.594,0,0,1,.625-.519h.013c.187.022,18.552,2.486,23.586-5.937a100.939,100.939,0,0,0-19.437-16.009,35.448,35.448,0,0,0-19.852,4.676.562.562,0,0,1-.371.088.562.562,0,0,1-.406-.251.562.562,0,0,1,.164-.778,35.8,35.8,0,0,1,18.552-4.935,120.81,120.81,0,0,0-30.446-13.412A.563.563,0,0,1-714.5,1317.813Z" transform="translate(714.809 -1309.062)" fill="#fff"/><path d="M-656.764,1355.009a.853.853,0,0,1-.491.089.85.85,0,0,1-.577-.323c-1.147-1.462-2.373-2.92-3.65-4.339a12.091,12.091,0,0,1-4.481,3.775c-6.879,3.552-17.18,2.638-19.641,2.354-.2-.023-.349-.052-.437-.07l-.063-.012a.881.881,0,0,1-.732-.987.9.9,0,0,1,.954-.773l-.022.3.034-.3.023,0a51.233,51.233,0,0,0,10.131.174c4.542-.4,10.453-1.735,13.026-5.781a100.634,100.634,0,0,0-19.161-15.756A35.2,35.2,0,0,0-701.444,1338a.858.858,0,0,1-.567.134.856.856,0,0,1-.622-.385.861.861,0,0,1,.25-1.188,36.06,36.06,0,0,1,17.661-4.978,119.4,119.4,0,0,0-29.462-12.832.859.859,0,0,1-.63-1.038h0a.861.861,0,0,1,1.037-.63,113.906,113.906,0,0,1,20.422,7.818,122.522,122.522,0,0,1,10.928,6.046c-3.852-7.808-7.713-20.252-7.882-20.8a.854.854,0,0,1,.061-.654.857.857,0,0,1,.506-.42.854.854,0,0,1,.654.061.857.857,0,0,1,.42.507c.05.162,5.045,16.256,9.226,23.226a107.631,107.631,0,0,1,11.758,9.018c-.435-8.159-2.091-20.462-2.108-20.587a.856.856,0,0,1,.167-.636.858.858,0,0,1,.568-.33.86.86,0,0,1,.967.736v.008c.08.591,1.934,14.5,2.2,22.435a89.523,89.523,0,0,1,9.413,10.208.852.852,0,0,1,.177.633.853.853,0,0,1-.323.573A.9.9,0,0,1-656.764,1355.009Zm-4.794-5.542.261.287c1.379,1.518,2.7,3.084,3.932,4.654a.264.264,0,0,0,.178.1.265.265,0,0,0,.194-.054.262.262,0,0,0,.1-.177.264.264,0,0,0-.054-.195,88.992,88.992,0,0,0-9.441-10.223l-.091-.084,0-.124c-.244-7.886-2.115-21.906-2.193-22.5l0-.008a.265.265,0,0,0-.3-.226.269.269,0,0,0-.176.1.266.266,0,0,0-.052.2c.018.128,1.776,13.188,2.149,21.347l.032.709-.528-.474a106.527,106.527,0,0,0-12.276-9.475l-.055-.037-.034-.057c-4.224-7-9.268-23.251-9.319-23.414a.262.262,0,0,0-.129-.156.261.261,0,0,0-.2-.019.265.265,0,0,0-.157.129.265.265,0,0,0-.018.2c.176.568,4.345,14.008,8.328,21.66l.51.98-.932-.593a122.2,122.2,0,0,0-11.779-6.584,113.28,113.28,0,0,0-20.3-7.775.267.267,0,0,0-.32.2.265.265,0,0,0,.195.319,120.473,120.473,0,0,1,30.53,13.447l.916.562-1.074-.012a35.48,35.48,0,0,0-18.386,4.887.265.265,0,0,0-.077.366.264.264,0,0,0,.192.119.26.26,0,0,0,.174-.042,35.752,35.752,0,0,1,20.036-4.724l.075.005.064.041A101.144,101.144,0,0,1-662.1,1348.88l.152.163-.114.192a11.43,11.43,0,0,1-5.818,4.564,27.78,27.78,0,0,1-7.783,1.694,51.944,51.944,0,0,1-10.257-.176l-.018,0,.022-.3-.033.3a.3.3,0,0,0-.3.264.282.282,0,0,0,.224.317c.022,0,.054.009.1.017.085.016.215.042.391.062,3.081.355,18.7,1.725,23.768-6.181Z" transform="translate(714.84 -1309.031)" fill="#fff"/></g></g><g transform="translate(88.046 0)"><path d="M-543.823,1315.568c-.006.24-.012.483-.022.728l-.579-.068c-5.582-.723-50.042-7.49-69.621-42.354q-.239-.416-.464-.834a69.334,69.334,0,0,1-5.9-14.685s-2.3-7.44,1.123-18.643c.072-.249.148-.5.234-.754a57.862,57.862,0,0,1,9.144-17.082c.084-.119.177-.243.271-.363,0,0,.193.013.56.041a70.91,70.91,0,0,1,38.378,17.141c.215.187.429.379.639.572C-555.458,1252.487-542.667,1275.514-543.823,1315.568Z" transform="translate(621.165 -1221.513)" fill="#95f7ff"/><g transform="translate(11.258)"><path d="M-542.288,1316.084l-.377.212-.383.214-.2-.282-65.483-94.352c.084-.119.177-.243.271-.363,0,0,.193.013.56.041l65.253,94.014Z" transform="translate(608.728 -1221.513)" fill="#fff"/></g><g transform="translate(37.956 17.181)"><path d="M-566.083,1241.066l-12.363,21.395-.787-.316,12.511-21.651C-566.507,1240.682-566.293,1240.873-566.083,1241.066Z" transform="translate(579.233 -1240.494)" fill="#fff"/></g><g transform="translate(6.656 51.527)"><path d="M-569.8,1283.309l.408.833-43.957-4.87q-.239-.415-.464-.834Z" transform="translate(613.812 -1278.438)" fill="#fff"/></g><g transform="translate(1.879 17.445)"><path d="M-594.528,1244.305l-.192.762-24.369-3.528c.072-.249.148-.5.234-.754Z" transform="translate(619.089 -1240.786)" fill="#fff"/></g></g><g transform="translate(278.847 47.158)"><path d="M-404.914,1337.39c-.129.069-.26.139-.393.208l-.139-.328c-1.308-3.179-11.191-28.81,1.367-49.756q.148-.253.3-.5a42.36,42.36,0,0,1,6-7.578s3.25-3.474,10.228-5.054c.154-.037.311-.073.471-.1a35.353,35.353,0,0,1,11.831-.327c.089.009.183.021.275.034,0,0,.052.1.148.309a43.313,43.313,0,0,1,2.539,25.548c-.034.17-.072.342-.11.512C-374.985,1312.1-383.321,1325.865-404.914,1337.39Z" transform="translate(410.376 -1273.611)" fill="#31d9e7"/><g transform="translate(4.84 0.341)"><path d="M-404.573,1337.77l-.227-.137-.229-.138.09-.189,30.2-63.319c.089.009.183.021.275.034,0,0,.052.105.148.309l-30.088,63.1Z" transform="translate(405.029 -1273.987)" fill="#fff"/></g><g transform="translate(22.815 26.157)"><path d="M-370.007,1303.1l-15.094-.074-.071-.513,15.274.075C-369.932,1302.754-369.969,1302.925-370.007,1303.1Z" transform="translate(385.171 -1302.508)" fill="#fff"/></g><g transform="translate(6.296 13.403)"><path d="M-392.365,1313.237l-.318.469-10.737-24.788q.148-.253.3-.5Z" transform="translate(403.42 -1288.418)" fill="#fff"/></g><g transform="translate(22.826 0.667)"><path d="M-379.183,1288.317l-.463.129-5.513-13.993c.154-.037.311-.073.471-.1Z" transform="translate(385.159 -1274.348)" fill="#fff"/></g></g><path d="M-388.471,1366.77a.677.677,0,0,0-.211.344H-692.845c.015-.251.034-.176.054-.233a10.352,10.352,0,0,1,4.442-5.4c3.724-2.162,8.248-2.292,12.556-2.349,11.232-.145,22.278-.645,33.453.9a46.681,46.681,0,0,1-30.51-17.918c-3.949-5.238-6.543-13.173-2.038-17.937,3.028-3.2,7.971-3.478,12.369-3.184a82.626,82.626,0,0,1,35.728,10.891c-6.42-4.281-13.086-8.815-16.811-15.572s-3.4-16.428,2.8-21.014c6.572-4.857,15.971-1.95,22.947,2.305a72.847,72.847,0,0,1,27.685,30.769c-3.091-8.366-6.237-17.3-4.36-26.014s10.985-16.49,19.392-13.515c4.9,1.729,8.162,6.577,9.4,11.618.177.722.322,1.444.429,2.17a28.128,28.128,0,0,1,2.37-7.524c3.1-6.387,9.557-11.482,16.656-11.384,8.3.119,15.191,7.206,17.806,15.079s1.881,16.421,1.121,24.687c4.328-14.969,13.164-29.351,26.893-36.723a38.815,38.815,0,0,1,20.009-4.441l.765.043c9.781.57,17.371,5.524,22.736,12.619a48,48,0,0,1,8.064,17.621,29.884,29.884,0,0,1,29.606,1.339c3.82,2.48,7.164,6.077,8.176,10.517s-.9,9.7-5.066,11.536q7.238,1.936,14.474,3.876c4.9,1.31,10.086,2.829,13.438,6.631C-383.434,1351.971-384.183,1360.874-388.471,1366.77Z" transform="translate(716.009 -1227.275)" fill="#bb83ff"/></g><g transform="translate(-613.597 1080.485)"><g transform="translate(7.251)"><path d="M-592.39,1166.754l-.054.111a7.233,7.233,0,0,0,3.888,9.878,7.268,7.268,0,0,1,1.039.513,8.154,8.154,0,0,1,3.652,4.949c-1.741,2.2-3.495,4.836-3.059,7.654a5.12,5.12,0,0,0,2.7,3.754,4.753,4.753,0,0,0,4.5-.19,14.15,14.15,0,0,1,1.856,6.159,4.023,4.023,0,0,0,5.755,3.357l.069-.033c-.066,2.658-.118,5.406.855,7.863s3.26,4.557,5.8,4.368c2.1-.158,3.809-1.76,5.336-3.276.027.047.053.094.078.142a7.394,7.394,0,0,0,11.454,2.218c.28-.25.551-.51.812-.781a9.421,9.421,0,0,0-.611,1.353,1.871,1.871,0,0,0,3.211,1.809l.043-.051c1.426-1.7,3.739-2.79,5.792-2.073q.494,1.526.989,3.052a9.11,9.11,0,0,0,8.721-4.959c.865-1.711,2.806-2.047,4.642-2.339,7.265-1.162,15.124-1.066,21.645,2.469l8.755,4.746a4.3,4.3,0,0,0,2.946.766c1.009-.244,1.744-1.675,1.015-2.439q-.106-.424-.2-.847a7.593,7.593,0,0,1,6.067,1.667c.053.043.1.089.156.134a2.467,2.467,0,0,0,4.074-2.335c-.056-.25-.121-.5-.2-.742a23.054,23.054,0,0,0,8.363,4.774,1.036,1.036,0,0,0,1.211-1.5l-.016-.029a2.854,2.854,0,0,1,.111-3.134c.861-1,2.418-.855,3.587-.3a19.479,19.479,0,0,0,3.456,1.749c2.649.652,5.309-1.622,6.2-4.305.023-.065.043-.132.064-.2.8-2.628.394-5.489-.023-8.221a13.482,13.482,0,0,1,1.624.448,3.3,3.3,0,0,0,4.381-3.093v-.082c.045-2.728,1.557-5.627,4.09-6.308,1.16-.312,2.435-.148,3.518-.683a3.263,3.263,0,0,0,1.736-2.661,3.332,3.332,0,0,0-.6-2.11c-.27-.384-1.1-.763-1.247-1.171-.343-.963,1.11-3.182,1.57-4.017a22.913,22.913,0,0,1,2.6-3.768l.015-.018a2.334,2.334,0,0,0-1.029-3.7,9.164,9.164,0,0,1-4.239-2.935c-1.611-2.057-2.145-5.454-.669-7.751.111-.173.452-.615.918-1.2a5.769,5.769,0,0,0,.625-6.057c-.75-1.688,2.147-3.659,3.483-4.265a13.25,13.25,0,0,0,3.082-1.451,4.113,4.113,0,0,0,1.188-4.323,5.353,5.353,0,0,0-3.219-3.282,7.741,7.741,0,0,0-4.679-.16,5.8,5.8,0,0,1-2.357.363c-1.69-.282-1.385-2.265-1.2-3.506q.361-2.42.721-4.84a7.934,7.934,0,0,0-.035-3.7c-.7-2.083-3.146-2.6-5.02-3.005-.688-.147-8.233-1.811-8.242-1.771a22.506,22.506,0,0,1,1.342-5.786,11.632,11.632,0,0,0,.709-5.384c-.029-.672-.091-1.343-.186-2.01a5.247,5.247,0,0,0-8-3.668l-.061.038c-.482.3-6.468,2.859-6.52,2.342a18.136,18.136,0,0,0-7.564-12.811,18.455,18.455,0,0,0-10.145-3.519,3.292,3.292,0,0,0-3.375,3.637l0,.044a5.53,5.53,0,0,1-2.367,5c-1.093.719-2.53,1.3-3.775.6a4.746,4.746,0,0,1-1.929-2.967,11.566,11.566,0,0,1-.361-4.5,8.378,8.378,0,0,1,.685-2.324l0-.008a1.558,1.558,0,0,0-1.236-2.2c-.66-.077-1.321-.143-1.984-.167a8.248,8.248,0,0,0-4.362.87,4.342,4.342,0,0,0-2.315,3.619,12.315,12.315,0,0,0-4.787-9.374,12.128,12.128,0,0,0-4.5-2.116,3.069,3.069,0,0,0-3.748,3.385l0,.041c.239,2.054-1.523,5.7-4.126,4.475a3.437,3.437,0,0,1-1.105-.914c-.043-.05-.085-.1-.127-.152a1.9,1.9,0,0,0-3.393,1.033,11.233,11.233,0,0,0,0,1.522,8.382,8.382,0,0,1-4.149-3.716,6.365,6.365,0,0,0-10.506-.92c-.1.13-.2.264-.3.4a16.72,16.72,0,0,0-3.1,10.937c-.412-3.07-3.3-5.273-6.249-5.715a11.768,11.768,0,0,0-3.949.129l-.082.015a4.125,4.125,0,0,0-3.235,4.849,9.2,9.2,0,0,1-1.519,7.1c-1.034,1.387-2.45,2.424-3.462,3.827a8.67,8.67,0,0,0-1.415,6.751,8.374,8.374,0,0,0,3.991,5.518,13.941,13.941,0,0,1-12.342,2.62,1.32,1.32,0,0,0-1.682,1.507l.005.03a3.333,3.333,0,0,1-.662,2.82c-.9.974-2.373.976-3.67.909l-.089,0a2.374,2.374,0,0,0-2.466,2.685,8.812,8.812,0,0,1-.791,4.679c-.078.168-.16.333-.245.5a4.236,4.236,0,0,0,3.4,6.209l.081.006a11.268,11.268,0,0,1-5.42,7.223,3.193,3.193,0,0,0-.883,4.845l.034.039a5.678,5.678,0,0,1,1.4,4.748A11.735,11.735,0,0,1-592.39,1166.754Z" transform="translate(593.411 -1086.357)" fill="#0b2e4e"/><path d="M-497.108,1245.345c-.229.325-.457.653-.687.978-4.2,5.979-6.781.949-12.205,5.213-7.885-5.9-10.809-3.422-13.046-12.672l.259-10.481.242-9.778v-.129c.225.076.254-.032.333-.247a1.33,1.33,0,0,0,.007-.68,258.705,258.705,0,0,1,26.468.735l.157,17.63a9.713,9.713,0,0,0,.48,3.075C-494.389,1241.184-495.781,1243.455-497.108,1245.345Z" transform="translate(586.739 -1098.761)" fill="#f7b99e"/><path d="M-495.393,1237.73c-15.354-4.6-21.781-7.219-27.368-9.348l.242-9.778v-.129c.225.076.254-.032.333-.247a1.331,1.331,0,0,0,.007-.68,258.7,258.7,0,0,1,26.468.735l.157,9.992C-495.576,1229.274-495.163,1237.4-495.393,1237.73Z" transform="translate(586.711 -1098.761)" fill="#d18767"/><path d="M-484.327,1203.843a21.429,21.429,0,0,0,.121,3.2,75.518,75.518,0,0,0,5.01-20.74,34.83,34.83,0,0,1-.683,3.5,57.5,57.5,0,0,1-2.585,7.7C-483.358,1199.71-484.245,1201.469-484.327,1203.843Z" transform="translate(583.068 -1095.806)" fill="#d18767"/><path d="M-591.151,1165.316a5.679,5.679,0,0,0-1.4-4.748l-.033-.039a3.192,3.192,0,0,1,.882-4.844,11.272,11.272,0,0,0,5.42-7.223h0a4.236,4.236,0,0,1-3.478-6.214c.085-.163.167-.329.245-.5a8.814,8.814,0,0,0,.791-4.679,2.375,2.375,0,0,1,2.467-2.686l.089.005c1.3.067,2.77.065,3.67-.909a3.333,3.333,0,0,0,.662-2.82l-.005-.03a1.32,1.32,0,0,1,1.682-1.507,13.941,13.941,0,0,0,12.342-2.62,8.376,8.376,0,0,1-3.991-5.518,8.671,8.671,0,0,1,1.415-6.751c1.012-1.4,2.429-2.44,3.462-3.827a9.2,9.2,0,0,0,1.519-7.1,4.124,4.124,0,0,1,3.235-4.849l.082-.016a12.048,12.048,0,0,1,5.7,5.236,10.986,10.986,0,0,1,.766,7.144,15.454,15.454,0,0,1-3.229,6.44c-1.547,1.888-3.556,3.742-3.638,6.223a5.907,5.907,0,0,0,3.052,4.993l.052.031a3.407,3.407,0,0,1,.764,5.195,9.775,9.775,0,0,0-1.448,2.1,9.106,9.106,0,0,0-.3,7.7c.758,1.687,2.571,3.8,4.489,3.842a14.372,14.372,0,0,0,5.65-1.219c3.606-1.554,5.835-4.3,7.652-7.768.563-1.075.956-.315,1.513.429A8.7,8.7,0,0,0-539,1140.78a8.149,8.149,0,0,0,5.256,1.434,7.081,7.081,0,0,1,1.966-5.691.79.79,0,0,1,1.329.4l0,.015a1.258,1.258,0,0,0,.92,1c.655.1,1.176-.524,1.625-1.033q.086-.1.174-.19a3.832,3.832,0,0,1,5.737.244.472.472,0,0,0,.092.091,26.433,26.433,0,0,0,2.65,1.7,5.575,5.575,0,0,0,4.549-.272,12.167,12.167,0,0,0,4.1-2.908,3.074,3.074,0,0,1,5.213,1.369l.024.1c.641,2.453,1.739,6.173,3.924,7.6,2.076,1.359,4.752.582,7.193.346a15.345,15.345,0,0,1,7.59,1.24,1.468,1.468,0,0,1-.241,2.767l-.04.011a5.791,5.791,0,0,0-3.427,2.28,4,4,0,0,0-.587,3.029c.265,1.085,1.179,1.286,2.028,1.851a28.119,28.119,0,0,1,5.036,4.3,29.5,29.5,0,0,1,5.009,7.391,2.435,2.435,0,0,1-2.624,3.44l-.067-.012a1.613,1.613,0,0,0-1.826,2.055,16.059,16.059,0,0,0,8.982,9.994,2.6,2.6,0,0,1,.8,4.265l-.058.056a2.226,2.226,0,0,0,.521,3.569,23.891,23.891,0,0,1,6.881,5.422,2.568,2.568,0,0,1-1.915,4.261l-.118,0a3.361,3.361,0,0,0-2.153,5.875,20.343,20.343,0,0,0,12.852,5.125c-.021.065-.042.132-.064.2-.888,2.683-3.547,4.957-6.2,4.3a19.513,19.513,0,0,1-3.457-1.749c-1.169-.555-2.726-.7-3.587.3a2.854,2.854,0,0,0-.111,3.134l.016.029a1.036,1.036,0,0,1-1.211,1.5,23.044,23.044,0,0,1-8.363-4.775q.111.368.2.742a2.468,2.468,0,0,1-4.074,2.336c-.052-.045-.1-.09-.156-.134a7.6,7.6,0,0,0-6.067-1.668q.094.425.2.848c.73.764-.005,2.195-1.015,2.439a4.3,4.3,0,0,1-2.946-.766c-2.267-1.229-6.7-3.67-8.968-4.9,6.337-8.732,9.7-14.542,12.744-28.168.836-3.746,2.172-10.128,1.412-13.931a13.057,13.057,0,0,0-6.408-8.907l-.063-.035c-3.4-1.859-6.55-2.9-10.092-4.444-1.26-.549-3.834,3.637-8.328,5.65-8.137,3.647-18.921,7.655-20.449,9.289-.576.616-3.992,5.771-4.142,9.649-.5,12.943,1.694,24.584,8.929,31.5a9.1,9.1,0,0,1-8.4,4.374l-.989-3.052c-2.053-.717-4.367.376-5.792,2.073l-.043.051a1.871,1.871,0,0,1-3.212-1.809,9.421,9.421,0,0,1,.611-1.353c-.261.271-.532.531-.812.781a7.393,7.393,0,0,1-11.453-2.218c-.025-.048-.052-.095-.079-.142-1.527,1.515-3.233,3.118-5.336,3.276-2.544.189-4.833-1.911-5.8-4.368s-.922-5.206-.855-7.863h0a4.023,4.023,0,0,1-5.824-3.324,14.15,14.15,0,0,0-1.857-6.159,4.751,4.751,0,0,1-4.5.189,5.119,5.119,0,0,1-2.7-3.754c-.436-2.817,1.318-5.45,3.059-7.653a8.154,8.154,0,0,0-3.652-4.949,7.3,7.3,0,0,0-1.039-.513,7.234,7.234,0,0,1-3.889-9.878c.019-.037.037-.074.055-.111A11.759,11.759,0,0,0-591.151,1165.316Z" transform="translate(593.404 -1087.474)" fill="#02141e"/><path d="M-481.8,1162.067c-1.856-5.661-6.6-10.09-12.067-12.457s-11.6-2.842-17.533-2.353a34.624,34.624,0,0,0-9.053,1.819,24.05,24.05,0,0,0-12.76,10.1c-2.895,4.851-5.55,9.416-5.673,14.936-.861-.167-2.481,1.038-3.343.871.811-2.532,3.813-14.876,7.049-21.755,2.483-5.276,7.72-8.869,13.3-10.565a45.821,45.821,0,0,1,16.3-1.9c4.74.215,10.749,1.132,14.694,3.77a18.456,18.456,0,0,1,6.223,7.689A49.364,49.364,0,0,1-481.8,1162.067Z" transform="translate(588.557 -1091.48)" fill="#f9e478"/><path d="M-470.433,1206.111c-4.085,4.083-10.613,3.693-16.389,3.693h.768c3.747-7.785,5.644-16.112,6.662-24.771l-.039-2.112-.052-5.416c4.123-.854,9.116,1.111,11.212,3.615a15.773,15.773,0,0,1,3.241,9.078C-464.624,1195.961-466.347,1202.028-470.433,1206.111Z" transform="translate(583.304 -1094.952)" fill="#f9e478"/><path d="M-540.109,1175.727a17.736,17.736,0,0,0-10.9,10.628,17.737,17.737,0,0,0,1.578,15.14,17.739,17.739,0,0,0,12.856,8.152,92.458,92.458,0,0,1-2.551-11.946,74.6,74.6,0,0,1-.119-16.844A11.477,11.477,0,0,0-540.109,1175.727Z" transform="translate(589.486 -1094.802)" fill="#f9e478"/><path d="M-533.111,1194.834a32.154,32.154,0,0,0,3.311,15.848,32.51,32.51,0,0,0,2.115,3.6c3.746,5.514,9.474,9.779,15.937,10.813a13.845,13.845,0,0,0,7.7-.75c3.267-1.423,6.17-4.568,8.271-7.507a61.819,61.819,0,0,0,5.333-8.965v0q.869-1.788,1.612-3.608a21.425,21.425,0,0,1-.121-3.2c.082-2.374.969-4.133,1.863-6.343a57.493,57.493,0,0,0,2.585-7.7,34.839,34.839,0,0,0,.683-3.5l.005-.056c.015-.149.025-.3.042-.444.078-.763.057-1.529.206-2.3h0a26.7,26.7,0,0,0-.686-6.907,20.142,20.142,0,0,0-5.97-9.672c-2.789-2.519-6.964-3.324-8.214-7.22.322,5.042-3.531,9.515-7.972,11.924s-9.516,3.327-14.262,5.059-9.5,4.637-11.359,9.334C-533.472,1186.866-532.95,1190.914-533.111,1194.834Z" transform="translate(587.696 -1093.019)" fill="#f7b99e"/><path d="M-531.485,1182.4c2.71-2.9,4.473-4.46,8.814-5.365,5.763-1.2,9.563-.1,15.662-2.663,5.427-2.281,10.779-7.121,10.4-13,1.456,4.539,6.324,5.477,9.573,8.414a24.007,24.007,0,0,1,2.5,2.63c-.1-.275-.2-.549-.308-.819-.045-.111-.091-.223-.138-.332l-.071-.166c-.048-.11-.1-.22-.147-.329l-.076-.164c-.077-.162-.155-.324-.235-.485a20.44,20.44,0,0,0-4.563-5.963c-1.524-1.377-3.464-2.134-5.112-3.367h0c-.094,0-.186-.144-.279-.212v-.007c-.231-.167-.453-.344-.668-.527v0q-.194-.164-.376-.339h0a6.513,6.513,0,0,1-1.773-2.775v0c.215,3.377-1.442,6.5-3.893,8.916a18.294,18.294,0,0,1-4.08,3.008c-.278.151-.558.262-.84.4a1.09,1.09,0,0,1-.424.171h0c-.142,0-.285.176-.427.176h0c-.143,0-.286.352-.431.352h0a2.7,2.7,0,0,1-.434.149c-.364.15-.73.277-1.1.417-.221.082-.443.155-.664.235-3.261,1.169-6.679,1.972-9.942,3.162C-525.264,1175.642-529.475,1178.224-531.485,1182.4Z" transform="translate(587.539 -1093.019)" fill="#d18767"/><path d="M-429.908,1180.736a.415.415,0,0,1-.254-.087,5.537,5.537,0,0,1-1.683-6.3,10.341,10.341,0,0,1,2.366-3.155c.208-.215.424-.436.627-.655,1.322-1.419,1.923-2.677,1.837-3.844a6.377,6.377,0,0,0-1.369-2.964,7.227,7.227,0,0,1-1.508-3.315,3.9,3.9,0,0,1,2.576-3.956.415.415,0,0,1,.526.261.415.415,0,0,1-.26.526,3.088,3.088,0,0,0-2.016,3.095,6.53,6.53,0,0,0,1.369,2.924,7.088,7.088,0,0,1,1.509,3.369c.1,1.411-.568,2.874-2.057,4.472-.21.225-.428.45-.64.668a9.581,9.581,0,0,0-2.193,2.893,4.682,4.682,0,0,0,1.424,5.33.416.416,0,0,1,.073.583A.414.414,0,0,1-429.908,1180.736Z" transform="translate(578.126 -1092.973)" fill="#0b2e4e"/><path d="M-548,1106.975a.414.414,0,0,1-.415-.4,44.6,44.6,0,0,1,.332-8.926,16.212,16.212,0,0,1,3.65-8.2,9.163,9.163,0,0,1,5.071-3.017,6.175,6.175,0,0,1,5.622,1.769,9.92,9.92,0,0,1,1.669,3.1c.167.424.339.861.528,1.272.287.622,1.358,2.652,3.108,2.692a.415.415,0,0,1,.4.425.419.419,0,0,1-.424.406c-2.171-.05-3.411-2.237-3.842-3.174-.2-.433-.377-.882-.547-1.316a9.192,9.192,0,0,0-1.516-2.855,5.334,5.334,0,0,0-4.857-1.5,8.326,8.326,0,0,0-4.6,2.754,15.39,15.39,0,0,0-3.449,7.786,43.98,43.98,0,0,0-.321,8.763.415.415,0,0,1-.4.428Z" transform="translate(589.15 -1086.324)" fill="#0b2e4e"/><path d="M-565.224,1229.41a4.943,4.943,0,0,1-2.862-.689,5.753,5.753,0,0,1-2.029-3.342,18.626,18.626,0,0,1,.191-10.367.411.411,0,0,1,.52-.265.419.419,0,0,1,.272.523,17.835,17.835,0,0,0-.182,9.915,5.086,5.086,0,0,0,1.7,2.912,4.156,4.156,0,0,0,2.4.608h.016a8.691,8.691,0,0,0,5.414-1.919,8.715,8.715,0,0,0,3.034-4.878.416.416,0,0,1,.5-.317.414.414,0,0,1,.315.494,9.4,9.4,0,0,1-3.325,5.285,9.458,9.458,0,0,1-5.932,2.038Z" transform="translate(591.263 -1098.5)" fill="#02141e"/><g transform="translate(71.898 112.288)"><ellipse cx="5.372" cy="4.11" rx="5.372" ry="4.11" transform="translate(0 7.833)" fill="#f9e478"/><path d="M-481.631,1211.465a11.451,11.451,0,0,1-4.23,8.226c-2.482,1.983-5.788,2.06-9.02,2.385a39.9,39.9,0,0,1-7.923-.468,3.509,3.509,0,0,1-.586,1.447c4.622,1.438,13.244.8,17.606-1.3s7.714-6.513,7.874-11.352C-479.294,1210.154-480.234,1211.622-481.631,1211.465Z" transform="translate(512.977 -1210.376)" fill="#f9e478"/></g></g><g transform="translate(0 139.952)"><path d="M-477.414,1247.817c-.616-2.4-2.964-4.194-5.308-4.987-.862-.291-1.739-.541-2.627-.764-.574-.142-1.143-.275-1.724-.4-7.2-1.557-14.553-.2-21.885.31-7.32-.515-14.683-1.867-21.88-.31q-.872.189-1.733.4c-.888.223-1.765.473-2.627.764-2.344.793-4.691,2.591-5.307,4.987a7.56,7.56,0,0,0,.733,4.5c2.056,5.338,4.32,10.958,8.884,14.4a25.331,25.331,0,0,0,8.84,3.876,69.516,69.516,0,0,0,13.1,2.19,69.353,69.353,0,0,0,13.087-2.19,25.308,25.308,0,0,0,8.836-3.876c4.564-3.446,6.827-9.066,8.882-14.4A7.559,7.559,0,0,0-477.414,1247.817Z" transform="translate(595.657 -1240.938)" fill="#f7b99e"/><path d="M-455.944,1265.515c-2.426-4.426-5.08-8.819-8.762-12.271-7.045-6.61-16.938-9.006-26.352-11.16-.012.03-.024.061-.036.091a94.928,94.928,0,0,1-6.508,13c-2.815,4.764-6.323,9.489-11.431,11.618a15.92,15.92,0,0,1-5.664,1.189,15.919,15.919,0,0,1-5.673-1.189c-5.109-2.129-8.625-6.854-11.44-11.618a94.824,94.824,0,0,1-6.508-13c-.013-.03-.024-.061-.036-.091-9.415,2.153-19.306,4.55-26.351,11.16-3.682,3.452-6.334,7.845-8.761,12.271-12.281,22.4-20.173,48-27.763,72.385a37.313,37.313,0,0,1,28.308-2.228c1.837-5.31,3.75-10.747,5.863-16.124v0a124.87,124.87,0,0,1,10.708-22.451c.322,1.326.607,2.656.876,3.99.007.029,0,.06.009.089.137.682.263,1.364.386,2.048,0,.023.005.044.009.067.057.3.111.616.164.923a115.869,115.869,0,0,1-2.434,49.116q21.33-1.13,42.644-2.725c14.247,1.086,28.415,1.972,42.635,2.725a115.885,115.885,0,0,1-2.438-49.116c.052-.307.106-.618.162-.923,0-.023.006-.044.01-.067q.185-1.026.39-2.048c.006-.029.009-.06.016-.089.27-1.334.582-2.664.9-3.99a131.216,131.216,0,0,1,10.752,22.451v0c2.026,5.377,3.983,10.814,5.819,16.124a37.218,37.218,0,0,1,28.27,2.228C-435.767,1313.515-443.664,1287.91-455.944,1265.515Z" transform="translate(601.404 -1241.047)" fill="#f17781"/><path d="M-550.064,1310.609c-.057-.3-.117-.606-.174-.909.057.307.112.618.165.924Z" transform="translate(596.568 -1247.459)" fill="#889e3c"/><path d="M-563.547,1322.855a142.2,142.2,0,0,1,10.738-22.452q.485,1.991.888,3.991-2.615-13.709-5.233-27.415c-1.044,5.839-1.794,11.67-2.835,17.51C-561.66,1303.87-563.339,1313.366-563.547,1322.855Z" transform="translate(597.83 -1244.356)" fill="#db3b21"/><path d="M-601.249,1345.4c-1.246,14.35,4.667,19.825,4.667,19.825,9.7,2.747,63.826-19.106,63.826-19.106l-.022-.062a32.329,32.329,0,0,1,8.546-.878,21.941,21.941,0,0,1,5.639,1,28.7,28.7,0,0,0,4.376,1.324,5.028,5.028,0,0,0,4.278-1.087c.652-.641,1.057-1.54,1.833-2.023,1.494-.931,3.776.023,5.031-1.213.837-.827.77-2.266,1.58-3.119.925-.976,2.568-.782,3.679-1.54a4.943,4.943,0,0,0,1.32-1.6l2.411-3.951c.669-1.1,1.365-2.44.511-3.593a2.336,2.336,0,0,0-1.058-.772,10.26,10.26,0,0,0-3.654-.211c-6.061-.092-10.392-6.884-16.45-7.115-6.663-.254-9.316,7.272-14.442,10.017a17.727,17.727,0,0,1-5.515,1.575q-4.477.751-8.977,1.334c-6.827.99-13.637,2.544-20.447,3.778-.869.156-10.451-.924-10.443-.647A41.617,41.617,0,0,0-587,1338.81C-593.718,1340.664-601.249,1345.4-601.249,1345.4Z" transform="translate(601.422 -1248.556)" fill="#f7b99e"/><path d="M-461.238,1310.609c.057-.3.116-.606.174-.909-.058.307-.112.618-.165.924Z" transform="translate(588.128 -1247.459)" fill="#889e3c"/><path d="M-448.955,1322.855a142.361,142.361,0,0,0-10.738-22.452q-.485,1.991-.888,3.991,2.615-13.709,5.233-27.415c1.044,5.839,1.794,11.67,2.835,17.51C-450.842,1303.87-449.163,1313.366-448.955,1322.855Z" transform="translate(588.066 -1244.356)" fill="#db3b21"/><path d="M-421.479,1346.717c3.266,14.029-1.813,20.287-1.813,20.287-9.208,4.092-65.888-9.877-65.888-9.877l.013-.065a32.323,32.323,0,0,0-8.584.341,21.941,21.941,0,0,0-5.441,1.789,28.645,28.645,0,0,1-4.143,1.93,5.025,5.025,0,0,1-4.389-.47c-.737-.542-1.265-1.375-2.1-1.743-1.611-.71-3.735.558-5.151-.489-.946-.7-1.084-2.133-2.006-2.864-1.055-.834-2.653-.411-3.86-1a4.944,4.944,0,0,1-1.533-1.4l-2.946-3.57c-.818-.991-1.7-2.222-1.016-3.484a2.339,2.339,0,0,1,.938-.914,10.252,10.252,0,0,1,3.589-.726c5.986-.95,9.312-8.286,15.276-9.372,6.56-1.195,10.252,5.88,15.715,7.872a17.781,17.781,0,0,0,5.683.778q4.538.109,9.076.05c6.9.014,13.86.587,20.776.844.883.033,10.215-2.394,10.247-2.119a41.625,41.625,0,0,1,12.52-.3C-429.6,1343.093-421.479,1346.717-421.479,1346.717Z" transform="translate(594.704 -1249.853)" fill="#f7b99e"/></g><g transform="translate(23.174 159.353)"><path d="M-504.908,1365.106h-54v4.68a5.077,5.077,0,0,0,5.028,5.183h90.089a5.133,5.133,0,0,0,5.1-5.183v-4.68Z" transform="translate(574.216 -1272.114)" fill="#96bcb7"/><path d="M-449.723,1265.259c-.076-.125-.153-.258-.236-.376l0-.086a5.745,5.745,0,0,0-4.74-2.425H-565.764a5.746,5.746,0,0,0-4.74,2.425v.057c-.084.119-.161.266-.236.39l-3.744,5.8.007.005,3.075.687,13.683,74.179c.844,4.585,4.82,8.3,8.878,8.3h77.219c4.058,0,8.034-3.714,8.879-8.3l13.682-74.151,3.076-.7.006-.009Z" transform="translate(575.693 -1262.372)" fill="#cecece" stroke="#9b3fa5" stroke-miterlimit="10" stroke-width="3"/><path d="M-446.113,1271.774a5.6,5.6,0,0,0-4.759-2.4H-569.846a5.6,5.6,0,0,0-4.758,2.4,7.642,7.642,0,0,0-1.056,5.817l13.858,75.146c.846,4.586,4.82,8.311,8.878,8.311h85.131c4.058,0,8.033-3.733,8.879-8.32l13.858-75.15A7.614,7.614,0,0,0-446.113,1271.774Z" transform="translate(575.82 -1263.036)" fill="#fff" stroke="#9b3fa5" stroke-miterlimit="10" stroke-width="3"/><ellipse cx="10.95" cy="8.405" rx="10.95" ry="8.405" transform="translate(54.511 43.761)" fill="#c2c4c4" stroke="#9b3fa5" stroke-miterlimit="10" stroke-width="3"/></g></g><g transform="translate(-577.289 1030.267)"><path d="M-539.139,1039.931c4.13-8.12,15.569-12.582,23.444-5.693,2.2,1.923,3.392,3.983,5.341,5.919,2.1,1.866,4.517,1.421,6.113-.841,2.783-3.948,5.341-5.453,10.324-5.755,5.19-.314,9.016,2.009,10.656,4.759,4.364,7.313,1,12.318,6.018,16.162,5.856,3.143,9.319-2.485,17.619-2.082,6.446.314,10.131,7.375,8.255,12.776a3.6,3.6,0,0,1-3.535,2.54h-95.463c-5.083,0-10.681-.5-10.935-6.857-.173-4.391,2.783-8.69,7.247-9.428,6.715-1.022,7.241,2.024,11.141,1.245C-538.966,1051.883-542.129,1044.2-539.139,1039.931Z" transform="translate(561.31 -1030.846)" fill="#a271dc"/></g><g transform="translate(-720.455 1110.685)"><path d="M-650.154,1126.825c-3.246-6.379-12.231-9.884-18.416-4.47-1.725,1.511-2.664,3.129-4.191,4.648-1.651,1.466-3.548,1.117-4.8-.66-2.186-3.1-4.2-4.282-8.11-4.521-4.073-.247-7.083,1.577-8.371,3.738-3.428,5.743-.778,9.676-4.726,12.693-4.6,2.469-7.321-1.952-13.841-1.634-5.063.245-7.958,5.793-6.484,10.034a2.827,2.827,0,0,0,2.776,1.991h74.984c3.992,0,8.39-.39,8.587-5.386a7.144,7.144,0,0,0-5.69-7.406c-5.275-.8-5.688,1.59-8.753.976C-650.291,1136.212-647.8,1130.182-650.154,1126.825Z" transform="translate(719.475 -1119.688)" fill="#a271dc"/></g><g transform="translate(-395.89 1174.901)"><g transform="translate(0 5.64)"><path d="M-316.113,1198.759h-43.846a.95.95,0,0,1-.949-.949.949.949,0,0,1,.948-.949h43.847a.948.948,0,0,1,.95.948.948.948,0,0,1-.948.95Z" transform="translate(360.908 -1196.862)" fill="#495abf"/></g><g transform="translate(31.772 0)"><path d="M-320.552,1192.528h-4.309a.949.949,0,0,1-.948-.95.949.949,0,0,1,.948-.948h4.309a.949.949,0,0,1,.949.948.948.948,0,0,1-.948.95Z" transform="translate(325.808 -1190.631)" fill="#495abf"/></g><g transform="translate(39.753 0)"><path d="M-306.461,1192.528h-9.58a.948.948,0,0,1-.949-.948.948.948,0,0,1,.948-.95h9.581a.95.95,0,0,1,.95.948.949.949,0,0,1-.949.95Z" transform="translate(316.99 -1190.631)" fill="#495abf"/></g></g><g transform="translate(-349.99 1128.099)"><path d="M-301.707,1140.825h-7.541a.95.95,0,0,1-.951-.948.95.95,0,0,1,.949-.951h7.544a.95.95,0,0,1,.951.949.95.95,0,0,1-.949.951Z" transform="translate(310.199 -1138.926)" fill="#495abf"/></g><g transform="translate(-463.193 1180.239)"><path d="M-429.112,1197.989h-5.418a.731.731,0,0,1-.731-.729.729.729,0,0,1,.729-.731h5.421a.73.73,0,0,1,.731.729.732.732,0,0,1-.73.732Z" transform="translate(435.262 -1196.528)" fill="#495abf"/></g><g transform="translate(-432.399 1183.625)"><path d="M-395.693,1211.366a.951.951,0,0,1-.671-.277l-4.6-4.6a.951.951,0,0,1,0-1.343l4.6-4.6a.953.953,0,0,1,.671-.28h0a.955.955,0,0,1,.673.28l4.6,4.6a.951.951,0,0,1,0,1.343l-4.6,4.6A.949.949,0,0,1-395.693,1211.366Zm-3.259-5.548,3.258,3.258,3.258-3.258-3.258-3.258Z" transform="translate(401.242 -1200.269)" fill="#495abf"/></g><g transform="translate(-395.477 1143.698)"><g transform="translate(0.011 0)"><path d="M-354.73,1162.816a.949.949,0,0,1-.673-.276l-4.774-4.774a.949.949,0,0,1,.029-1.342.95.95,0,0,1,1.314,0l4.773,4.773a.949.949,0,0,1,0,1.342.95.95,0,0,1-.673.28Z" transform="translate(360.44 -1156.159)" fill="#495abf"/></g><g transform="translate(0 0)"><path d="M-359.5,1162.816a.936.936,0,0,1-.671-.276.953.953,0,0,1,0-1.343l4.773-4.773a.951.951,0,0,1,1.343.029.95.95,0,0,1,0,1.313l-4.774,4.774A.939.939,0,0,1-359.5,1162.816Z" transform="translate(360.452 -1156.16)" fill="#495abf"/></g></g><g transform="translate(-633.637 1068.606)"><g transform="translate(0 5.284)"><path d="M-581.585,1080.817h-41.088a.888.888,0,0,1-.89-.888.89.89,0,0,1,.888-.89h41.089a.889.889,0,0,1,.89.889.889.889,0,0,1-.888.889Z" transform="translate(623.562 -1079.039)" fill="#495abf"/></g><g transform="translate(29.773)"><path d="M-585.744,1074.979h-4.038a.89.89,0,0,1-.888-.89.888.888,0,0,1,.888-.888h4.038a.889.889,0,0,1,.89.888.89.89,0,0,1-.889.89Z" transform="translate(590.67 -1073.201)" fill="#495abf"/></g><g transform="translate(37.252)"><path d="M-572.541,1074.979h-8.977a.889.889,0,0,1-.89-.889.888.888,0,0,1,.888-.889h8.978a.888.888,0,0,1,.89.888.889.889,0,0,1-.888.89Z" transform="translate(582.407 -1073.201)" fill="#495abf"/></g></g><g transform="translate(-590.625 1024.748)"><path d="M-568.085,1026.528h-7.067a.89.89,0,0,1-.892-.889.889.889,0,0,1,.889-.891h7.069a.89.89,0,0,1,.892.888.89.89,0,0,1-.889.892Z" transform="translate(576.043 -1024.748)" fill="#495abf"/></g><g transform="translate(-703.911 1091.677)"><path d="M-695.047,1100.15h-5.418a.73.73,0,0,1-.731-.73.73.73,0,0,1,.73-.731h5.42a.73.73,0,0,1,.731.73.73.73,0,0,1-.73.731Z" transform="translate(701.197 -1098.689)" fill="#495abf"/></g><g transform="translate(-667.85 1076.782)"><path d="M-656.16,1092.632a.892.892,0,0,1-.628-.259l-4.311-4.311a.893.893,0,0,1,0-1.258l4.311-4.31a.89.89,0,0,1,.628-.261h0a.894.894,0,0,1,.631.261l4.309,4.31a.889.889,0,0,1,0,1.258l-4.309,4.311A.89.89,0,0,1-656.16,1092.632Zm-3.054-5.2,3.053,3.053,3.053-3.053-3.053-3.052Z" transform="translate(661.359 -1082.233)" fill="#495abf"/></g><g transform="translate(-633.251 1039.366)"><g transform="translate(0.01)"><path d="M-617.773,1047.135a.891.891,0,0,1-.631-.26l-4.473-4.473a.89.89,0,0,1,.027-1.258.89.89,0,0,1,1.231,0l4.473,4.473a.89.89,0,0,1,0,1.257.892.892,0,0,1-.631.262Z" transform="translate(623.124 -1040.897)" fill="#495abf"/></g><g transform="translate(0 0)"><path d="M-622.247,1047.135a.881.881,0,0,1-.629-.26.893.893,0,0,1,0-1.258l4.473-4.473a.89.89,0,0,1,1.258.027.888.888,0,0,1,0,1.231l-4.472,4.473A.884.884,0,0,1-622.247,1047.135Z" transform="translate(623.136 -1040.897)" fill="#495abf"/></g></g><g transform="translate(-433.924 1216.54)"><path d="M-333.606,1243.769c-3.246-6.379-12.231-9.883-18.416-4.47-1.725,1.511-2.664,3.129-4.191,4.648-1.651,1.466-3.548,1.117-4.8-.66-2.186-3.1-4.2-4.282-8.11-4.52-4.073-.247-7.083,1.577-8.371,3.738-3.428,5.743-.778,9.676-4.726,12.693-4.6,2.469-7.321-1.952-13.841-1.634-5.063.245-7.958,5.793-6.484,10.034a2.83,2.83,0,0,0,2.776,1.991h74.985c3.992,0,8.39-.39,8.587-5.386a7.143,7.143,0,0,0-5.69-7.406c-5.275-.8-5.688,1.59-8.753.976C-333.743,1253.156-331.256,1247.126-333.606,1243.769Z" transform="translate(402.927 -1236.632)" fill="#a271dc"/></g><g transform="translate(-707.515 1168.24)"><g transform="translate(0 2.867)"><g transform="translate(12.961 23.117)"><path d="M-660.026,1214.077h-29.783a1.05,1.05,0,0,1-1.051-1.048,1.05,1.05,0,0,1,1.048-1.051h29.785a1.049,1.049,0,0,1,1.047,1.051,1.049,1.049,0,0,1-1.047,1.048Z" transform="translate(690.86 -1211.978)" fill="#855db5"/></g><g transform="translate(21.365 7.496)"><path d="M-659.52,1196.818h-21.009a1.049,1.049,0,0,1-1.047-1.051,1.048,1.048,0,0,1,1.047-1.047h21.009a1.048,1.048,0,0,1,1.047,1.05A1.05,1.05,0,0,1-659.52,1196.818Z" transform="translate(681.576 -1194.72)" fill="#f9e478"/></g><g transform="translate(34.598 15.87)"><path d="M-658.133,1206.068h-7.774a1.049,1.049,0,0,1-1.049-1.047,1.049,1.049,0,0,1,1.047-1.049h7.779a1.049,1.049,0,0,1,1.047,1.049,1.048,1.048,0,0,1-1.047,1.047Z" transform="translate(666.956 -1203.972)" fill="#855db5"/></g><g transform="translate(0 15.87)"><path d="M-673.885,1206.068H-704.13a1.049,1.049,0,0,1-1.049-1.047,1.049,1.049,0,0,1,1.047-1.049h30.246a1.048,1.048,0,0,1,1.048,1.047,1.048,1.048,0,0,1-1.047,1.049Z" transform="translate(705.179 -1203.972)" fill="#495abf"/></g><g transform="translate(7.78)"><path d="M-660.943,1188.536h-34.592a1.048,1.048,0,0,1-1.049-1.047,1.048,1.048,0,0,1,1.047-1.049h34.594a1.047,1.047,0,0,1,1.046,1.049A1.048,1.048,0,0,1-660.943,1188.536Z" transform="translate(696.584 -1186.439)" fill="#495abf"/></g></g><g transform="translate(44.597 1.781)"><path d="M-613.581,1208.655a3.627,3.627,0,0,1-3.589,3.653h-35.151a3.627,3.627,0,0,1-3.589-3.653v-19.762a3.627,3.627,0,0,1,3.589-3.653h35.151a3.627,3.627,0,0,1,3.589,3.653Z" transform="translate(655.91 -1185.24)" fill="#f3f3ff"/></g><g transform="translate(42.816 0)"><path d="M-617.357,1183.272h-35.151a5.407,5.407,0,0,0-5.37,5.435v19.762a5.407,5.407,0,0,0,5.37,5.435h35.151a5.41,5.41,0,0,0,5.37-5.435v-19.762A5.41,5.41,0,0,0-617.357,1183.272Zm3.589,25.2a3.626,3.626,0,0,1-3.589,3.653h-35.151a3.626,3.626,0,0,1-3.589-3.653v-19.762a3.627,3.627,0,0,1,3.589-3.653h35.151a3.627,3.627,0,0,1,3.589,3.653Z" transform="translate(657.877 -1183.272)" fill="#495abf"/><g transform="translate(5.484 6.097)"><path d="M-617.192,1190.358a.892.892,0,0,0-1.251-.165h0l-15.915,12.252-16.026-12.256a.891.891,0,0,0-1.249.167.891.891,0,0,0,.167,1.249l10.655,8.145-10.655,8.191a.892.892,0,0,0-.164,1.251.893.893,0,0,0,.707.348.877.877,0,0,0,.541-.186l11.034-8.487,4.452,3.4a.878.878,0,0,0,.54.183.89.89,0,0,0,.544-.183l4.413-3.4,10.954,8.481a.883.883,0,0,0,.543.189.893.893,0,0,0,.89-.894.9.9,0,0,0-.343-.7l-10.586-8.2,10.583-8.145A.892.892,0,0,0-617.192,1190.358Z" transform="translate(651.818 -1190.008)" fill="#855db5"/></g></g></g><g transform="translate(-434.813 1094.657)"><g transform="translate(1.79)"><path d="M-370.289,1128.532a20.455,20.455,0,0,1-20.456,20.454A20.454,20.454,0,0,1-411.2,1128.53a20.454,20.454,0,0,1,20.456-20.454h0a20.454,20.454,0,0,1,20.453,20.454Z" transform="translate(411.198 -1108.076)" fill="#fff"/></g><g transform="translate(0 5.479)"><g transform="translate(6.386 3.208)"><g transform="translate(0.825 0.816)"><path d="M-405.835,1117.477l4.4,17.154h20.419a3.374,3.374,0,0,0,3.374-3.374v-13.78Z" transform="translate(405.835 -1117.477)" fill="#f3f3ff"/></g><path d="M-381.02,1135.456h-20.419a.817.817,0,0,1-.79-.614l-4.4-17.154a.817.817,0,0,1,.592-.993.771.771,0,0,1,.2-.025h28.189a.816.816,0,0,1,.816.816h0v13.78A4.2,4.2,0,0,1-381.02,1135.456Zm-19.782-1.632h19.782a2.561,2.561,0,0,0,2.558-2.558V1118.3H-404.78Z" transform="translate(406.651 -1116.67)" fill="#495abf"/></g><path d="M-401.368,1135.49a.807.807,0,0,1-.788-.606l-4.921-18.765-5.2-1a.817.817,0,0,1-.681-.932.817.817,0,0,1,.932-.68l.053.01,5.706,1.1a.818.818,0,0,1,.635.592l5.054,19.264a.814.814,0,0,1-.58.994h0A.789.789,0,0,1-401.368,1135.49Z" transform="translate(412.969 -1113.497)" fill="#495abf"/><g transform="translate(7.1 20.362)"><path d="M-377.654,1139.544h-25.338a2.953,2.953,0,0,1-2.953-2.952,2.953,2.953,0,0,1,2.953-2.953h21.457a.815.815,0,0,1,.815.817.816.816,0,0,1-.815.815h-21.457a1.321,1.321,0,0,0-1.322,1.322,1.321,1.321,0,0,0,1.322,1.321h25.337a.814.814,0,0,1,.816.814.814.814,0,0,1-.814.816h0Z" transform="translate(405.945 -1133.64)" fill="#495abf"/></g><g transform="translate(11.855 23.289)"><g transform="translate(0.817 0.813)"><path d="M-394.868,1140.124a2.783,2.783,0,0,1-2.785,2.781,2.782,2.782,0,0,1-2.78-2.785,2.782,2.782,0,0,1,2.782-2.781,2.783,2.783,0,0,1,2.783,2.783Z" transform="translate(400.433 -1137.339)" fill="#f9e478"/></g><path d="M-397.642,1143.732a3.6,3.6,0,0,1-3.6-3.6,3.6,3.6,0,0,1,3.6-3.6,3.6,3.6,0,0,1,3.6,3.6h0A3.6,3.6,0,0,1-397.642,1143.732Zm0-5.569a1.967,1.967,0,0,0-1.969,1.967,1.968,1.968,0,0,0,1.967,1.969,1.968,1.968,0,0,0,1.969-1.967h0A1.971,1.971,0,0,0-397.642,1138.164Z" transform="translate(401.241 -1136.535)" fill="#495abf"/></g><g transform="translate(24.761 23.289)"><g transform="translate(0.817 0.813)"><path d="M-382.1,1140.124a2.783,2.783,0,0,1-2.785,2.781,2.782,2.782,0,0,1-2.78-2.785,2.782,2.782,0,0,1,2.782-2.781,2.783,2.783,0,0,1,2.783,2.783Z" transform="translate(387.665 -1137.339)" fill="#f9e478"/></g><path d="M-384.874,1143.732a3.6,3.6,0,0,1-3.6-3.6,3.6,3.6,0,0,1,3.6-3.6,3.6,3.6,0,0,1,3.6,3.6h0A3.6,3.6,0,0,1-384.874,1143.732Zm0-5.569a1.968,1.968,0,0,0-1.967,1.969,1.967,1.967,0,0,0,1.969,1.967,1.969,1.969,0,0,0,1.967-1.967A1.973,1.973,0,0,0-384.874,1138.164Z" transform="translate(388.473 -1136.535)" fill="#495abf"/></g><g transform="translate(17.086 3.209)"><path d="M-395.249,1135.456a.816.816,0,0,1-.817-.816h0v-17.154a.817.817,0,0,1,.818-.815.815.815,0,0,1,.814.815v17.154A.815.815,0,0,1-395.249,1135.456Z" transform="translate(396.066 -1116.671)" fill="#495abf"/></g><g transform="translate(25.715 3.209)"><path d="M-386.713,1135.456a.816.816,0,0,1-.817-.816h0v-17.154a.817.817,0,0,1,.818-.815.815.815,0,0,1,.814.815v17.154A.815.815,0,0,1-386.713,1135.456Z" transform="translate(387.53 -1116.671)" fill="#495abf"/></g><g transform="translate(8.587 11.785)"><path d="M-377.961,1126.787h-25.695a.817.817,0,0,1-.818-.815.817.817,0,0,1,.815-.817h25.7a.816.816,0,0,1,.817.815.817.817,0,0,1-.815.817Z" transform="translate(404.474 -1125.155)" fill="#495abf"/></g></g></g><path d="M0,0H420V11.464H0Z" transform="translate(-729.813 1333.352)" fill="#74519f"/></g></svg>