<svg xmlns="http://www.w3.org/2000/svg" width="295" height="262" viewBox="0 0 295 262"><g transform="translate(-2570.191 -2527.102)"><rect width="295" height="262" transform="translate(2570.191 2527.102)" fill="#f0e8fc"/><rect width="294" height="261" transform="translate(2570.691 2527.602)" fill="#f0e8fc"/><path d="M2865.191,2788.6v-93.578l-132.664-79.235-161.336,99.746V2788.6Z" fill="#caccf9"/><path d="M2823.417,2697.917l-116.184,67.042-95.267-55.364,115.73-67.414Z" fill="#babbf3"/><path d="M2823.417,2686.4l-116.184,67.414-95.143-55.24-.034-2.742,115.64-64.8,95.721,52.779Z" fill="#6a3782"/><path d="M2823.417,2683.793l-116.184,67.414-95.267-55.364,115.73-67.414Z" fill="#fff"/><path d="M2823.417,2683.917l-116.184,67.414-95.267-55.364,115.73-67.414Z" fill="#fff"/><path d="M2740.033,2671.052l0,1.036a3.577,3.577,0,0,0,1.788,3.092h0a3.576,3.576,0,0,0,5.365-3.1v-1.035a3.578,3.578,0,0,0-1.778-3.09h0A3.577,3.577,0,0,0,2740.033,2671.052Z" fill="#fff"/><path d="M2761.367,2687.808l8.854-5.41-50.661-30-3.357,2.081" fill="#e8eaf7"/><ellipse cx="9.45" cy="5.864" rx="9.45" ry="5.864" transform="translate(2793.128 2673.595)" fill="#e8eaf7"/><ellipse cx="11.716" cy="7.27" rx="11.716" ry="7.27" transform="translate(2737.25 2653.265)" fill="#e8eaf7"/><path d="M2640.887,2696.506v8.255l45.165,26.359,75.315-43.229v-7.034l-6.679-3.9L2716.2,2661.51l-64.177,29.82-10.967,5.1Z" fill="#4346a3"/><path d="M2686.052,2722.887v8.255l-45.165-26.381v-8.435Z" fill="#364085"/><path d="M2640.887,2697.727l45.165,26.359,75.315-43.229-6.679-3.9-38.485-22.48-64.177,36.854-9.933,5.7Z" fill="#d1d4f5"/><path d="M2710.521,2596.221l6.189,3.7-5.58,50.312-70.24,47.639-5.58-4.079v-54.11Z" fill="#4346a3"/><path d="M2716.71,2599.926v54.391l-75.82,43.56v-54.11Z" fill="#d1d4f5"/><path d="M2712.5,2605.412v48.351l-67.4,38.722v-48.1Z" fill="#4346a3"/><path d="M2711.522,2606.674v46.948l-65.444,37.6v-46.705Z" fill="#fff"/><path d="M2694.2,2690.873l-4.258-2.483-4.593,2.679,4.258,2.483Z" fill="#364085"/><path d="M2700.747,2687.055l-4.258-2.483-4.593,2.678,4.258,2.483Z" fill="#364085"/><path d="M2698.777,2675.992l4.258,2.483,4.593-2.678-4.258-2.483Z" fill="#364085"/><path d="M2692.231,2679.81l4.258,2.483,4.593-2.679-4.258-2.483Z" fill="#364085"/><path d="M2681.109,2698.509l-4.258-2.483-4.593,2.678,4.258,2.483Z" fill="#364085"/><path d="M2666.046,2695.081l4.258,2.483,4.593-2.678-4.258-2.483Z" fill="#364085"/><path d="M2685.685,2683.628l4.258,2.483,4.593-2.679-4.258-2.483Z" fill="#364085"/><path d="M2687.655,2694.691l-4.258-2.483-4.593,2.679,4.258,2.483Z" fill="#364085"/><path d="M2668.686,2691.264l-4.552-2.655-4.628,2.658,4.587,2.676Z" fill="#364085"/><path d="M2678.469,2702.326l4.142,2.416-.12.205,4.829-2.816-4.258-2.483Z" fill="#364085"/><path d="M2685.015,2698.509l4.212,2.457-.047.081,4.686-2.733-4.258-2.483Z" fill="#364085"/><path d="M2707.293,2683.238l-4.258-2.483-4.593,2.679,4.158,2.425-.1.176Z" fill="#364085"/><path d="M2657.538,2692.4l-4.8,2.756,4.636,2.708,4.766-2.78Z" fill="#364085"/><path d="M2672.593,2691.264l4.258,2.483,4.593-2.679-4.258-2.483Z" fill="#364085"/><path d="M2713.839,2679.42l-4.258-2.483-4.593,2.678,4.258,2.483Z" fill="#364085"/><path d="M2679.139,2687.446l4.258,2.483,4.593-2.679-4.258-2.483Z" fill="#364085"/><path d="M2720.385,2675.6l-4.258-2.483-4.593,2.679,4.258,2.483Z" fill="#364085"/><path d="M2681.778,2683.628l-4.45-2.6-4.628,2.658,4.486,2.616Z" fill="#364085"/><path d="M2709.247,2684.377l-17.685,10.314,4.258,2.483,17.685-10.314Z" fill="#364085"/><path d="M2670.3,2699.843l-4.773,2.783,4.255,2.485,4.776-2.785Z" fill="#364085"/><path d="M2671.738,2706.252l4.255,2.485,4.781-2.788-4.258-2.483Z" fill="#364085"/><path d="M2720.051,2683.042l-4.258-2.483-4.593,2.679,4.258,2.483Z" fill="#364085"/><path d="M2726.6,2679.225l-4.258-2.483-4.593,2.678L2722,2681.9Z" fill="#364085"/><path d="M2696.182,2699.778l13.475,7.871,21.169-12.151-13.648-7.965Z" fill="#364085"/><path d="M2664.093,2696.22l-4.768,2.781,4.255,2.485,4.771-2.783Z" fill="#364085"/><path d="M2714.846,2664.343l-4.194-2.448-4.97,2.854,4.233,2.469Z" fill="#364085"/><path d="M2728.55,2678.085l4.924-2.872-4.257-2.484-4.925,2.873Z" fill="#364085"/><path d="M2707.963,2668.357l-4.248-2.478-4.628,2.658,4.284,2.5Z" fill="#364085"/><path d="M2694.871,2675.992l-4.349-2.537-4.628,2.658,4.385,2.557Z" fill="#364085"/><path d="M2701.417,2672.175l-4.3-2.507-4.628,2.658,4.334,2.528Z" fill="#364085"/><path d="M2688.324,2679.81l-4.4-2.566-4.628,2.658,4.436,2.587Z" fill="#364085"/><path d="M2675.232,2687.446l-4.5-2.625-4.628,2.658,4.537,2.646Z" fill="#364085"/><path d="M2722.339,2674.463l4.926-2.873-4.257-2.484-4.927,2.874Z" fill="#364085"/><path d="M2705.323,2672.175l4.258,2.483,4.593-2.679-4.258-2.483Z" fill="#364085"/><path d="M2716.127,2670.84l4.928-2.874-4.256-2.484-4.93,2.875Z" fill="#364085"/><path d="M2694.2,2690.1l-4.258-2.483-4.593,2.679,4.258,2.483Z" fill="#3066c8"/><path d="M2700.747,2686.281l-4.258-2.483-4.593,2.679,4.258,2.483Z" fill="#3066c8"/><path d="M2698.777,2675.218l4.258,2.483,4.593-2.679-4.258-2.483Z" fill="#3066c8"/><path d="M2692.231,2679.036l4.258,2.483,4.593-2.678-4.258-2.483Z" fill="#3066c8"/><path d="M2681.109,2697.734l-4.258-2.483-4.593,2.679,4.258,2.483Z" fill="#3066c8"/><path d="M2666.046,2694.307l4.258,2.483,4.593-2.679-4.258-2.483Z" fill="#3066c8"/><path d="M2685.685,2682.854l4.258,2.483,4.593-2.679-4.258-2.483Z" fill="#3066c8"/><path d="M2687.655,2693.917l-4.258-2.483-4.593,2.678,4.258,2.483Z" fill="#3066c8"/><path d="M2668.686,2690.489l-4.552-2.655-4.628,2.658,4.587,2.675Z" fill="#3066c8"/><path d="M2678.469,2701.552l4.142,2.416-.12.205,4.829-2.816-4.258-2.483Z" fill="#3066c8"/><path d="M2685.015,2697.734l4.212,2.457-.047.081,4.686-2.733-4.258-2.483Z" fill="#3066c8"/><path d="M2707.293,2682.463l-4.258-2.483-4.593,2.678,4.158,2.425-.1.176Z" fill="#3066c8"/><path d="M2657.538,2691.623l-4.8,2.756,4.636,2.708,4.766-2.78Z" fill="#3066c8"/><path d="M2672.593,2690.489l4.258,2.483,4.593-2.678-4.258-2.483Z" fill="#3066c8"/><path d="M2713.839,2678.646l-4.258-2.483-4.593,2.679,4.258,2.483Z" fill="#3066c8"/><path d="M2679.139,2686.672l4.258,2.483,4.593-2.679-4.258-2.483Z" fill="#3066c8"/><path d="M2720.385,2674.828l-4.258-2.483-4.593,2.679,4.258,2.483Z" fill="#3066c8"/><path d="M2681.778,2682.854l-4.45-2.6-4.628,2.658,4.486,2.616Z" fill="#3066c8"/><path d="M2709.247,2683.6l-17.685,10.314,4.258,2.483,17.685-10.314Z" fill="#3066c8"/><path d="M2670.3,2699.069l-4.773,2.783,4.255,2.485,4.776-2.785Z" fill="#3066c8"/><path d="M2671.738,2705.478l4.255,2.485,4.781-2.788-4.258-2.483Z" fill="#3066c8"/><path d="M2720.051,2682.268l-4.258-2.483-4.593,2.679,4.258,2.483Z" fill="#3066c8"/><path d="M2726.6,2678.45l-4.258-2.483-4.593,2.679,4.258,2.483Z" fill="#3066c8"/><path d="M2696.182,2699l13.475,7.871,21.169-12.151-13.648-7.965Z" fill="#3066c8"/><path d="M2664.093,2695.446l-4.768,2.781,4.255,2.485,4.771-2.782Z" fill="#3066c8"/><path d="M2714.846,2663.568l-4.194-2.448-4.97,2.854,4.233,2.469Z" fill="#3066c8"/><path d="M2728.55,2677.311l4.924-2.872-4.257-2.484-4.925,2.872Z" fill="#3066c8"/><path d="M2707.963,2667.583l-4.248-2.478-4.628,2.658,4.284,2.5Z" fill="#3066c8"/><path d="M2694.871,2675.218l-4.349-2.537-4.628,2.658,4.385,2.557Z" fill="#3066c8"/><path d="M2701.417,2671.4l-4.3-2.507-4.628,2.658,4.334,2.528Z" fill="#3066c8"/><path d="M2688.324,2679.036l-4.4-2.566-4.628,2.658,4.436,2.587Z" fill="#3066c8"/><path d="M2675.232,2686.672l-4.5-2.625-4.628,2.658,4.537,2.646Z" fill="#3066c8"/><path d="M2722.339,2673.688l4.926-2.873-4.257-2.484-4.927,2.874Z" fill="#3066c8"/><path d="M2705.323,2671.4l4.258,2.483,4.593-2.679-4.258-2.483Z" fill="#3066c8"/><path d="M2716.127,2670.066l4.928-2.874-4.256-2.484-4.93,2.875Z" fill="#3066c8"/><path d="M2635.339,2639.775v54.2l5.614,3.871v-54.007Z" fill="#364085"/><path d="M2648.594,2676.317l42.99-24.7v-30.426l-42.99,24.858Z" fill="#e8eaf7"/><g style="mix-blend-mode:multiply;isolation:isolate"><path d="M2666.21,2676.51l42.99-24.7v-30.426l-42.99,24.858Z" fill="#e8eaf7"/></g><path d="M2611.851,2650.805v22.147l2.043,1.309.108.07,2.042-1.181v-19.873l-2.139-1.262Z" fill="#9f66f5"/><path d="M2611.851,2650.805l2.053,1.21,2.139,1.262,42.718-24.688v-2.3l-.19-.1-2.1-1.077Z" fill="#fb95e1"/><path d="M2613.894,2652.022v22.372l.108-.062,2.042-1.181,42.718-24.7v-22.372l-.19.11-44.667,25.828Z" fill="#f8778d"/><path d="M2653.542,2640.218l.19-.11v2.58l-.19.11-19.424,11.231v-2.58Z" fill="#fff"/><path d="M2653.732,2645.161v2.58l-.19.11-19.424,11.231v-2.58l19.424-11.231Z" fill="#fff"/><line x2="13.606" y2="8.232" transform="translate(2617.654 2653.278)" fill="none" stroke="#fff" stroke-miterlimit="10" stroke-width="1"/><line x1="10.276" y2="18.78" transform="translate(2618.646 2649.664)" fill="none" stroke="#fff" stroke-miterlimit="10" stroke-width="1"/><path d="M2698.766,2639.911v15.11l1.394.893.074.048,1.393-.805V2641.6l-1.46-.861Z" fill="#3066c8"/><path d="M2698.766,2639.911l1.4.826,1.46.861,29.145-16.844v-1.572l-.13-.067-1.436-.735Z" fill="#4d86ed"/><path d="M2700.159,2640.741V2656l.074-.043,1.393-.805,29.145-16.853V2623.04l-.13.075-30.475,17.622Z" fill="#2ed4e2"/><path d="M2727.21,2632.687l.13-.075v1.76l-.13.075-14.71,8.506v-1.76Z" fill="#fff"/><path d="M2727.34,2636.06v1.76l-.13.075-14.71,8.506v-1.76l14.71-8.506Z" fill="#fff"/><path d="M2749.4,2651.318l3.483,1.274c1.37.637.151,3.69.151,3.69l-.8.429s-6.52,3.61-8.256,1.971S2744.728,2654.222,2749.4,2651.318Z" fill="#4346a3"/><path d="M2757.242,2656.2l3.962.855c1.579.482.719,3.971.719,3.971l-.8.584s-6.513,4.89-8.639,3.377S2752.625,2660.05,2757.242,2656.2Z" fill="#364085"/><path d="M2743,2605.69l4.186,47.089a7.645,7.645,0,0,0,7.322.259l1.587-44.809Z" fill="#364085"/><path d="M2762.192,2610.205c-.022,4.141.632,47.238.632,47.238-4.711,2.094-6.979-.349-6.979-.349s-2.664-22.83-3.838-27.042c-1.483-5.321-5.757-14.481-8.462-25.5Z" fill="#4346a3"/><path d="M2742.473,2607.026c.016.337.026.52.026.52a30.987,30.987,0,0,0,20.412,4.885c.7-8.025-1.183-10.5-.087-17.621.931-6.05,3.792-13.271,3.8-15.657a1.164,1.164,0,0,0-.139-.656c-.873-1.221-.884-6.628-16.662-9.682-5.408-1.047-6.28,5.059-7.327,12.038C2741.553,2587.159,2742.316,2603.866,2742.473,2607.026Z" fill="#f8778d"/><g opacity="0.35" style="mix-blend-mode:multiply;isolation:isolate"><path d="M2742.473,2607.026c.016.337.026.52.026.52a30.987,30.987,0,0,0,20.412,4.885c.7-8.025-1.183-10.5-.087-17.621.931-6.05,3.792-13.271,3.8-15.657-4.875,9.825-7.21,9.881-7.99,20.019C2757.941,2608.22,2749.212,2608.685,2742.473,2607.026Z" fill="#f8778d"/></g><path d="M2764.726,2575.327c7.17,2.734-.157,23.147-1.379,24.542s-18.144-5.757-18.144-5.757l1.047-5.5,11.863,2.181,1.4-8.025C2760.818,2574.223,2764.726,2575.327,2764.726,2575.327Z" fill="#e5738b"/><path d="M2750.228,2573.812c3.012,1.825,6.663-2.921,6.663-2.921l-.456-5.385-.349.136-5.037,1.963v2.282s-.185.159-.432.417C2749.87,2571.091,2748.567,2572.8,2750.228,2573.812Z" fill="#ffbd8b"/><path d="M2750.617,2570.3c1.135,2.19,4.437.812,5.726-4.342l-.257-.32-5.037,1.963v2.282S2750.864,2570.046,2750.617,2570.3Z" fill="#ffbd8b" style="mix-blend-mode:multiply;isolation:isolate"/><path d="M2747.635,2556.857s-2.171,11.465,4.318,12.366c7.066.981,7.066-9.814,7.066-9.814l-6.673-4.318-2.748-.589Z" fill="#ffbd8b"/><path d="M2748.129,2557.83a2.631,2.631,0,0,0-.843,2.364s-1.81-.392-1.221-4.711c.981-6.477,11.58-7.262,13.935-1.962,3.73,4.122-.981,9.028-.981,9.028l-3.26.63a2.591,2.591,0,0,1-.795-2.393C2748.309,2560.618,2748.129,2557.83,2748.129,2557.83Z" fill="#4346a3"/><circle cx="1.865" cy="1.865" r="1.865" transform="translate(2755.682 2560.783)" fill="#ffbd8b"/><path d="M2747.585,2581.016c-.5-4.372,1.255-2.55,1.255-2.55,2.186-6.019,8.107-2.227,2.16,3.914" fill="#ffbd8b"/><path d="M2746.723,2569.169c-16.262,7.933-10.082,26.537-4.66,25.292s9.072-12.3,9.072-12.3l-3.664-1.832-5.364,5.655a57.718,57.718,0,0,1,1.09-9.493C2744.243,2571.17,2746.723,2569.169,2746.723,2569.169Z" fill="#e5738b"/><path d="M2741.452,2589.75c.785-1.4,3.4-.785,3.4-.785s-.087-1.483,1.483.262l-1.016,4.264C2741.888,2593.5,2740.667,2591.146,2741.452,2589.75Z" fill="#ffbd8b"/><path d="M2810.171,2660.164l-1.744,12.924-.02.152-.018.125-1.155,8.556-.214,1.588-.005.03,0,.042h-.076a14.645,14.645,0,0,1-17.539,0h-.055l-.006-.051-.014-.124-.018-.143-1.155-9.915-.019-.158-.006-.054-1.512-12.972Z" fill="#f8778d"/><ellipse cx="11.78" cy="8.772" rx="11.78" ry="8.772" transform="translate(2786.611 2651.382)" fill="#f4bbc4"/><ellipse cx="9.095" cy="6.773" rx="9.095" ry="6.773" transform="translate(2789.469 2652.841)" fill="#364085"/><path d="M2798.029,2656.387c4.515,0,8.261,2.45,8.972,5.663a5.279,5.279,0,0,0,.66-2.536c0-3.741-4.072-6.773-9.095-6.773s-9.095,3.032-9.095,6.773a5.119,5.119,0,0,0,.123,1.11C2790.942,2658.14,2794.21,2656.387,2798.029,2656.387Z" fill="#4346a3"/><path d="M2803.368,2638.675s-9.469,12.8-5.118,24.57h0a9.212,9.212,0,0,0,1.9-1.867,9.082,9.082,0,0,0,1.193-2.1C2806.176,2647.336,2803.368,2638.675,2803.368,2638.675Z" fill="#2ed4e2"/><path d="M2794.456,2641.752s8.284,11.194,4.477,21.493h0a8.091,8.091,0,0,1-1.666-1.633,7.966,7.966,0,0,1-1.043-1.835C2792,2649.329,2794.456,2641.752,2794.456,2641.752Z" fill="#3cebce"/><path d="M2809.394,2643.874s-11.06,8.462-10.254,19.412h0a8.056,8.056,0,0,0,2.053-1.108,7.96,7.96,0,0,0,1.511-1.474C2809.656,2651.834,2809.394,2643.874,2809.394,2643.874Z" fill="#3cebce"/><path d="M2787.192,2638.623s13.01,11.149,11.275,24.546h0a9.911,9.911,0,0,1-2.446-1.5,9.794,9.794,0,0,1-1.756-1.913C2786.328,2648.384,2787.192,2638.623,2787.192,2638.623Z" fill="#2ed4e2"/><path d="M2819.379,2649.667s-15.251,2.488-20.2,13.623h0a8.943,8.943,0,0,0,2.588-.009,8.816,8.816,0,0,0,2.25-.651C2815.467,2657.592,2819.379,2649.667,2819.379,2649.667Z" fill="#2ed4e2"/><path d="M2778.151,2649.667s15.252,2.488,20.2,13.623h0a8.949,8.949,0,0,1-2.589-.009,8.816,8.816,0,0,1-2.25-.651C2782.064,2657.592,2778.151,2649.667,2778.151,2649.667Z" fill="#3cebce"/><path d="M2702.622,2646.687l3.26,2.261,4.383-10.241" fill="none" stroke="#fff" stroke-miterlimit="10" stroke-width="1"/></g></svg>