<svg xmlns="http://www.w3.org/2000/svg" width="295" height="262" viewBox="0 0 295 262"><g transform="translate(-1855.183 -2527.102)"><rect width="295" height="262" transform="translate(1855.183 2527.102)" fill="#f0e8fc"/><rect width="294" height="261" transform="translate(1855.683 2527.602)" fill="#f0e8fc"/><path d="M2150.183,2788.6v-93.578l-132.664-79.235-161.336,99.746V2788.6Z" fill="#caccf9"/><path d="M2108.409,2697.917l-116.185,67.042-95.267-55.364,115.73-67.414Z" fill="#babbf3"/><path d="M2108.409,2686.4l-116.185,67.414-95.143-55.24-.034-2.742,115.64-64.8,95.722,52.779Z" fill="#6a3782"/><path d="M2108.409,2683.793l-116.185,67.414-95.267-55.364,115.73-67.414Z" fill="#fff"/><path d="M2108.409,2683.917l-116.185,67.414-95.267-55.364,115.73-67.414Z" fill="#fff"/><path d="M2060.54,2683.757a5.135,5.135,0,0,0,1.426-3.943,14.915,14.915,0,0,0-6.77-11.676c-3.739-2.159-6.769-.431-6.769,3.86a14.985,14.985,0,0,0,4.151,9.561,5.136,5.136,0,0,0-1.426,3.943,14.918,14.918,0,0,0,6.77,11.677c3.739,2.158,6.77.43,6.77-3.86A14.988,14.988,0,0,0,2060.54,2683.757Z" fill="#90e08c"/><path d="M1998.78,2647.6a14.914,14.914,0,0,0-6.769-11.676c-3.739-2.159-6.77-.431-6.77,3.859a10.871,10.871,0,0,0,.287,2.4c-2.091.115-3.508,1.849-3.508,4.782a14.918,14.918,0,0,0,6.77,11.677c3.738,2.158,6.769.43,6.769-3.86a10.918,10.918,0,0,0-.286-2.4C1997.364,2652.27,1998.78,2650.535,1998.78,2647.6Z" fill="#90e08c"/><path d="M1994.816,2551.244l-7.093,3.385,7.308,105.962,53.142,38.2,7.146-3.385-.107-109.025Z" fill="#7b66a9"/><path d="M1987.723,2554.629l.161,109.348,60.289,34.819-.054-109.025Z" fill="#babbf3"/><path d="M2011.173,2672.144v.869a3,3,0,0,0,1.5,2.594h0a3,3,0,0,0,4.5-2.6v-.868a3,3,0,0,0-1.491-2.592h0A3,3,0,0,0,2011.173,2672.144Z" fill="#fff"/><path d="M2045.328,2680.771l-.038-78.421a5.561,5.561,0,0,0-2.782-4.816l-48.353-27.926a2.385,2.385,0,0,0-3.578,2.069l.115,78.076a5.565,5.565,0,0,0,2.766,4.8l48.444,28.187A2.279,2.279,0,0,0,2045.328,2680.771Z" fill="#fff"/><path d="M2048.173,2589.771l7.146-3.385-60.5-35.142-7.093,3.385Z" fill="#a89ddf"/><path d="M2029.34,2582.4l-5.562-3.236v3.687l5.563,3.213Z" fill="#fff"/><path d="M2006.4,2572.813l13.832,7.988v-3.7l-13.837-8.051Z" fill="#fff"/><path d="M2011.049,2672.02v.869a3,3,0,0,0,1.5,2.594h0a3,3,0,0,0,4.5-2.6v-.868a3,3,0,0,0-1.491-2.592h0A3,3,0,0,0,2011.049,2672.02Z" fill="#fff"/><path d="M2045.2,2680.647a2.279,2.279,0,0,1-3.426,1.971l-48.445-28.187a5.566,5.566,0,0,1-2.766-4.8l-.1-69.311-.013-8.765a2.386,2.386,0,0,1,3.58-2.069l48.351,27.925a5.569,5.569,0,0,1,2.783,4.817l.005,9.894Z" fill="#fff"/><path d="M2045.171,2612.12l-54.706-31.8-.013-8.765a2.386,2.386,0,0,1,3.58-2.069l48.351,27.925a5.569,5.569,0,0,1,2.783,4.817Z" fill="#e65c9a"/><path d="M1996.285,2578.949l4.708,2.737V2577.6l-4.708-2.737Z" fill="#7b66a9"/><path d="M2004.214,2579.469v4.088l36.177,21.031V2600.5Z" fill="#7b66a9"/><path d="M1994.8,2578.949l4.708,2.737V2577.6l-4.708-2.737Z" fill="#fff"/><path d="M2002.728,2579.469v4.088l36.177,21.031V2600.5Z" fill="#fff"/><path d="M2040.492,2675.38l-46.856-27.061-.04-26.623-.05-33.74,46.916,27.3.014,26.5v2.857l.014,29.168Z" fill="#efddf5"/><path d="M2040.49,2673.778l-45.368-26.2-.04-26.623,17.433-9.62,10.407,27.133,11.4-5.451,6.155,8.739v2.857Z" fill="#7b66a9"/><path d="M2040.492,2675.38l-46.856-27.061-.04-26.623,17.433-9.62,10.407,27.133,11.4-5.451,7.643,10.853Z" fill="#e65c9a"/><path d="M1975.187,2572.306l-2.277,1.087,28.278,16.439,2.285-1.082Z" fill="#f3ab45"/><path d="M2001.2,2603.535v-13.724l-28.291-16.521v13.724Z" fill="#ffd47c"/><path d="M1984.045,2583.413v2.414l14.145,8.26v-2.414Z" fill="#fff"/><path d="M1984.045,2590.316l14.145,8.26v-2.414l-14.145-8.26Z" fill="#fff"/><ellipse cx="3.299" cy="5.714" rx="3.299" ry="5.714" transform="translate(1972.615 2580.297) rotate(-30.311)" fill="#fff"/><path d="M2001.17,2589.809v13.728l2.278-1.538v-13.272Z" fill="#d89341"/><path d="M2022.114,2710.851a2.634,2.634,0,0,0,1.314-.316l8.7-4.82a1.393,1.393,0,0,0,.754-1.2,1.62,1.62,0,0,0-.908-1.364l-32.305-17.049a3.236,3.236,0,0,0-1.6-.406,2.627,2.627,0,0,0-1.314.317l-8.7,4.82a1.387,1.387,0,0,0-.754,1.2,1.62,1.62,0,0,0,.908,1.364l32.3,17.05A3.242,3.242,0,0,0,2022.114,2710.851Z" fill="#debceb" opacity="0.5"/><path d="M1996.209,2646.83l4.865-1.682,1.823-2.226,2.365,46.235-9.345-9.419Z" fill="#14afb2"/><path d="M2032.608,2704.96l-27.373-15.8-2.365-46.235,27.373,15.8Z" fill="#31d9e7"/><path d="M2022.387,2698.3l.149,12.541,10.067-5.886Z" fill="#24cece"/><path d="M2023.555,2662.633l2.256-2.82,4.432-1.088,2.365,46.235-10.1-6.477Z" fill="#14afb2"/><path d="M2022.536,2710.842l-27.373-15.8,1.019-48.209,27.373,15.8Z" fill="#31d9e7"/><path d="M2006.334,2658.733c0,.629-.444.883-.993.566a2.191,2.191,0,0,1-.993-1.713c0-.63.445-.883.993-.567A2.188,2.188,0,0,1,2006.334,2658.733Z" fill="#c7bcd6" style="mix-blend-mode:multiply;isolation:isolate"/><path d="M2016.266,2664.373c0,.63-.445.883-.994.566a2.187,2.187,0,0,1-.993-1.713c0-.629.445-.883.993-.566A2.189,2.189,0,0,1,2016.266,2664.373Z" fill="#c7bcd6" style="mix-blend-mode:multiply;isolation:isolate"/><path d="M2005.794,2658.906a2.19,2.19,0,0,1-.993-1.713,1.021,1.021,0,0,1,.047-.3c-.3.025-.5.273-.5.7a2.188,2.188,0,0,0,.993,1.713c.448.259.822.132.946-.264A.848.848,0,0,1,2005.794,2658.906Z" fill="#c7bcd6" style="mix-blend-mode:multiply;isolation:isolate"/><path d="M2015.726,2664.547a2.19,2.19,0,0,1-.994-1.714.984.984,0,0,1,.048-.3c-.3.025-.5.273-.5.7a2.187,2.187,0,0,0,.993,1.713c.448.259.823.133.947-.264A.841.841,0,0,1,2015.726,2664.547Z" fill="#c7bcd6" style="mix-blend-mode:multiply;isolation:isolate"/><path d="M2011.558,2675.758a4.256,4.256,0,0,1-2.328-.7,9.193,9.193,0,0,1-4.188-7.727v-7.8a.484.484,0,0,1,.967,0v7.8a8.224,8.224,0,0,0,3.749,6.916,3.309,3.309,0,0,0,5.115-2.772v-6.414a.483.483,0,1,1,.966,0v6.414a4.218,4.218,0,0,1-2.237,3.759A4.276,4.276,0,0,1,2011.558,2675.758Z" fill="#c7bcd6" style="mix-blend-mode:multiply;isolation:isolate"/><path d="M2011.377,2674.308a4.247,4.247,0,0,1-2.328-.7,9.189,9.189,0,0,1-4.188-7.726v-7.8a.484.484,0,1,1,.967,0v7.8a8.227,8.227,0,0,0,3.748,6.916,3.309,3.309,0,0,0,5.115-2.772v-6.414a.483.483,0,0,1,.967,0v6.414a4.214,4.214,0,0,1-2.238,3.758A4.274,4.274,0,0,1,2011.377,2674.308Z" fill="#c7bcd6"/><path d="M2010.466,2652.618c0,.629-.445.883-.993.566a2.188,2.188,0,0,1-.994-1.713c0-.63.445-.883.994-.566A2.187,2.187,0,0,1,2010.466,2652.618Z" fill="#c7bcd6" style="mix-blend-mode:multiply;isolation:isolate"/><path d="M2020.4,2658.258c0,.63-.444.884-.993.567a2.188,2.188,0,0,1-.993-1.713c0-.63.444-.884.993-.567A2.188,2.188,0,0,1,2020.4,2658.258Z" fill="#c7bcd6" style="mix-blend-mode:multiply;isolation:isolate"/><path d="M2009.926,2652.791a2.186,2.186,0,0,1-.994-1.713.988.988,0,0,1,.048-.3c-.3.025-.5.272-.5.7a2.188,2.188,0,0,0,.994,1.713c.448.259.822.132.946-.264A.841.841,0,0,1,2009.926,2652.791Z" fill="#c7bcd6" style="mix-blend-mode:multiply;isolation:isolate"/><path d="M2019.857,2658.432a2.19,2.19,0,0,1-.993-1.713.989.989,0,0,1,.047-.3c-.3.025-.5.273-.5.7a2.188,2.188,0,0,0,.993,1.714c.448.258.822.132.946-.264A.848.848,0,0,1,2019.857,2658.432Z" fill="#c7bcd6" style="mix-blend-mode:multiply;isolation:isolate"/><path d="M2008.992,2653.369v-1.4a.484.484,0,0,1,.967,0v1.952Z" fill="#c7bcd6"/><path d="M2018.823,2658.936v-1.442a.484.484,0,0,1,.967,0v1.989Z" fill="#c7bcd6"/><path d="M1978.963,2702.841a2.628,2.628,0,0,0,1.315-.317l8.7-4.82a1.39,1.39,0,0,0,.754-1.2,1.617,1.617,0,0,0-.908-1.364l-32.305-17.05a3.24,3.24,0,0,0-1.6-.405,2.638,2.638,0,0,0-1.315.316l-8.7,4.82a1.392,1.392,0,0,0-.754,1.2,1.617,1.617,0,0,0,.908,1.363l32.3,17.05A3.232,3.232,0,0,0,1978.963,2702.841Z" fill="#debceb" opacity="0.5"/><path d="M1953.058,2638.82l4.865-1.682,1.823-2.226,2.365,46.235-9.345-9.419Z" fill="#823ca8"/><path d="M1989.457,2696.949l-27.373-15.8-2.365-46.235,27.373,15.8Z" fill="#9544c2"/><path d="M1979.236,2690.291l.149,12.541,10.067-5.886Z" fill="#9544c2"/><path d="M1980.4,2654.623l2.256-2.82,4.432-1.088,2.365,46.235-10.1-6.477Z" fill="#823ca8"/><path d="M1979.385,2702.832l-27.373-15.8,1.019-48.209,27.373,15.8Z" fill="#6a3786"/><path d="M1963.184,2650.722c0,.63-.445.883-.994.567a2.191,2.191,0,0,1-.993-1.714c0-.629.445-.883.993-.566A2.189,2.189,0,0,1,1963.184,2650.722Z" fill="#c7bcd6" style="mix-blend-mode:multiply;isolation:isolate"/><path d="M1973.115,2656.363c0,.629-.445.883-.993.566a2.188,2.188,0,0,1-.993-1.713c0-.63.444-.883.993-.566A2.188,2.188,0,0,1,1973.115,2656.363Z" fill="#c7bcd6" style="mix-blend-mode:multiply;isolation:isolate"/><path d="M1962.644,2650.9a2.189,2.189,0,0,1-.994-1.714.988.988,0,0,1,.048-.3c-.3.025-.5.273-.5.7a2.191,2.191,0,0,0,.993,1.714c.448.258.823.132.947-.264A.846.846,0,0,1,1962.644,2650.9Z" fill="#c7bcd6" style="mix-blend-mode:multiply;isolation:isolate"/><path d="M1972.575,2656.536a2.185,2.185,0,0,1-.993-1.713.985.985,0,0,1,.047-.3c-.3.025-.5.272-.5.7a2.189,2.189,0,0,0,.994,1.713c.448.259.822.132.946-.264A.849.849,0,0,1,1972.575,2656.536Z" fill="#c7bcd6" style="mix-blend-mode:multiply;isolation:isolate"/><path d="M1968.407,2667.748a4.251,4.251,0,0,1-2.328-.7,9.19,9.19,0,0,1-4.188-7.726v-7.8a.484.484,0,0,1,.967,0v7.8a8.228,8.228,0,0,0,3.749,6.916,3.309,3.309,0,0,0,5.115-2.772v-6.414a.483.483,0,0,1,.967,0v6.414a4.218,4.218,0,0,1-2.238,3.759A4.287,4.287,0,0,1,1968.407,2667.748Z" fill="#c7bcd6" style="mix-blend-mode:multiply;isolation:isolate"/><path d="M1968.226,2666.3a4.257,4.257,0,0,1-2.328-.7,9.193,9.193,0,0,1-4.188-7.726v-7.8a.484.484,0,1,1,.967,0v7.8a8.225,8.225,0,0,0,3.749,6.916,3.309,3.309,0,0,0,5.115-2.773V2655.6a.483.483,0,1,1,.966,0v6.413a4.218,4.218,0,0,1-2.237,3.759A4.277,4.277,0,0,1,1968.226,2666.3Z" fill="#c7bcd6"/><path d="M1967.315,2644.608c0,.629-.444.883-.993.566a2.188,2.188,0,0,1-.993-1.713c0-.63.444-.883.993-.567A2.188,2.188,0,0,1,1967.315,2644.608Z" fill="#c7bcd6" style="mix-blend-mode:multiply;isolation:isolate"/><path d="M1977.247,2650.248c0,.63-.445.883-.994.567a2.19,2.19,0,0,1-.993-1.714c0-.629.445-.883.993-.566A2.189,2.189,0,0,1,1977.247,2650.248Z" fill="#c7bcd6" style="mix-blend-mode:multiply;isolation:isolate"/><path d="M1966.775,2644.781a2.191,2.191,0,0,1-.993-1.713.986.986,0,0,1,.047-.3c-.3.025-.5.272-.5.695a2.188,2.188,0,0,0,.993,1.713c.448.259.822.132.946-.264A.846.846,0,0,1,1966.775,2644.781Z" fill="#c7bcd6" style="mix-blend-mode:multiply;isolation:isolate"/><path d="M1976.706,2650.422a2.191,2.191,0,0,1-.993-1.714,1.019,1.019,0,0,1,.047-.3c-.3.025-.5.273-.5.7a2.19,2.19,0,0,0,.993,1.714c.448.258.822.132.946-.265A.844.844,0,0,1,1976.706,2650.422Z" fill="#c7bcd6" style="mix-blend-mode:multiply;isolation:isolate"/><path d="M1965.842,2645.359v-1.4a.483.483,0,0,1,.967,0v1.952Z" fill="#c7bcd6"/><path d="M1975.672,2650.925v-1.441a.484.484,0,0,1,.967,0v1.989Z" fill="#c7bcd6"/><path d="M1933.039,2706.541a1.818,1.818,0,0,0,.9-.218l22.831-13.315a.956.956,0,0,0,.518-.826,1.112,1.112,0,0,0-.624-.938l-10.58-5.081a2.226,2.226,0,0,0-1.1-.279,1.817,1.817,0,0,0-.9.218l-22.831,13.315a.955.955,0,0,0-.519.826,1.114,1.114,0,0,0,.625.938l10.58,5.081A2.225,2.225,0,0,0,1933.039,2706.541Z" fill="#debceb" opacity="0.5"/><path d="M1956.221,2663.052l-4.288-1.483-1.607-1.962-2.085,27.776,8.238-8.3Z" fill="#b3267c"/><path d="M1924.135,2701.314l24.129-13.931,2.085-27.776-24.129,13.931Z" fill="#e65c9c"/><path d="M1933.145,2695.445l-.131,11.055-8.874-5.189Z" fill="#e65c9c"/><path d="M1932.115,2676.983l-1.989-2.486-3.907-.959-2.085,27.776,8.9-5.71Z" fill="#b3267c"/><path d="M1933.014,2706.5l24.129-13.931-.9-29.516-24.129,13.931Z" fill="#ce387b"/><ellipse cx="1.234" cy="0.713" rx="1.234" ry="0.713" transform="translate(1946.933 2673.745) rotate(-59.689)" fill="#c7bcd6" style="mix-blend-mode:multiply;isolation:isolate"/><path d="M1938.541,2678.517c0,.555.392.778.876.5a1.929,1.929,0,0,0,.875-1.51c0-.555-.392-.778-.875-.5A1.927,1.927,0,0,0,1938.541,2678.517Z" fill="#c7bcd6" style="mix-blend-mode:multiply;isolation:isolate"/><path d="M1947.771,2673.7a1.929,1.929,0,0,0,.876-1.51.891.891,0,0,0-.041-.267c.262.022.441.24.441.613a1.927,1.927,0,0,1-.876,1.51c-.4.228-.725.117-.834-.233A.737.737,0,0,0,1947.771,2673.7Z" fill="#c7bcd6" style="mix-blend-mode:multiply;isolation:isolate"/><path d="M1939.017,2678.67a1.927,1.927,0,0,0,.876-1.51.893.893,0,0,0-.042-.267c.262.022.441.24.441.613a1.929,1.929,0,0,1-.875,1.51c-.4.228-.725.117-.834-.233A.74.74,0,0,0,1939.017,2678.67Z" fill="#c7bcd6" style="mix-blend-mode:multiply;isolation:isolate"/><path d="M1942.691,2688.553a3.751,3.751,0,0,0,2.052-.619,8.1,8.1,0,0,0,3.692-6.811v-6.876a.427.427,0,0,0-.853,0v6.876a7.254,7.254,0,0,1-3.3,6.1,2.917,2.917,0,0,1-4.509-2.444v-5.654a.426.426,0,0,0-.852,0v5.654a3.717,3.717,0,0,0,1.973,3.313A3.768,3.768,0,0,0,1942.691,2688.553Z" fill="#c7bcd6" style="mix-blend-mode:multiply;isolation:isolate"/><path d="M1942.851,2687.274a3.75,3.75,0,0,0,2.052-.619,8.1,8.1,0,0,0,3.691-6.81v-6.876a.426.426,0,1,0-.852,0v6.876a7.251,7.251,0,0,1-3.3,6.1,2.917,2.917,0,0,1-4.509-2.444v-5.654a.426.426,0,1,0-.852,0v5.654a3.716,3.716,0,0,0,1.972,3.313A3.772,3.772,0,0,0,1942.851,2687.274Z" fill="#c7bcd6"/><path d="M1943.654,2668.155c0,.555.392.778.875.5a1.928,1.928,0,0,0,.876-1.51c0-.555-.392-.779-.876-.5A1.929,1.929,0,0,0,1943.654,2668.155Z" fill="#c7bcd6" style="mix-blend-mode:multiply;isolation:isolate"/><path d="M1934.9,2673.127c0,.555.392.778.876.5a1.929,1.929,0,0,0,.875-1.51c0-.555-.392-.779-.875-.5A1.928,1.928,0,0,0,1934.9,2673.127Z" fill="#c7bcd6" style="mix-blend-mode:multiply;isolation:isolate"/><path d="M1944.13,2668.308a1.931,1.931,0,0,0,.875-1.511.894.894,0,0,0-.041-.266c.262.022.441.24.441.613a1.928,1.928,0,0,1-.876,1.51c-.4.228-.725.117-.834-.233A.744.744,0,0,0,1944.13,2668.308Z" fill="#c7bcd6" style="mix-blend-mode:multiply;isolation:isolate"/><path d="M1935.375,2673.28a1.928,1.928,0,0,0,.876-1.51.864.864,0,0,0-.042-.267c.263.022.441.24.441.613a1.929,1.929,0,0,1-.875,1.51c-.4.228-.725.117-.834-.233A.741.741,0,0,0,1935.375,2673.28Z" fill="#c7bcd6" style="mix-blend-mode:multiply;isolation:isolate"/><path d="M1944.952,2668.817v-1.238a.426.426,0,0,0-.852,0v1.72Z" fill="#c7bcd6"/><path d="M1936.287,2673.724v-1.271a.426.426,0,0,0-.852,0v1.753Z" fill="#c7bcd6"/><path d="M1952.552,2721.055a1.808,1.808,0,0,0,.9-.218l22.831-13.314a.957.957,0,0,0,.518-.826,1.112,1.112,0,0,0-.624-.938l-10.58-5.081a2.228,2.228,0,0,0-1.1-.279,1.807,1.807,0,0,0-.9.218l-22.831,13.314a.956.956,0,0,0-.519.826,1.113,1.113,0,0,0,.625.938l10.58,5.081A2.223,2.223,0,0,0,1952.552,2721.055Z" fill="#debceb" opacity="0.5"/><path d="M1975.734,2677.567l-4.288-1.483-1.607-1.962-2.085,27.776,8.238-8.3Z" fill="#14afb2"/><path d="M1943.648,2715.829l24.129-13.931,2.085-27.776-24.129,13.931Z" fill="#24cece"/><path d="M1952.658,2709.959l-.131,11.055-8.874-5.189Z" fill="#24cece"/><path d="M1951.628,2691.5l-1.989-2.486-3.907-.959-2.085,27.776,8.9-5.71Z" fill="#14afb2"/><path d="M1952.527,2721.014l24.129-13.931-.9-29.516-24.129,13.931Z" fill="#31d9e7"/><ellipse cx="1.234" cy="0.713" rx="1.234" ry="0.713" transform="translate(1966.446 2688.26) rotate(-59.689)" fill="#c7bcd6" style="mix-blend-mode:multiply;isolation:isolate"/><path d="M1958.054,2693.032c0,.554.392.778.876.5a1.932,1.932,0,0,0,.875-1.511c0-.554-.392-.778-.875-.5A1.93,1.93,0,0,0,1958.054,2693.032Z" fill="#c7bcd6" style="mix-blend-mode:multiply;isolation:isolate"/><path d="M1967.284,2688.212a1.927,1.927,0,0,0,.876-1.51.886.886,0,0,0-.041-.266c.262.022.441.24.441.612a1.931,1.931,0,0,1-.876,1.511c-.4.228-.725.116-.834-.233A.739.739,0,0,0,1967.284,2688.212Z" fill="#c7bcd6" style="mix-blend-mode:multiply;isolation:isolate"/><path d="M1958.53,2693.184a1.928,1.928,0,0,0,.876-1.51.887.887,0,0,0-.042-.266c.262.022.441.24.441.612a1.932,1.932,0,0,1-.875,1.511c-.4.228-.725.116-.834-.233A.745.745,0,0,0,1958.53,2693.184Z" fill="#c7bcd6" style="mix-blend-mode:multiply;isolation:isolate"/><path d="M1962.2,2703.067a3.748,3.748,0,0,0,2.052-.619,8.1,8.1,0,0,0,3.692-6.81v-6.876a.427.427,0,1,0-.853,0v6.876a7.251,7.251,0,0,1-3.3,6.1,2.917,2.917,0,0,1-4.509-2.444v-5.653a.426.426,0,1,0-.852,0v5.653a3.716,3.716,0,0,0,1.972,3.313A3.761,3.761,0,0,0,1962.2,2703.067Z" fill="#c7bcd6" style="mix-blend-mode:multiply;isolation:isolate"/><path d="M1962.364,2701.789a3.749,3.749,0,0,0,2.052-.619,8.1,8.1,0,0,0,3.691-6.811v-6.876a.426.426,0,1,0-.852,0v6.876a7.252,7.252,0,0,1-3.3,6.1,2.917,2.917,0,0,1-4.509-2.443v-5.654a.426.426,0,1,0-.852,0v5.654a3.717,3.717,0,0,0,1.972,3.313A3.772,3.772,0,0,0,1962.364,2701.789Z" fill="#c7bcd6"/><path d="M1963.167,2682.669c0,.555.392.779.875.5a1.931,1.931,0,0,0,.876-1.511c0-.555-.392-.778-.876-.5A1.929,1.929,0,0,0,1963.167,2682.669Z" fill="#c7bcd6" style="mix-blend-mode:multiply;isolation:isolate"/><path d="M1954.412,2687.641c0,.555.392.779.876.5a1.933,1.933,0,0,0,.875-1.511c0-.554-.392-.778-.875-.5A1.929,1.929,0,0,0,1954.412,2687.641Z" fill="#c7bcd6" style="mix-blend-mode:multiply;isolation:isolate"/><path d="M1963.643,2682.822a1.929,1.929,0,0,0,.875-1.51.888.888,0,0,0-.041-.266c.262.022.441.24.441.612a1.931,1.931,0,0,1-.876,1.511c-.4.228-.725.116-.834-.233A.743.743,0,0,0,1963.643,2682.822Z" fill="#c7bcd6" style="mix-blend-mode:multiply;isolation:isolate"/><path d="M1954.888,2687.794a1.928,1.928,0,0,0,.876-1.51.854.854,0,0,0-.042-.266c.262.022.441.24.441.612a1.931,1.931,0,0,1-.875,1.511c-.4.228-.725.116-.834-.233A.742.742,0,0,0,1954.888,2687.794Z" fill="#c7bcd6" style="mix-blend-mode:multiply;isolation:isolate"/><path d="M1964.465,2683.331v-1.238a.426.426,0,1,0-.852,0v1.721Z" fill="#c7bcd6"/><path d="M1955.8,2688.238v-1.27a.426.426,0,0,0-.852,0v1.753Z" fill="#c7bcd6"/><path d="M1981.076,2729.966a1.807,1.807,0,0,0,.9-.218l22.831-13.314a.957.957,0,0,0,.519-.826,1.113,1.113,0,0,0-.625-.938l-10.58-5.081a2.223,2.223,0,0,0-1.1-.279,1.807,1.807,0,0,0-.9.218l-22.831,13.314a.956.956,0,0,0-.518.826,1.111,1.111,0,0,0,.624.938l10.58,5.081A2.229,2.229,0,0,0,1981.076,2729.966Z" fill="#debceb" opacity="0.5"/><path d="M2004.259,2686.478,1999.97,2685l-1.607-1.962-2.085,27.776,8.238-8.3Z" fill="#b3267c"/><path d="M1972.173,2724.74l24.129-13.931,2.085-27.776-24.129,13.931Z" fill="#e65c9c"/><path d="M1981.183,2718.87l-.131,11.055-8.874-5.188Z" fill="#e65c9c"/><path d="M1980.153,2700.409l-1.989-2.486-3.907-.959-2.085,27.776,8.9-5.71Z" fill="#b3267c"/><path d="M1981.051,2729.925l24.129-13.931-.9-29.516-24.129,13.931Z" fill="#ce387b"/><ellipse cx="1.234" cy="0.713" rx="1.234" ry="0.713" transform="translate(1994.97 2697.171) rotate(-59.689)" fill="#c7bcd6" style="mix-blend-mode:multiply;isolation:isolate"/><path d="M1986.578,2701.943c0,.554.392.778.876.5a1.93,1.93,0,0,0,.875-1.511c0-.554-.392-.778-.875-.5A1.93,1.93,0,0,0,1986.578,2701.943Z" fill="#c7bcd6" style="mix-blend-mode:multiply;isolation:isolate"/><path d="M1995.809,2697.123a1.929,1.929,0,0,0,.875-1.51.884.884,0,0,0-.041-.266c.262.022.441.24.441.612a1.931,1.931,0,0,1-.876,1.511c-.394.228-.724.116-.834-.233A.743.743,0,0,0,1995.809,2697.123Z" fill="#c7bcd6" style="mix-blend-mode:multiply;isolation:isolate"/><path d="M1987.054,2702.095a1.928,1.928,0,0,0,.876-1.51.85.85,0,0,0-.042-.266c.263.022.442.24.442.612a1.931,1.931,0,0,1-.876,1.511c-.4.228-.725.116-.834-.233A.742.742,0,0,0,1987.054,2702.095Z" fill="#c7bcd6" style="mix-blend-mode:multiply;isolation:isolate"/><path d="M1990.728,2711.978a3.747,3.747,0,0,0,2.052-.619,8.1,8.1,0,0,0,3.692-6.81v-6.876a.426.426,0,1,0-.852,0v6.876a7.252,7.252,0,0,1-3.305,6.1,2.917,2.917,0,0,1-4.509-2.444v-5.653a.426.426,0,1,0-.852,0v5.653a3.717,3.717,0,0,0,1.973,3.313A3.76,3.76,0,0,0,1990.728,2711.978Z" fill="#c7bcd6" style="mix-blend-mode:multiply;isolation:isolate"/><path d="M1990.888,2710.7a3.748,3.748,0,0,0,2.052-.619,8.1,8.1,0,0,0,3.692-6.811v-6.876a.426.426,0,0,0-.853,0v6.876a7.251,7.251,0,0,1-3.3,6.1,2.916,2.916,0,0,1-4.509-2.443v-5.654a.426.426,0,1,0-.852,0v5.654a3.716,3.716,0,0,0,1.973,3.313A3.771,3.771,0,0,0,1990.888,2710.7Z" fill="#c7bcd6"/><path d="M1991.691,2691.58c0,.555.392.779.875.5a1.931,1.931,0,0,0,.876-1.511c0-.555-.392-.778-.876-.5A1.929,1.929,0,0,0,1991.691,2691.58Z" fill="#c7bcd6" style="mix-blend-mode:multiply;isolation:isolate"/><path d="M1982.936,2696.552c0,.555.392.779.876.5a1.931,1.931,0,0,0,.876-1.511c0-.554-.392-.778-.876-.5A1.929,1.929,0,0,0,1982.936,2696.552Z" fill="#c7bcd6" style="mix-blend-mode:multiply;isolation:isolate"/><path d="M1992.167,2691.733a1.927,1.927,0,0,0,.876-1.51.881.881,0,0,0-.042-.266c.262.022.441.24.441.612a1.931,1.931,0,0,1-.876,1.511c-.394.228-.724.116-.834-.233A.743.743,0,0,0,1992.167,2691.733Z" fill="#c7bcd6" style="mix-blend-mode:multiply;isolation:isolate"/><path d="M1983.412,2696.705a1.928,1.928,0,0,0,.876-1.51.853.853,0,0,0-.042-.266c.263.022.442.24.442.612a1.93,1.93,0,0,1-.876,1.511c-.4.228-.725.116-.834-.233A.742.742,0,0,0,1983.412,2696.705Z" fill="#c7bcd6" style="mix-blend-mode:multiply;isolation:isolate"/><path d="M1992.99,2692.242V2691a.426.426,0,0,0-.852,0v1.721Z" fill="#c7bcd6"/><path d="M1984.324,2697.149v-1.27a.426.426,0,1,0-.852,0v1.753Z" fill="#c7bcd6"/></g></svg>