<svg xmlns="http://www.w3.org/2000/svg" width="295" height="262" viewBox="0 0 295 262"><g transform="translate(-2923.371 -2527.102)"><rect width="295" height="262" transform="translate(2923.371 2527.102)" fill="#f0e8fc"/><rect width="294" height="261" transform="translate(2923.871 2527.602)" fill="#f0e8fc"/><path d="M3218.371,2788.6v-93.578l-132.664-79.235-161.336,99.746V2788.6Z" fill="#caccf9"/><path d="M3176.6,2697.917l-116.184,67.042-95.267-55.364,115.73-67.414Z" fill="#babbf3"/><path d="M3176.6,2686.4l-116.184,67.414-95.143-55.24-.034-2.742,115.64-64.8,95.721,52.779Z" fill="#6a3782"/><path d="M3176.6,2683.793l-116.184,67.414-95.267-55.364,115.73-67.414Z" fill="#fff"/><path d="M3176.6,2683.917l-116.184,67.414-95.267-55.364,115.73-67.414Z" fill="#fff"/><ellipse cx="8.549" cy="5.305" rx="8.549" ry="5.305" transform="translate(3119.362 2680.445)" fill="#e8eaf7"/><ellipse cx="13.145" cy="8.157" rx="13.145" ry="8.157" transform="translate(3005.635 2676.098)" fill="#e8eaf7"/><ellipse cx="14.101" cy="8.75" rx="14.101" ry="8.75" transform="translate(3056.439 2706.057)" fill="#e8eaf7"/><path d="M3112.141,2681.221l-4.427,2.533-.118-.091-13.168-7.606-17.022-12.236-2.736-1.968-16.24-11.675-.455-6.592-.069-1.009h0l-1.22-17.667v-.017l-.5-7.2v-.013l-2.59-37.533-.037-25.563,4.8-2.29,53.98,31.409v.169Z" fill="#364085"/><path d="M3107.57,2683.562l-.31-.067-13.168-7.606-40.72-23.517-.107-72.391-.037-25.563,54.2,31.481Z" fill="#4346a3"/><path d="M3104.343,2666.443l-.034-68.854a4.885,4.885,0,0,0-2.443-4.228l-42.453-24.519a2.094,2.094,0,0,0-3.142,1.817l.1,68.55a4.887,4.887,0,0,0,2.429,4.216l42.534,24.748A2,2,0,0,0,3104.343,2666.443Z" fill="#fff"/><path d="M3112.006,2583.536v.17l-4.628,2.192-54.15-31.481,4.8-2.29Z" fill="#4346a3"/><path d="M3090.507,2579.294l-4.982-2.9v3.3l4.984,2.878Z" fill="#fff"/><path d="M3069.958,2570.707l12.391,7.156v-3.316l-12.4-7.212Z" fill="#fff"/><path d="M3078.321,2620.687v19.279l-1.778,1.14-.094.061-1.777-1.028v-17.3l1.862-1.1Z" fill="#fb95e1"/><path d="M3078.321,2620.687l-1.788,1.054-1.862,1.1-37.186-21.491v-2.006l.166-.085,1.832-.938Z" fill="#f4bbc4"/><path d="M3076.543,2621.746v19.475l-.094-.054-1.777-1.028-37.186-21.5v-19.475l.166.1,38.883,22.484Z" fill="#f8778d"/><path d="M3042.029,2611.47l-.166-.1v2.246l.166.1,30.1,17.4v-2.246Z" fill="#fff"/><path d="M3041.863,2615.773v2.246l.166.1,30.1,17.4v-2.246l-30.1-17.4Z" fill="#fff"/><path d="M3063.217,2617.452l-12.447-7.2v2.246l12.447,7.2Z" fill="#fff"/><path d="M3121.184,2610.3v19.279l-1.778,1.14-.094.061-1.777-1.028v-17.3l1.862-1.1Z" fill="#3066c8"/><path d="M3121.184,2610.3l-1.788,1.054-1.862,1.1-37.187-21.491v-2.006l.166-.085,1.832-.938Z" fill="#4d86ed"/><path d="M3119.405,2611.364v19.475l-.094-.054-1.777-1.028-37.187-21.5V2588.78l.166.1,38.883,22.484Z" fill="#2ed4e2"/><path d="M3084.891,2601.088l-.166-.1v2.246l.166.1,30.1,17.4v-2.246Z" fill="#fff"/><path d="M3084.725,2605.391v2.246l.166.1,30.1,17.4v-2.246l-30.1-17.4Z" fill="#fff"/><path d="M3106.079,2607.07l-12.447-7.2v2.246l12.447,7.2Z" fill="#fff"/><path d="M3058.874,2661.659c-3.881-.241-1.94,1.356-1.94,1.356-3.62,2.185-.294,5.052,3.425,1.428" fill="#ffbd8b"/><path d="M3068.373,2653.8l-7.6,5.762-2.364,1.791,1.723,3.708a97.8,97.8,0,0,0,12.126-6.768c5.81-3.881,11.8-11.014,9.133-15.029-.028-.044-.058-.087-.089-.129l-.84,0C3074.548,2643.642,3068.373,2653.8,3068.373,2653.8Z" fill="#f8778d"/><path d="M3062.974,2712.3c-.56.474-6.277.45-6.385,3.015.146,1.348,8.149,2.414,9.674,2.016s1.814-3.7,1.814-3.7Z" fill="#f8778d"/><path d="M3080.247,2713.4c1.02,3.69.041,4.129-1.294,4.338s-6.244-2.335-6.309-3.167,3.63-1.47,3.63-1.47Z" fill="#f8778d"/><path d="M3071.637,2686.594c.225.524,3.3,24.579,3.3,24.579l.225,2.622a15.884,15.884,0,0,0,5.471.375v-21.656s1.573-13.788.674-19.633-8.168,1.349-8.168,1.349Z" fill="#364085"/><path d="M3065.983,2666.16l12.226,4.35a50.326,50.326,0,0,1-4.9,8.353l-4.061,17.383-.756,17.25c-3.884.625-5.245.149-5.245.149a176.771,176.771,0,0,1-1.754-20.085C3061.276,2684.758,3064.326,2674.714,3065.983,2666.16Z" fill="#4346a3"/><path d="M3064.069,2673.031c7.793,7.343,16.336,3.147,18.284,0q0-1.574-.026-3.057c-.182-12.227-1.177-19.824-.688-21.045a9.669,9.669,0,0,0,.512-1.716,6.012,6.012,0,0,0,.141-2.476c-.538-2.355-3.011-4.528-6.833-2.729-5.233,2.462-10.641,3.6-11.69,7.643a21.719,21.719,0,0,0-.435,4.091A172.454,172.454,0,0,0,3064.069,2673.031Z" fill="#f8778d"/><path d="M3066.414,2641.8c.6,1.2,2.454.587,3.183.285.187-.077.3-.134.3-.134l-.087,1.733-.064,1.3s4.846,2.272,4.846-1.363v-3.332a6.8,6.8,0,0,0,2.423-6.058c-.454-3.938-6.815-6.816-9.844-3.029C3065.5,2633.619,3065.872,2640.714,3066.414,2641.8Z" fill="#ffbd8b"/><path d="M3069.9,2641.949l-.087,1.733a4.026,4.026,0,0,0,1.677-2.8,15.864,15.864,0,0,1-1.89,1.2C3069.784,2642.006,3069.9,2641.949,3069.9,2641.949Z" fill="#ffbd8b" style="mix-blend-mode:multiply;isolation:isolate"/><g opacity="0.46" style="mix-blend-mode:multiply;isolation:isolate"><path d="M3064.069,2673.031c7.793,7.343,16.336,3.147,18.284,0q0-1.574-.026-3.057c-2.127,2.356-7.232,3.48-9.865.958-3.522-3.372-.45-12.289-3.372-18.883l-5.756,1.693A172.454,172.454,0,0,0,3064.069,2673.031Z" fill="#9f66f5"/></g><path d="M3066.291,2633.631c-4.245-5.486-.049-8.709,3.548-5.037" fill="#364085"/><path d="M3060.322,2674.754c-2.922,2.4-.749,2.323-.749,2.323-2.248,5.021,3.672,6.22,3.672-1.124" fill="#ffbd8b"/><path d="M3062.57,2663.139s-1.587-11.779,2.691-15.893l.652-.531c4.75,1.287,4.6,10.729,2.5,17.473a97.764,97.764,0,0,1-5.17,12.889l-3.672-1.8Z" fill="#f8778d"/><path d="M3069.14,2636.951c0-1.514-2.423-2.423-3.181-3.786a8.573,8.573,0,0,1-.606-3.787,8.156,8.156,0,0,0,1.818-.6c.454-.3,6.815-3.181,9.844,2.877,3.029,2.878.455,7.573-2.423,8.633,0,1.515-4.089,1.06-4.241,0A18.145,18.145,0,0,0,3069.14,2636.951Z" fill="#364085"/><circle cx="1.439" cy="1.439" r="1.439" transform="translate(3067.928 2636.042)" fill="#ffbd8b"/><path d="M3031.086,2641.89c2.049,2.713.165,2.189.165,2.189.906,4.863-4.522,4.662-2.973-1.758" fill="#ffbd8b"/><path d="M3022.375,2615.051c7.245,1.676,9.671,27.285,9.671,27.285s-3.3,1.011-4.246.742l-2.9-12.8" fill="#2ed4e2"/><path d="M3022.007,2678.919l-3.414.819c-1.357.449-.544,3.453-.544,3.453l.7.489s5.735,4.1,7.546,2.753S3026.08,2682.159,3022.007,2678.919Z" fill="#2ed4e2"/><path d="M3014.909,2682.686l-3.106.4c-1.247.267-.816,3.009-.816,3.009l.577.5s4.69,4.194,6.427,3.17S3018.209,2685.952,3014.909,2682.686Z" fill="#2ed4e2"/><path d="M3025.933,2643.531l-3.233,36.378a5.91,5.91,0,0,1-5.657.2l-1.226-34.618Z" fill="#364085"/><path d="M3011.1,2647.018c.017,3.2-.489,36.494-.489,36.494,3.64,1.618,5.392-.269,5.392-.269s2.058-17.638,2.965-20.891c1.146-4.111,4.448-11.187,6.537-19.7Z" fill="#4346a3"/><path d="M3026.318,2644.964a19.276,19.276,0,0,1-14.624,3.909c-.313-3.592-.341-5.79-.474-8.074a57.006,57.006,0,0,0-.6-5.674c-.808-5.256-3.976-10.648-3.3-11.591.657-.921,1.131-5.879,12.466-8.312q.429-.092.878-.179c4.178-.809,4.852,3.908,5.661,9.3S3026.318,2644.964,3026.318,2644.964Z" fill="#f8778d"/><path d="M3027.194,2645.908a15.261,15.261,0,0,1-3.707,1.82,111.137,111.137,0,0,0-.629-17.724c-.727-5.682-2.135-11.295-4.8-14.374a5.059,5.059,0,0,1,1.692-.5,11.858,11.858,0,0,1,2.621-.081S3030.294,2615.043,3027.194,2645.908Z" fill="#2ed4e2"/><path d="M3019.983,2648.941a22.087,22.087,0,0,1-2.872.814,14.564,14.564,0,0,1-6.5.129c-.067-12.063,0-14.759,0-14.759l-1.286-7.992-.937-5.823a12.326,12.326,0,0,1,5.745-4.455c.267-.09.542-.17.826-.236,2.27,3.076,3.535,8.573,4.234,14.17A130.366,130.366,0,0,1,3019.983,2648.941Z" fill="#2ed4e2"/><path d="M3019.2,2630.789a17.867,17.867,0,0,1-4.74-6.379l.808-1.819h-1.415s-.509-1.426.287-5.736c.267-.09.542-.17.826-.236C3017.233,2619.7,3018.5,2625.192,3019.2,2630.789Z" fill="#e8eaf7"/><path d="M3022.858,2630c-.727-5.682-2.135-11.295-4.8-14.374a5.059,5.059,0,0,1,1.692-.5c3.072,3.335,3.4,4.857,3.4,4.857l-1.2.748,1.648,1.117S3024.33,2626.439,3022.858,2630Z" fill="#e8eaf7"/><g opacity="0.31" style="mix-blend-mode:multiply;isolation:isolate"><path d="M3017.111,2649.755a14.564,14.564,0,0,1-6.5.129c-.067-12.063,0-14.759,0-14.759l-1.286-7.992,2.971-.095c1.752,6.672-.606,9.84,0,16.107A7.939,7.939,0,0,0,3017.111,2649.755Z" fill="#dd2265"/></g><path d="M3009.79,2648.09c2.049,2.713.165,2.189.165,2.189.906,4.863-4.522,4.662-2.973-1.758" fill="#ffbd8b"/><path d="M3010.413,2648.2a5.078,5.078,0,0,1-3.908.607s-2.831-19.544,1.819-27.5l.546.247a7.862,7.862,0,0,1,2.756,2.786,8.716,8.716,0,0,1,1.281,5.189s-2.089,4.38-2.426,5.661C3010.481,2637.754,3010.413,2648.2,3010.413,2648.2Z" fill="#2ed4e2"/><path d="M3019.743,2619.285c-2.327,1.41-5.148-2.256-5.148-2.256l.353-4.161.269.1,3.891,1.517v1.763s.144.123.334.322C3020.019,2617.183,3021.026,2618.507,3019.743,2619.285Z" fill="#ffbd8b"/><path d="M3019.442,2616.575c-.877,1.692-3.428.628-4.423-3.354l.2-.248,3.891,1.517v1.763S3019.252,2616.376,3019.442,2616.575Z" fill="#ffbd8b" style="mix-blend-mode:multiply;isolation:isolate"/><path d="M3021.487,2606.317s1.677,8.856-3.336,9.553c-5.459.758-5.459-7.582-5.459-7.582l5.156-3.336,2.123-.455Z" fill="#ffbd8b"/><path d="M3021.1,2607.068a2.03,2.03,0,0,1,.651,1.826s1.4-.3.944-3.639c-.758-5-8.43-4.458-9.986-1.218-2.246,2.593-.022,6.677-.022,6.677l2.518.486a2,2,0,0,0,.615-1.849,2.889,2.889,0,0,1,.994-1.728C3017.683,2606.932,3019,2607.68,3021.1,2607.068Z" fill="#0f183f"/><circle cx="1.441" cy="1.441" r="1.441" transform="translate(3012.389 2609.349)" fill="#ffbd8b"/><path d="M3021.744,2608.876c4.147-1.555,2.765-7.085.561-7.906s-3.974.864-2.246,2.549,1.123,2.938,1.123,2.938" fill="#0f183f"/><path d="M3119.405,2619.818" fill="none"/><path d="M3099.171,2640.365c0-5.152-3.64-11.43-8.129-14.022-2.165-1.249-4.132-1.414-5.588-.672l-.005-.008-1.26.7.585,1a8.237,8.237,0,0,0-.42,2.725c0,5.152,3.639,11.429,8.129,14.021a8.33,8.33,0,0,0,2.634,1.02l.6,1.025.844-.453C3098.164,2644.932,3099.171,2643.074,3099.171,2640.365Z" fill="#f4bbc4"/><ellipse cx="6.616" cy="11.46" rx="6.616" ry="11.46" transform="translate(3078.413 2629.733) rotate(-30.311)" fill="#f8778d"/><ellipse cx="5.646" cy="9.78" rx="5.646" ry="9.78" transform="matrix(0.863, -0.505, 0.505, 0.863, 3080.1, 2630.695)" fill="#fff"/><path d="M3076.628,2597.651c0-5.152-3.64-11.43-8.13-14.022-2.164-1.249-4.131-1.414-5.588-.672l0-.008-1.261.7.585,1a8.228,8.228,0,0,0-.42,2.724c0,5.152,3.64,11.429,8.129,14.021a8.33,8.33,0,0,0,2.634,1.02l.6,1.025.843-.453C3075.621,2602.218,3076.628,2600.36,3076.628,2597.651Z" fill="#4d86ed"/><ellipse cx="6.616" cy="11.46" rx="6.616" ry="11.46" transform="translate(3055.87 2587.019) rotate(-30.311)" fill="#2ed4e2"/><ellipse cx="5.646" cy="9.78" rx="5.646" ry="9.78" transform="translate(3057.556 2587.981) rotate(-30.311)" fill="#fff"/><path d="M3135.225,2667.405l-1.578,11.691-.018.138-.016.113-1.045,7.74-.194,1.436,0,.028-.005.037h-.068a13.248,13.248,0,0,1-15.867,0h-.049l-.006-.045-.013-.113-.015-.129-1.045-8.969-.017-.143-.006-.049-1.367-11.735Z" fill="#f8778d"/><ellipse cx="10.657" cy="7.936" rx="10.657" ry="7.936" transform="translate(3113.912 2659.461)" fill="#f4bbc4"/><ellipse cx="8.227" cy="6.127" rx="8.227" ry="6.127" transform="translate(3116.497 2660.781)" fill="#364085"/><path d="M3124.241,2663.989c4.084,0,7.473,2.216,8.117,5.122a4.789,4.789,0,0,0,.6-2.294c0-3.384-3.684-6.127-8.228-6.127s-8.227,2.743-8.227,6.127a4.659,4.659,0,0,0,.11,1C3117.83,2665.574,3120.786,2663.989,3124.241,2663.989Z" fill="#4346a3"/><path d="M3155,2655.941a20.739,20.739,0,0,0-7.883-8.192l-1.662,1.285.809-1.729a18.208,18.208,0,0,0-14.284-.487l-.718,1.839-.5-1.341c-7.334,3.277-11.647,10.539-5.9,15.659l.373,0a11.613,11.613,0,0,0,8.887-2.067l-2.164-.637,3.316-.148c3.82-2.712,7.489-6.152,14.351-5.433l-.837-1.326,2.1,1.5A26.337,26.337,0,0,1,3155,2655.941Z" fill="#3cebce"/><path d="M3124.228,2667.5h-.007a.125.125,0,0,1-.118-.133c.371-6.283,2.484-10.884,6.279-13.675,6.487-4.77,15.763-2.539,15.855-2.516a.126.126,0,1,1-.06.244c-.092-.023-9.257-2.225-15.647,2.476-3.731,2.744-5.81,7.282-6.177,13.486A.125.125,0,0,1,3124.228,2667.5Z" fill="#364085"/><path d="M3117.979,2650.208l-.5,1.122-.286-1.712a14.694,14.694,0,0,0-11.258-2.29l.865,1.777-1.939-1.5a11.353,11.353,0,0,0-8,9.359,32.212,32.212,0,0,0,4.623,2.05l3.238-1.012-1.754,1.5a43.971,43.971,0,0,0,10.164,1.775l5.086-1.795-2.64,1.886a45.048,45.048,0,0,0,7.337-.442A13.293,13.293,0,0,0,3117.979,2650.208Z" fill="#2ed4e2"/><path d="M3124.595,2666.606a.148.148,0,0,1-.146-.119c-1.3-6.45-4-10.691-8.04-12.607-6.461-3.066-14.211.951-14.288.992a.148.148,0,1,1-.139-.262c.079-.041,7.956-4.128,14.552-1,4.127,1.957,6.888,6.269,8.206,12.817a.148.148,0,0,1-.116.174Z" fill="#364085"/><path d="M3135.558,2659.883l-.205.886.933-.88a10.863,10.863,0,0,1,7.654,3.684l-1.3.66,1.811-.015a8.393,8.393,0,0,1,.526,9.087,23.7,23.7,0,0,1-3.639-.86l-1.454-2.043.36,1.669a32.548,32.548,0,0,1-6.778-3.5l-2.193-3.331.712,2.291a33.344,33.344,0,0,1-4.123-3.541A9.829,9.829,0,0,1,3135.558,2659.883Z" fill="#2ed4e2"/><path d="M3124.331,2666.582a.11.11,0,0,0,.139-.005c3.648-3.218,7.138-4.506,10.371-3.829,5.175,1.083,7.943,6.913,7.97,6.972a.11.11,0,0,0,.2-.092c-.028-.06-2.839-5.988-8.123-7.095-3.3-.692-6.859.613-10.562,3.879a.109.109,0,0,0-.01.155Z" fill="#364085"/><path d="M3112.108,2664l.518.747-1.192-.472a10.86,10.86,0,0,0-5.749,6.253l1.456.131-1.689.656a8.394,8.394,0,0,0,2.872,8.637,23.793,23.793,0,0,0,3.063-2.144l.6-2.437.282,1.684a32.53,32.53,0,0,0,5-5.757l.8-3.906.186,2.392a33.5,33.5,0,0,0,2.522-4.814A9.829,9.829,0,0,0,3112.108,2664Z" fill="#3cebce"/><path d="M3125.016,2666.075a.11.11,0,0,1-.13.047c-4.58-1.64-8.3-1.547-11.052.278-4.408,2.92-4.823,9.36-4.827,9.425a.11.11,0,0,1-.219-.012c0-.066.424-6.613,4.923-9.6,2.815-1.865,6.6-1.967,11.249-.3a.109.109,0,0,1,.066.14Z" fill="#364085"/><path d="M3122.222,2672.984,3120.7,2674a11.852,11.852,0,0,0,.526,6.561l1.737-1.2-1.252,2.338a19.3,19.3,0,0,0,5.108,6.264,34.987,34.987,0,0,0,3.413-6.06l-1.04-1.652,1.491.417c.971-3.022,1-6.262-1.365-9.239l-2.054-.67s.6-.091,1.294-.19a17.474,17.474,0,0,0-4.511-3.221,14.744,14.744,0,0,0-3.118,5.7Z" fill="#3cebce"/><path d="M3126.671,2680.4h-.015a.147.147,0,0,1-.132-.163c.493-4.69-1.544-10.028-2.762-13.218-.794-2.081-1.031-2.749-.723-2.958.216-.146.557.045,1.3.732a.148.148,0,0,1-.2.219c-.652-.6-.871-.688-.934-.7a10.963,10.963,0,0,0,.83,2.6c1.227,3.215,3.281,8.6,2.78,13.355A.148.148,0,0,1,3126.671,2680.4Z" fill="#364085"/><path d="M3055.8,2646.687l3.26,2.261,4.383-10.241" fill="none" stroke="#fff" stroke-miterlimit="10" stroke-width="1"/></g></svg>